<mxfile host="65bd71144e" pages="2">
    <diagram name="Single Hub" id="Azure_(2019)_framework">
        <mxGraphModel dx="2294" dy="564" grid="1" gridSize="10" guides="1" tooltips="1" connect="1" arrows="1" fold="1" page="1" pageScale="1" pageWidth="850" pageHeight="1100" math="0" shadow="0">
            <root>
                <mxCell id="0"/>
                <mxCell id="1" parent="0"/>
                <mxCell id="-JWOgZodCvPbYzVBMZfy-225" value="" style="rounded=0;whiteSpace=wrap;html=1;dashed=1;strokeColor=#4A8CF6;fillColor=none;movable=1;resizable=1;rotatable=1;deletable=1;editable=1;locked=0;connectable=1;" parent="1" vertex="1">
                    <mxGeometry x="42" y="280" width="770" height="680" as="geometry"/>
                </mxCell>
                <mxCell id="vjdyiZtdKuZDlL9iYwmZ-212" value="" style="rounded=0;whiteSpace=wrap;html=1;dashed=1;strokeColor=#4A8CF6;fillColor=default;movable=1;resizable=1;rotatable=1;deletable=1;editable=1;locked=0;connectable=1;fillStyle=solid;" parent="1" vertex="1">
                    <mxGeometry x="272.79" y="794" width="160.68" height="150" as="geometry"/>
                </mxCell>
                <mxCell id="YFrTDAXUjAM_6Oz1HCe--328" value="" style="rounded=0;whiteSpace=wrap;html=1;dashed=1;strokeColor=#4a8cf6;fillColor=default;movable=1;resizable=1;rotatable=1;deletable=1;editable=1;locked=0;connectable=1;fillStyle=solid;" parent="1" vertex="1">
                    <mxGeometry x="262.79" y="784" width="160.68" height="150" as="geometry"/>
                </mxCell>
                <mxCell id="YFrTDAXUjAM_6Oz1HCe--327" value="" style="rounded=0;whiteSpace=wrap;html=1;dashed=1;strokeColor=#4A8CF6;fillColor=#FFFFFF;movable=1;resizable=1;rotatable=1;deletable=1;editable=1;locked=0;connectable=1;verticalAlign=bottom;align=left;" parent="1" vertex="1">
                    <mxGeometry x="252.79000000000002" y="774" width="160.68" height="150" as="geometry"/>
                </mxCell>
                <mxCell id="YFrTDAXUjAM_6Oz1HCe--309" value="" style="rounded=0;whiteSpace=wrap;html=1;dashed=1;strokeColor=#4A8CF6;fillColor=default;movable=1;resizable=1;rotatable=1;deletable=1;editable=1;locked=0;connectable=1;fillStyle=solid;" parent="1" vertex="1">
                    <mxGeometry x="68" y="314" width="570" height="350" as="geometry"/>
                </mxCell>
                <mxCell id="YFrTDAXUjAM_6Oz1HCe--297" value="&lt;font style=&quot;font-size: 10px;&quot;&gt;&amp;nbsp; CloudGuard Network Security&lt;/font&gt;" style="rounded=0;whiteSpace=wrap;html=1;fillColor=#bac8d3;strokeColor=none;align=left;verticalAlign=bottom;" parent="1" vertex="1">
                    <mxGeometry x="133.33" y="480" width="210" height="70" as="geometry"/>
                </mxCell>
                <mxCell id="YFrTDAXUjAM_6Oz1HCe--296" value="&lt;font style=&quot;font-size: 10px;&quot;&gt;&amp;nbsp; CloudGuard AppSec&amp;nbsp;&amp;nbsp;&lt;/font&gt;" style="rounded=0;whiteSpace=wrap;html=1;fillColor=#bac8d3;strokeColor=none;verticalAlign=bottom;align=right;movable=1;resizable=1;rotatable=1;deletable=1;editable=1;locked=0;connectable=1;" parent="1" vertex="1">
                    <mxGeometry x="380" y="480" width="191.03" height="70" as="geometry"/>
                </mxCell>
                <mxCell id="YFrTDAXUjAM_6Oz1HCe--251" value="Frontend Subnet" style="rounded=0;whiteSpace=wrap;html=1;fillColor=#dae8fc;strokeColor=none;fontSize=8;" parent="1" vertex="1">
                    <mxGeometry x="408" y="441" width="130" height="30" as="geometry"/>
                </mxCell>
                <mxCell id="YFrTDAXUjAM_6Oz1HCe--245" value="Frontend Subnet" style="rounded=0;whiteSpace=wrap;html=1;fillColor=#dae8fc;strokeColor=none;fontSize=8;" parent="1" vertex="1">
                    <mxGeometry x="173.33" y="441" width="130" height="30" as="geometry"/>
                </mxCell>
                <UserObject label="" tags="Background" id="102">
                    <mxCell style="vsdxID=95;fillColor=none;gradientColor=none;strokeColor=none;spacingTop=-3;spacingBottom=-3;spacingLeft=-3;spacingRight=-3;points=[[0,0.5,0],[1,0.5,0],[0.5,1,0],[0.5,0,0]];labelBackgroundColor=none;rounded=0;html=1;whiteSpace=wrap;" parent="1" vertex="1">
                        <mxGeometry x="308" y="184" width="102" height="63" as="geometry"/>
                    </mxCell>
                </UserObject>
                <mxCell id="103" style="vsdxID=96;fillColor=#59b4d9;gradientColor=none;strokeOpacity=0;shape=stencil(lZbbbtswDIafxreEJOp4OXTtexRtuhjLksJNt+TtS8eSLdJOhelKJvSLn2iKVIcPH/vn911n1Md5OP3e/etfz/sOf3bG9Mf9bujPNOvwscOHt9Ow+zWcPo+v0/f787hynP05/R13uEy6pMGlUWXUdbI4stwMT9P6l89hEuis8OCLIpucAztZLiYvSpDKomzyFjCbLrhelU3Blt1v7tWPLYJKlk3Rg40CwYELHIHQnUCICWzgCLS9jgLh0B+roMUwe7suSLGOGhdoV7a8K5CH9BAiP+Mimc+o+PmIy0R+PiXCq0vo7odXcbdu/N+qGo4zVKDZYpFAUzUcZ6qjgYukxUWyhJztrqdMoj2g/k84P0d5hqPMbbGNaVQHyXBQ9BATZzMIQeQnGgp1PTiaieANRyNFaKCZtArbPT8FQ4MWUUPkKLSD1QIF2ze3lulZht+xVIrFFFMbpx2ZDRptwbJkFzhWARqOoziKU2AEimpwOL+dkld+IecLh/MtLwyB6lo9LGfyHkTe6Naf8nFV5elmGOYlcC6qLV6v/2RhpNCGTXlV+QWkBVmHJWa0lKobPnXDZ2kIelW8jOxR1ZJSD3zpZN/0KCq0olYFkMm94d6mVYuqW3RJMtajbwA0X3r8W384TE+Eub/QRL4JyDS9J/DxCw==);spacingTop=-3;spacingBottom=-3;spacingLeft=-3;spacingRight=-3;points=[[0,0.5,0],[1,0.5,0],[0.5,1,0],[0.5,0,0]];labelBackgroundColor=none;rounded=0;html=1;whiteSpace=wrap;" parent="102" vertex="1">
                    <mxGeometry width="102" height="63" as="geometry"/>
                </mxCell>
                <mxCell id="104" value="&lt;div style=&quot;font-size: 1px&quot;&gt;&lt;p style=&quot;align:center;margin-left:0;margin-right:0;margin-top:0px;margin-bottom:0px;text-indent:0;valign:middle;direction:ltr;&quot;&gt;&lt;font style=&quot;font-size:11.29px;font-family:Arial;color:#000000;direction:ltr;letter-spacing:0px;line-height:100%;opacity:1&quot;&gt;Internet&lt;/font&gt;&lt;/p&gt;&lt;/div&gt;" style="text;vsdxID=95;fillColor=none;gradientColor=none;strokeColor=none;spacingTop=-3;spacingBottom=-3;spacingLeft=-3;spacingRight=-3;points=[[0,0.5,0],[1,0.5,0],[0.5,1,0],[0.5,0,0]];labelBackgroundColor=none;rounded=0;html=1;whiteSpace=wrap;verticalAlign=middle;align=center;;html=1;" parent="102" vertex="1">
                    <mxGeometry x="-19.05" y="68.71" width="140.34" height="13.34" as="geometry"/>
                </mxCell>
                <mxCell id="58" value="&lt;div style=&quot;&quot;&gt;&lt;p style=&quot;margin: 0px; text-indent: 0px; direction: ltr;&quot;&gt;&lt;font face=&quot;Arial&quot;&gt;&lt;span style=&quot;font-size: 11.29px;&quot;&gt;Hub Vnet&lt;/span&gt;&lt;/font&gt;&lt;/p&gt;&lt;/div&gt;" style="text;vsdxID=39;fillColor=none;gradientColor=none;fillOpacity=0;strokeColor=none;strokeWidth=2;spacingTop=-3;spacingBottom=-3;spacingLeft=-3;spacingRight=-3;points=[[0,0.5,0],[1,0.5,0],[0.5,1,0],[0.5,0,0]];labelBackgroundColor=none;rounded=0;html=1;whiteSpace=wrap;verticalAlign=middle;align=left;;html=1;" parent="1" vertex="1">
                    <mxGeometry x="128.51" y="333.40999999999997" width="80.47" height="20.59" as="geometry"/>
                </mxCell>
                <mxCell id="YFrTDAXUjAM_6Oz1HCe--233" value="" style="aspect=fixed;html=1;points=[];align=center;image;fontSize=12;image=img/lib/azure2/networking/Public_IP_Addresses.svg;" parent="1" vertex="1">
                    <mxGeometry x="221.84" y="354" width="30.95" height="24.76" as="geometry"/>
                </mxCell>
                <UserObject label="" tags="Background" id="YFrTDAXUjAM_6Oz1HCe--240">
                    <mxCell style="vsdxID=192;edgeStyle=none;startArrow=none;endArrow=block;startSize=5;endSize=5;strokeColor=#666666;spacingTop=-3;spacingBottom=-3;spacingLeft=-3;spacingRight=-3;verticalAlign=middle;html=1;labelBackgroundColor=none;rounded=1;startFill=0;" parent="1" edge="1">
                        <mxGeometry relative="1" as="geometry">
                            <mxPoint x="348" y="274" as="sourcePoint"/>
                            <mxPoint x="258" y="344" as="targetPoint"/>
                        </mxGeometry>
                    </mxCell>
                </UserObject>
                <mxCell id="YFrTDAXUjAM_6Oz1HCe--318" value="Inbound&lt;br style=&quot;border-color: var(--border-color); font-size: 10px;&quot;&gt;Non-HTTP/HTTPS" style="edgeLabel;html=1;align=center;verticalAlign=middle;resizable=0;points=[];fontSize=10;" parent="YFrTDAXUjAM_6Oz1HCe--240" vertex="1" connectable="0">
                    <mxGeometry x="0.4208" relative="1" as="geometry">
                        <mxPoint x="24" y="6" as="offset"/>
                    </mxGeometry>
                </mxCell>
                <UserObject label="" tags="Background" id="YFrTDAXUjAM_6Oz1HCe--241">
                    <mxCell style="vsdxID=192;edgeStyle=none;startArrow=none;endArrow=block;startSize=5;endSize=5;strokeColor=#666666;spacingTop=-3;spacingBottom=-3;spacingLeft=-3;spacingRight=-3;verticalAlign=middle;html=1;labelBackgroundColor=none;rounded=1;startFill=0;" parent="1" edge="1">
                        <mxGeometry relative="1" as="geometry">
                            <mxPoint x="368" y="274" as="sourcePoint"/>
                            <mxPoint x="458" y="344" as="targetPoint"/>
                        </mxGeometry>
                    </mxCell>
                </UserObject>
                <mxCell id="YFrTDAXUjAM_6Oz1HCe--317" value="Inbound HTTP/HTTPS" style="edgeLabel;html=1;align=center;verticalAlign=middle;resizable=0;points=[];fontSize=10;" parent="YFrTDAXUjAM_6Oz1HCe--241" vertex="1" connectable="0">
                    <mxGeometry x="-0.3103" y="2" relative="1" as="geometry">
                        <mxPoint x="38" y="29" as="offset"/>
                    </mxGeometry>
                </mxCell>
                <mxCell id="YFrTDAXUjAM_6Oz1HCe--249" value="Backend Subet" style="rounded=0;whiteSpace=wrap;html=1;fillColor=#f8cecc;strokeColor=none;fontSize=8;" parent="1" vertex="1">
                    <mxGeometry x="172.32000000000002" y="561" width="130" height="30" as="geometry"/>
                </mxCell>
                <mxCell id="47" style="vsdxID=43;fillColor=#FEFEFE;gradientColor=none;fillOpacity=0;shape=stencil(7Z3Nctw2EISfZo9CkeD/MeU47+GK5VgVx3LJdmK/fUBL2gXYA3RjhVTlYJ30gyGInk+7HGBm9jS8+vz+zafbk+8+f3m4//P2n7u3X96fhl9P3t99fH/7cPclfHcaXp+GV+/uH27/eLj/+vHt48+f3uwj9+/+uv97v8K3R7vO9eNu5LvvT7/48dNvj2N///rwOLg/jx629OvJ+DygS/46Dv5xwDd/GfBkcv5Nv3TRV788WQzxDXXfh8vwyy12vxh3eRNN0pNJ/NkktzLPVjZcLjEe7pXfKNHzhgp6g4reVEp6I2iKkuZn8QwWTxc3AJ0ZSVOae7dNOs3RaBXf3q1blyy6DuZgX41z75b+eJtl5Xs3T+W7JLrvF6hDOTulDHK0TJVjUFMhOetClesIGxnkyEYCufyynI4d3FLxEh6NVqEf3JwqNp6qoA/21dAPboLbLLtlcON0vC/ilchExDyykMGOlqKCDYopYGfdpIIdoSGDHdk0B3ty06KDHY1WwZ7cuJ6qUA4WQzXLkxsqWZ6chxsjjohMRJYjC5nlaCkqyyiZAnPkGhXfCAAZ38imOb6LGyrwjUar+AaTysePxfl6fJew5uSidSwvrqtlOTIRWY4sZJZz61LBRjEVsCOnqWBHaMhgRzbNwd6eVymBHY1WwQ4mlWBvrqsHe3Vb5evy6tZaliMTkeXIQmY5WoqKL0qm4Bu5RsU3AkDGN7Jpjm/fua2C33i4HCYGm9rIsHOrr0Y4WC1wcyR86dxcC3FsowaEkYkeA0bLkYNAFE4KAyMXyZFfhIIe+kVG7Vn25xBYQfkyWibZuyUdUom1x60EwTneeJgnvgkmyY1WMx4u0Jf9ZN2mOacOvLceWqsllYDPeVKm/0KPDr+HDa927I/nKFlh/zJaZn8MkXuiSCX7oxvrdz6CFUYCxDOjEQkwz0Q2Ku6j9ezKRTSeXquFkwjP+Usm/MKITvgIu1vtCJ9dxc7ePjpeXedPlbzPEN1TT83OX/HyPrse/hmJa2YjJmCuiWxUxGfr+Zbr1iM31cJJiM+wl8SpznGhM37h8L9n3LvevwRzH8Ly+M8jhTxYJOvnrvJuqEc8N02e8NxS8nyn4qmIe9f18Z3NlO/9PCPxwUo1Ox+BVNGdnUiEO7e0LNmGgg3hHp9luRLu8GY6JRBRuMNbqTcuWHDUblFPd26ePN25teTpTtVT6R7D62M8zUDpHl2XWHC4x+f9xyq4c/OIbOcWlmXb0K8h2+Hn/iVshz8ny6FozyF2qnNTsBDcdEQ7N08e7cxS8mSn2qlkB0l68j83H2/MJzkZkyCZH+vJzs0jkp1bWJZsQ7+GZK/PJ7hXkr26mT+FrIfwHN/sj65ZnzMmqmjOzZOnObr9PMGpRirBqxuTJxzjmWg+3syQPO1ygtfnALSK4Nw8IsG5hWUJNvRrSPC+G7ucXoDwvjM7x9jgM+IR6H1jNrkmvj/BM+JuUo90dqY809n15Ak/aKgiHsymue5VOpiMa93L9G6y1VOenUnEPLu4LOeWii1B927ZTi8B3buVP3qEUVuybiH+2U2uYDs3U4HtaAkFnFOlZJyDWRJRoViAs3dzEhsIOO8mV+Ccm0nFObe4PM6Gii1xHpOo+QqcJxrbA9tTCIEr3TVp+w5HtnMzFdjOracA+ijtPADoY3hTIQ9KR9BHt6zxenqu3G5yBei5mVTQc4vLg26o2BL0JYmgrwB9oWE+gL6c3VHy0KLtOhzZji5ewDl31wWcF2mvAXCe3VYOr4HmYJFECnxfdDcRQhKgOTeTSnNmbXmYDQ1bwrw5f3oJyxsN7IHlrTou+mFyBdi5mQqU59ZToDyRUIZ8Ox5lcMoveVBlrTphyx/Aji6uspxbQh5mlKrhoTplGc7VKb3kWJ2ijKfDEsp4rk5RxnN1ijIeqyso48k6RRnP1S2UTa04yuQk3eIazs4pyXBy3pbkY2oUJRmyoyjJJDmKkoyZPBLJmB1FSSbZURRrTI5SsCb5UZRxzI6yGDdV5IyTfCiLcciAooxD/lNbxiGVlUKO2ayUckxmpWBjTqYENmazUrAxm5WyjMmsCsuYz0rxxWxWC19TK44v5q9axGLGKkUW81WbMgvVAwxZLCBgxGL9AAMWk+EVXrGAgOGKBQSMVqwfEGDFEgLGKhYQGKiaKlFSsWTAABWLBBinWCLQFFOo3mKYYgEXwxTrtximWHKkYEoKuBizWMDFmMX6LYFZLOFizJICLgNgUz8KMJZsGQBjkRYDGEu0mgIM1bMMYCygZQBj/SwDGItBFYCxgJYxiwW0jFmsnxWYxRJaxiwW0BqYmipRTLFk1sAUi2QZplgi2xRT6F7AMMUGBgxT1r+AQQvV+Aqz2MCAMYsNDBiz2L9AYBZbGDBmsYGBwawlEkWWtSwwAMYmBQxgbFHQNgY79pyhIRi0naERGOk6Q8MxIwjlwRi0naGxGGk7QwMzK45nOLPGMzRIg7YzVoxmCMgjNNJoxgrXoLUMjdagsUxTuGEsg5t2tGKsYzsrRncH66dsGx3CGNy8QxjD22gQJvDNe4Qxwo0OYQbiqCIF3BTxiLQiW5FwSbWWhLOTaO4QchRt+ANPoo/+EE6hLarxFFoAmRxKWyALh9ICyeUzagtkckZ9VFE4nzZEJMfTXNDy+bQmZ0vEWVYR9xRJKzI8RbKKjp4SMoos3klGkQA/STCy4BcSjAT4Sb6RRT/JNzpqKuQaGZKSVCOuKMk10gRtiT/LEeW+wiRRwzskR/ToHSE/1CKe5IcKxGO6qAW5kC4qQE6yRy3ISfYoykgzR00Vi4mjiojFzFFN0JaQs4x/7iuS8m+4imT8H10lZPtbxJNsf4F4kvxv4S8k/wv4k1oAC39SC4Ca0joAU9JiGYCiaLEOQBO0If6sZIu6Cmu20DekZOvgGqFcy6CdlGtx2LF6y8BbqN7idJNiLgNuUswFAtLA3tKvGNYL8hULuSQpG3LNimypk8pVtugiUmR7cJFQYGswTgpsOePleluDd6HelvNOym8N3kn5LYhJS28tLYuVt4KUxU0sScqGvLOGCdRJpGMC+og0TDj4SGiWYABPmiVw4EnvBIN4oXcCJ560UjCIJ60UQE26i2SJWeyiIGhZ3O2SpGxIPOt/Q51EGuCgj0j/m4OPeO8bA3jS+4YDT1rhGMALrXA48KQzjvW8TjrjHJ/X+daR8bhOmuIIahb3uCQxGyL/8zNnbDf9/MyZ/+VnzoTvLx+n9O7uw4czu+Gb4wcvhV89fmjT8Ppf);strokeColor=#0e76d4;strokeWidth=2;spacingTop=-3;spacingBottom=-3;spacingLeft=-3;spacingRight=-3;points=[[0,0.5,0],[1,0.5,0],[0.5,1,0],[0.5,0,0]];labelBackgroundColor=none;rounded=0;html=1;whiteSpace=wrap;" parent="1" vertex="1">
                    <mxGeometry x="148" y="364" width="318" height="300" as="geometry"/>
                </mxCell>
                <mxCell id="49" style="vsdxID=45;fillColor=#FEFEFE;gradientColor=none;fillOpacity=0;shape=stencil(pVnbUtswEP0av2okrWXJjx1K/4MpoWRKCROgJX9fGce2tDeFCU/G0vGePbvalZQObl4f7152nbevb8fD792//f3bYwffO+/3z4+74/4tP3Vw28HNw+G4+3U8vD/fz/+/3E0zp6c/h7/TFz5mnHPGpgnl7Wl+E0wIny9+zPN/vh9ngKMIt0CGMBZ/cR7+8AviPN0v0yPY4q8/T4fzdGvG86sTbIiNk/3G0bImBUyLt+M3BCbG+wEEAJxWIi9Mq0+llUBpBcwLYoUIFygGqcXMYV6CFU8D73VXgCJkxVBCegNjlZDRODUfM6AiMdZuZXgss8AjrzIcaq+i8UP5vQF55Y0PtVcZEVtqe+MGzIy3szFzmBjvChAAMNKJtBArymKoaQxm9DoNrM+EaBNZ4+B0O74ReF87AjSxRHm+WhzRfDCxmp7MoOduBpQeWhSLjFdzF8wAigLJxMR8fVUEFm9WRSZEK1CAFn3CnHmjG+feYZq8l0ARwOkq0iRq4oomubIS66sGgjOK069vNiopaE436hsp47GTQJJSVu/KvC/WLiorStFGq30qG7aUBbfrPM4l1qkYj3S4LI5o+X8ivlwfJTsbDdsra1J0cyNlA+F5QRnnra7jrd6SYz768gPQ1i9DmtkuRc01zMrtefUF6BRZsSszPM9HGZ6XcXOfjFM8L0XHRKnY+i17ztO23JPTwpJ3i2iLNUGa3ZbsSkVDG7fYE268O0AhwKomcVthG7lQpTcuimQr/1nay7yjhwxGt77Z/IoIuYYlT/PAN9wBClGEu7por4tx/UKvp3QB2bI8DFzzLspKYHKkKDtDtf7pESKh9jVBmmXHmTjqZYc3u9GKOGiSp0AhwAoqMsVlwhkIpSVcJiTntnG25uqa+vZ5UQila5j1NHt8w1OgEEXTq3ftfb0QxlwK1XVA95ajGauuTndttaNIiAxXqxXko2Ktw4RoBQzQVmMknNXCBcZ5nTPrMhRwzDldsG3nja6co7pJlFxeOQ+XSHuepNLk4+mIHfncI/kin3sYAa9vAqGaH82QOi33GzvNmI9/5SjTD/A53aRekyEjahXickGm1qqE7zUEM0VRDZgY7wpQBHDiifU+YGahunhLhFlymFmoMocWeCJZaK68IjJON3PhUUfySz7pMPpdmd922TYt84fGwbQArNdQ+gWiNQE5PjT6rzXkfqzdfa3pPSam91trgNzc6ReIBQIYuSRigC428UVmQX29OB7VmxWiULjgqFkEwulmPA22r6kDnSEqkp+3n1ce9k9Pa3blB/xDTH41/4gDt/8B);strokeColor=#0e76d4;strokeWidth=2;spacingTop=-3;spacingBottom=-3;spacingLeft=-3;spacingRight=-3;points=[[0,0.5,0],[1,0.5,0],[0.5,1,0],[0.5,0,0]];labelBackgroundColor=none;rounded=0;html=1;whiteSpace=wrap;" parent="1" vertex="1">
                    <mxGeometry x="148" y="364" width="318" height="300" as="geometry"/>
                </mxCell>
                <mxCell id="51" style="vsdxID=47;fillColor=#FEFEFE;gradientColor=none;fillOpacity=0;shape=stencil(pVnbUhsxDP2avHrWki+7jx1K/4MpoWRKSSdAS/++XoK9lmRbMMnTxuuzOpJPJK2yw6un+5vf+x1MT8+n48/938Pt8/0Ov+4ADo/3+9PhOV3t8HqHV3fH0/7H6fjyeHv+/vtm3ble/Tr+WZ/wesZ5My8rCKZ/ecH7t4Vv5+3fX07n/VYAykrwS/WJ59uvUAD4DigrEafq494BWG77d8C2ghun6UuTVgicVttKIREm8vGcZNurQilwjnXcehzbJst9N9cmvWAcOEeMBOD1SOKssiznZRUzICQBY09QAPrRozp1xmdW54VoQuWJdKMC2IyIhBRQL5xxkXoRzexqANOpy7EsXiSApoEE4qzaRgorgPr24jnHtlOFIyDnGDQFdG0Wyp7oYeaUkXP0U73f6nH0VuVYTsuOrYDQA4zdQAHoh+6TyZRuR2MD2b4YWEaargA2IzBQP9MeS/1cjAvkOKmfaCagfi45tv3wg1kEk7YVyIA5clqFOoo92ApIh8kcORM7t84VBPXCxNrPxceCwqo6BTs0AuJkYewFCkA/VhepM+mfqtNa44atwYoY1bf0ALpBZGCW3BIgkEzE6khKApYGYUVorULKNyCIte1sSTiOeoWuY1sWjoKn00tFx+rGGn19f+Gsi58bT5hrhMjEjXiCXi4ksbYZUHQCimMolDkI50Xi9yZX0iz+9INzI/FXCFsgQNxEGoZEif3mEwLtQEepn2OV8g2hnE9CSWZtO1uniYJZ2xcUCGwGrNcQo2A2ka7dcmbFl8xszec1YlZjVirAsAlm9a1rB8T5g+ILCsQgZhfmcDuT7cmLsYwrxOY4kMZKdKhWHslQxs7kl7HqSFQZo+F9aNdOKaozKaFLFDzbnpUay19TWPg6PDtWN9YT1vcFa97jp+y2jDq4RjwTQmvhqnOzih0Q2gDFFxSIQQQvkjjkd64i8Ym0AM2OkQtpMrTSskwNJrIX3BXROuStleUFfzJaHQUTnOTVtFJ4eS6VnicoENgMV4eZlxHzozxd+bIxc6M83YqY09J0dTBWMQPi8EFxBQViELJL0zTVcDR2N1Bwtb+8/Fpy7iynpAzBBBwNkJ86exVLANYJxtzDDjM0cFptK1uCpo2geENve7Xl58BJ6lWkYzIzFsmYFbeQVsa1jQUu5EeMUvHEZNyzAkIAQHmj2NANzYUNsgvD7bKjcmJAq8yNWQZRx8bIIv+hsTGIIawyNraR01IGxTZyWh+YFNvIaSmzYfCcljYbluH6wGzYcVraaNiJmbUyGnb6YD1db/9n3B0eHorq0gX/5yMtnf81wev/);strokeColor=#0e76d4;strokeWidth=2;spacingTop=-3;spacingBottom=-3;spacingLeft=-3;spacingRight=-3;points=[[0,0.5,0],[1,0.5,0],[0.5,1,0],[0.5,0,0]];labelBackgroundColor=none;rounded=0;html=1;whiteSpace=wrap;" parent="1" vertex="1">
                    <mxGeometry x="148" y="364" width="318" height="300" as="geometry"/>
                </mxCell>
                <mxCell id="53" style="vsdxID=49;fillColor=#FEFEFE;gradientColor=none;fillOpacity=0;shape=stencil(hZNLEoIwDIZP0y3TJipl6SDegxEQRgSmgMLtbac8W8CuQpKv+ZMGgn6dhlVMgNaNKF/xN4ualOCNAGRFGouskRbBgKCflCJ+irItIv1dhSpTWe/yo27oNHdxkCsIaK8d3OHacdfpj1bofGYBbCQ8ThfnpMMdTAB4yzPQQ9hz6GkZdQcaRxqG+3qcgPMskF43NTJD416VSSNbq9rrCc183Jranihzbu6qBrM0cVOUS5dNWKLMUUmA/VW1/TrsuCRYywDHTaEF7E9O2vO6JlmeT8soDXOxpUv/FBj8AA==);strokeColor=#0e76d4;strokeWidth=2;spacingTop=-3;spacingBottom=-3;spacingLeft=-3;spacingRight=-3;points=[[0,0.5,0],[1,0.5,0],[0.5,1,0],[0.5,0,0]];labelBackgroundColor=none;rounded=0;html=1;whiteSpace=wrap;" parent="1" vertex="1">
                    <mxGeometry x="148" y="364" width="318" height="300" as="geometry"/>
                </mxCell>
                <mxCell id="55" style="vsdxID=51;fillColor=#FEFEFE;gradientColor=none;fillOpacity=0;shape=stencil(fVPREkMwEPyavJpIhOSxo/ofpqhMFRO0+vel4QQhT2f3Nrd3OYiGTR7XKSK4aVX1TD8yaXNEr4gQWeapku0QIRohGmaVSh+q6spEf9fxmDlGr+o93tBrHXc4G0UEfwHgf+Cm0++d0vnuTgCI4Ng4nqZ7MtOBMGl3Uk+0cLAnjBNMagrqWUBBwBaD+GL16JO1x6Mq4JExkxZrj0cdgkfmrz2uh3jg0V4S6IBbprYYhg6XMWPzup3H7RwBOfNofzr3vCTZbQo5b4ruBMdzHOJllzNZFLCpQ7Dd+gHSfwyNfg==);strokeColor=#0e76d4;strokeWidth=2;spacingTop=-3;spacingBottom=-3;spacingLeft=-3;spacingRight=-3;points=[[0,0.5,0],[1,0.5,0],[0.5,1,0],[0.5,0,0]];labelBackgroundColor=none;rounded=0;html=1;whiteSpace=wrap;" parent="1" vertex="1">
                    <mxGeometry x="148" y="364" width="318" height="300" as="geometry"/>
                </mxCell>
                <mxCell id="57" style="vsdxID=53;fillColor=#FEFEFE;gradientColor=none;fillOpacity=0;shape=stencil(hZNBEoIwDEVP0y3TJCqwdBDvwQgKI4JTUOH2thYCY0W6Sj995CdNBUVNntwzgbJpVX3NXkXa5oIOArGo8kwVrY4ExYKic62yi6ofVWr398ScNNGtfpo/dJYD8AgNhbK3SuAFwUc42vOnh7IAuASMSLiVs0X2c4dM4G4gBin05CacLX8giAkYpJ6Y2E625P63M/hytpRncjaaHZ0t1UIuQb8atuSMKe6ZH8zzgOOMa2FnvpzXslntmSZg3RnfDfzPg+794/9ayCWWe6bjaUjPRVnyBOrge5y1ZJ8CxW8=);strokeColor=#0e76d4;strokeWidth=2;spacingTop=-3;spacingBottom=-3;spacingLeft=-3;spacingRight=-3;points=[[0,0.5,0],[1,0.5,0],[0.5,1,0],[0.5,0,0]];labelBackgroundColor=none;rounded=0;html=1;whiteSpace=wrap;" parent="1" vertex="1">
                    <mxGeometry x="148" y="364" width="318" height="300" as="geometry"/>
                </mxCell>
                <UserObject label="" tags="Background" id="YFrTDAXUjAM_6Oz1HCe--225">
                    <mxCell style="vsdxID=178;fillColor=none;gradientColor=none;strokeColor=none;spacingTop=-3;spacingBottom=-3;spacingLeft=-3;spacingRight=-3;points=[[0,0.5,0],[1,0.5,0],[0.5,1,0],[0.5,0,0]];labelBackgroundColor=none;rounded=1;html=1;whiteSpace=wrap;" parent="1" vertex="1">
                        <mxGeometry x="453" y="411" width="40" height="38" as="geometry"/>
                    </mxCell>
                </UserObject>
                <mxCell id="YFrTDAXUjAM_6Oz1HCe--226" style="vsdxID=179;fillColor=#7fba00;gradientColor=none;strokeOpacity=0;shape=stencil(jZTdcoMgEIWfxltmYUXlspMm75FpTHWaxowxrX37omDYxZ82V4ALe+Y7J5vg7l4db2Wi4N61zUf5XZ+6KsHXRKn6WpVt3dlVgvsEd+emLd/b5nE9uf3tOFQOq8/ma3ihd/c0CJDDLQU/7kQCjPuDK397tK5eus9pLrT2FyS/Ab3yNVoM+7HGH5lCGOOr0FehmB7yJyYXiKE5vNj+l/pK5CqRIVOrM6Hlll4QJgX6k1y8TkWBXD5w6VoJVFw6cN0aItEzEbynZZgVUc81mQGpzLkIwiIQTc0mP8L8+Ui+aTexcrLbJoYq9fyD+yQhnGiP89AxousErQk60hGFjhg5tV1ViiE8UQQ5jwWCNqMqZwgj6nPtQ/az9QRSayfhYAlFDC3WNPoHsbL/ZpFdInQjF9dEz2n3OCdDAMtNnNSCxSGwEAViNCFsuH4amED1zxyy6TfqteswPM/15eJm71OeXcTD1h65QY37Xw==);spacingTop=-3;spacingBottom=-3;spacingLeft=-3;spacingRight=-3;points=[[0,0.5,0],[1,0.5,0],[0.5,1,0],[0.5,0,0]];labelBackgroundColor=none;rounded=0;html=1;whiteSpace=wrap;" parent="YFrTDAXUjAM_6Oz1HCe--225" vertex="1">
                    <mxGeometry width="40" height="38" as="geometry"/>
                </mxCell>
                <mxCell id="YFrTDAXUjAM_6Oz1HCe--227" style="vsdxID=180;fillColor=#ffffff;gradientColor=none;strokeOpacity=0;shape=stencil(pVbJcsIwDP2aXDWW5fXYoe1/dFoomVJgUrr9fR1sBy9ZYMopyHqy5Pcku6HVx/bpuG44+zh1h7f1d/ty2jZ033De7rfrrj25r4YeGlptDt36tTt87l/8/+NT79l/vR+++gg/HmcReA/i7NcbhAWis+XR++/afeKvNViTAUgBqlsAQs7uoAiMmgc8f3a+BgwQDgoDJJgEA4ks+Um//sP9ujRgbIDwoRClgxcFLwEs5hJMlCfD7qoCUpC3cD5bLhdXe0sGDDNvV8fMYbqaDF4d3R20tf/wpiWiBDqtpKzEyrGmILKiQVBO1CS3NEQZAtOohEZY4wh5MQsyrfwX+sCAvqXPqvC9xvUN/pIAZ/zTM5oAlOSlTODQRaN8RvIm+Q7rCsFECNWqoqFFFsirpai508isFAmszqvRZfYMjM4TdtMMixmRegWTYRlX54Sr/RNYMBkJwhYpiGpMGQuqEHw6Faj0mk7BDaphNGMdPE5K65SScqiKfJKsKYHcfiSTO2F9+DE5J2OT56NF7MO5MV7o46oxXuhwpIDkUsFa4VH0yW11uY3G++jSAaYoQC42RX3zyrKAJYAquygHLD8e3Mfl5bFpdzv/cEnXy5eKM/lXDj38AQ==);spacingTop=-3;spacingBottom=-3;spacingLeft=-3;spacingRight=-3;points=[[0,0.5,0],[1,0.5,0],[0.5,1,0],[0.5,0,0]];labelBackgroundColor=none;rounded=0;html=1;whiteSpace=wrap;" parent="YFrTDAXUjAM_6Oz1HCe--225" vertex="1">
                    <mxGeometry width="40" height="38" as="geometry"/>
                </mxCell>
                <mxCell id="YFrTDAXUjAM_6Oz1HCe--228" style="vsdxID=181;fillColor=#59b4d9;gradientColor=none;strokeOpacity=0;shape=stencil(lZPdbsIwDIWfJrdRYjv9uUQM3gOthVZjFIXCurdfSixqwqqKXrknPvGX9FTh+tLszrUCc+l991X/tFXfKPxQAO2pqX3bh0rhRuF63/n64LvrqYrv593YOVbf3W3cYYg+Z7SxowvMb1Sw0AXelW00fF59dNjYQKQtsMWmHjMAS6Umx10sEWoqSvHw+oCvFpao1ChgzOofHmljyTlt82ceSc2SKwO15MmeeeTd4GShBZ4wPM/ltpTAzY1lrMxoArmeUIuz4eTA9y9ubpBd+FywcE54DcX8jSZxu4OGesrrvj0eY9wfiQxFmu8gxX8DN38=);spacingTop=-3;spacingBottom=-3;spacingLeft=-3;spacingRight=-3;points=[[0,0.5,0],[1,0.5,0],[0.5,1,0],[0.5,0,0]];labelBackgroundColor=none;rounded=0;html=1;whiteSpace=wrap;" parent="YFrTDAXUjAM_6Oz1HCe--225" vertex="1">
                    <mxGeometry width="40" height="38" as="geometry"/>
                </mxCell>
                <mxCell id="YFrTDAXUjAM_6Oz1HCe--229" style="vsdxID=182;fillColor=#ffffff;gradientColor=none;fillOpacity=15;strokeOpacity=0;shape=stencil(hVNBcoMwDHyNrxrZsg0+dtLkH5mGFE8pZAhp09/XYBcspiScjLQrrdaWoN21Pl4qofA69N1H9e1PQy3oVSjl27rq/RBOgvaCdueur9777tae4v/lOCLH02f3NVa4R56xYMzIUvgTIwpsMQUOEf926yNBJoYG6zD7/ugpLwElS8uYv6vEV2BUoqQQJgQlBIYSCUE5YlKEL/+I0sUyhuRFUw9tQK3abipNTTWB4TK4N5OSxreZnQFAzM1QQ7tHdiI4nYuYJ5ezblnwUZCPEWa3JVeOXLZ5Zh/ynuMVrW5tU6aaX0VJXETmBS2PTT72z0DJ/CscWJP7x/HWAfdbGiDaxj9/7uGw7MrZN01ctTy/3q0QintJ+18=);spacingTop=-3;spacingBottom=-3;spacingLeft=-3;spacingRight=-3;points=[[0,0.5,0],[1,0.5,0],[0.5,1,0],[0.5,0,0]];labelBackgroundColor=none;rounded=0;html=1;whiteSpace=wrap;" parent="YFrTDAXUjAM_6Oz1HCe--225" vertex="1">
                    <mxGeometry width="40" height="38" as="geometry"/>
                </mxCell>
                <UserObject label="" tags="Background" id="202">
                    <mxCell style="vsdxID=187;fillColor=none;gradientColor=none;strokeColor=none;spacingTop=-3;spacingBottom=-3;spacingLeft=-3;spacingRight=-3;points=[[0,0.5,0],[1,0.5,0],[0.5,1,0],[0.5,0,0]];labelBackgroundColor=none;rounded=1;html=1;whiteSpace=wrap;" parent="1" vertex="1">
                        <mxGeometry x="217.32" y="583" width="85.00000000000003" height="38" as="geometry"/>
                    </mxCell>
                </UserObject>
                <mxCell id="203" style="vsdxID=188;fillColor=#7fba00;gradientColor=none;strokeOpacity=0;shape=stencil(jZTdcoMgEIWfxltmYUXlspMm75FpTHWaxowxrX37omDYxZ82V4ALe+Y7J5vg7l4db2Wi4N61zUf5XZ+6KsHXRKn6WpVt3dlVgvsEd+emLd/b5nE9uf3tOFQOq8/ma3ihd/c0CJDDLQU/7kQCjPuDK397tK5eus9pLrT2FyS/Ab3yNVoM+7HGH5lCGOOr0FehmB7yJyYXiKE5vNj+l/pK5CqRIVOrM6Hlll4QJgX6k1y8TkWBXD5w6VoJVFw6cN0aItEzEbynZZgVUc81mQGpzLkIwiIQTc0mP8L8+Ui+aTexcrLbJoYq9fyD+yQhnGiP89AxousErQk60hGFjhg5tV1ViiE8UQQ5jwWCNqMqZwgj6nPtQ/az9QRSayfhYAlFDC3WNPoHsbL/ZpFdInQjF9dEz2n3OCdDAMtNnNSCxSGwEAViNCFsuH4amED1zxyy6TfqteswPM/15eJm71OeXcTD1h65QY37Xw==);spacingTop=-3;spacingBottom=-3;spacingLeft=-3;spacingRight=-3;points=[[0,0.5,0],[1,0.5,0],[0.5,1,0],[0.5,0,0]];labelBackgroundColor=none;rounded=0;html=1;whiteSpace=wrap;" parent="202" vertex="1">
                    <mxGeometry width="40" height="38" as="geometry"/>
                </mxCell>
                <mxCell id="204" style="vsdxID=189;fillColor=#ffffff;gradientColor=none;strokeOpacity=0;shape=stencil(pVbJcsIwDP2aXDWW5fXYoe1/dFoomVJgUrr9fR1sBy9ZYMopyHqy5Pcku6HVx/bpuG44+zh1h7f1d/ty2jZ033De7rfrrj25r4YeGlptDt36tTt87l/8/+NT79l/vR+++gg/HmcReA/i7NcbhAWis+XR++/afeKvNViTAUgBqlsAQs7uoAiMmgc8f3a+BgwQDgoDJJgEA4ks+Um//sP9ujRgbIDwoRClgxcFLwEs5hJMlCfD7qoCUpC3cD5bLhdXe0sGDDNvV8fMYbqaDF4d3R20tf/wpiWiBDqtpKzEyrGmILKiQVBO1CS3NEQZAtOohEZY4wh5MQsyrfwX+sCAvqXPqvC9xvUN/pIAZ/zTM5oAlOSlTODQRaN8RvIm+Q7rCsFECNWqoqFFFsirpai508isFAmszqvRZfYMjM4TdtMMixmRegWTYRlX54Sr/RNYMBkJwhYpiGpMGQuqEHw6Faj0mk7BDaphNGMdPE5K65SScqiKfJKsKYHcfiSTO2F9+DE5J2OT56NF7MO5MV7o46oxXuhwpIDkUsFa4VH0yW11uY3G++jSAaYoQC42RX3zyrKAJYAquygHLD8e3Mfl5bFpdzv/cEnXy5eKM/lXDj38AQ==);spacingTop=-3;spacingBottom=-3;spacingLeft=-3;spacingRight=-3;points=[[0,0.5,0],[1,0.5,0],[0.5,1,0],[0.5,0,0]];labelBackgroundColor=none;rounded=0;html=1;whiteSpace=wrap;" parent="202" vertex="1">
                    <mxGeometry width="40" height="38" as="geometry"/>
                </mxCell>
                <mxCell id="205" style="vsdxID=190;fillColor=#59b4d9;gradientColor=none;strokeOpacity=0;shape=stencil(lZPdbsIwDIWfJrdRYjv9uUQM3gOthVZjFIXCurdfSixqwqqKXrknPvGX9FTh+tLszrUCc+l991X/tFXfKPxQAO2pqX3bh0rhRuF63/n64LvrqYrv593YOVbf3W3cYYg+Z7SxowvMb1Sw0AXelW00fF59dNjYQKQtsMWmHjMAS6Umx10sEWoqSvHw+oCvFpao1ChgzOofHmljyTlt82ceSc2SKwO15MmeeeTd4GShBZ4wPM/ltpTAzY1lrMxoArmeUIuz4eTA9y9ubpBd+FywcE54DcX8jSZxu4OGesrrvj0eY9wfiQxFmu8gxX8DN38=);spacingTop=-3;spacingBottom=-3;spacingLeft=-3;spacingRight=-3;points=[[0,0.5,0],[1,0.5,0],[0.5,1,0],[0.5,0,0]];labelBackgroundColor=none;rounded=0;html=1;whiteSpace=wrap;" parent="202" vertex="1">
                    <mxGeometry width="40" height="38" as="geometry"/>
                </mxCell>
                <mxCell id="206" style="vsdxID=191;fillColor=#ffffff;gradientColor=none;fillOpacity=15;strokeOpacity=0;shape=stencil(hVNBcoMwDHyNrxrZsg0+dtLkH5mGFE8pZAhp09/XYBcspiScjLQrrdaWoN21Pl4qofA69N1H9e1PQy3oVSjl27rq/RBOgvaCdueur9777tae4v/lOCLH02f3NVa4R56xYMzIUvgTIwpsMQUOEf926yNBJoYG6zD7/ugpLwElS8uYv6vEV2BUoqQQJgQlBIYSCUE5YlKEL/+I0sUyhuRFUw9tQK3abipNTTWB4TK4N5OSxreZnQFAzM1QQ7tHdiI4nYuYJ5ezblnwUZCPEWa3JVeOXLZ5Zh/ynuMVrW5tU6aaX0VJXETmBS2PTT72z0DJ/CscWJP7x/HWAfdbGiDaxj9/7uGw7MrZN01ctTy/3q0QintJ+18=);spacingTop=-3;spacingBottom=-3;spacingLeft=-3;spacingRight=-3;points=[[0,0.5,0],[1,0.5,0],[0.5,1,0],[0.5,0,0]];labelBackgroundColor=none;rounded=0;html=1;whiteSpace=wrap;" parent="202" vertex="1">
                    <mxGeometry width="40" height="38" as="geometry"/>
                </mxCell>
                <mxCell id="207" value="&lt;div style=&quot;font-size: 1px&quot;&gt;&lt;p style=&quot;align:center;margin-left:0;margin-right:0;margin-top:0px;margin-bottom:0px;text-indent:0;valign:middle;direction:ltr;&quot;&gt;&lt;br&gt;&lt;/p&gt;&lt;/div&gt;" style="text;vsdxID=187;fillColor=none;gradientColor=none;strokeColor=none;spacingTop=-3;spacingBottom=-3;spacingLeft=-3;spacingRight=-3;points=[[0,0.5,0],[1,0.5,0],[0.5,1,0],[0.5,0,0]];labelBackgroundColor=none;rounded=1;html=1;whiteSpace=wrap;verticalAlign=middle;align=center;;html=1;" parent="202" vertex="1">
                    <mxGeometry x="-19.05" y="43.71" width="79.38" height="13.34" as="geometry"/>
                </mxCell>
                <mxCell id="199" value="" style="vsdxID=184;fillColor=none;gradientColor=none;image;aspect=fixed;image=data:image/png,iVBORw0KGgoAAAANSUhEUgAAAMgAAADICAMAAACahl6sAAAABGdBTUEAALGPC/xhBQAAACBjSFJNAAB6JgAAgIQAAPoAAACA6AAAdTAAAOpgAAA6mAAAF3CculE8AAABa1BMVEX////kV4XkV4XkV4XkV4XkV4XkV4XkV4XkV4XkV4XkV4XkV4XkV4XkV4XkV4XkV4XgTHmETY01lP81lP81lP81lP81lP81lP81lP81lP81lP81lP81lP81lP81lP85R5w+aMU0PZE7RppLVKhUU6VdW61rUJs1lP82Q5dHUaZUWKtaVqdpX64+S6BmXq01lP9QVqlCTqNEUabGWY/kV4XeSXXWTHubSIJ+PXnYOmXMHkamH014H1RUHVY7GlMxF08rEkZBLGw1lP9CG1UuFk3cRXEsFElAPYe5Hko+Q5LiU4E2W7WGH1IyY8LSLFZLHFYsGlbVM12WH1AtHl3ZPmlrHlUuJWnfTHkvLXnNIUorFEowM4U2GVIuKXEvK3XPJU4sFk7bQm0uJ23TMFotHFowMYHQKVIsGFLhUH1fHlbWN2EtIGEtImUvL30+OIQ8R5xCS58yOIteVKOGWZ+nWZhTUaMxOYx3WKL///908or8AAAANHRSTlMAIEBggKDAMJDgEHBQ0PCwrMdAIMCgcNCAEOAw8JCw++f++uDNlIJQ/erBgS34VGDS8ue6j9TQMAAAAAFiS0dEAIgFHUgAAAAJcEhZcwAACxIAAAsSAdLdfvwAAAAHdElNRQflAgkWOyJ87E1lAAAHG0lEQVR42u2caXsURRCAs2eS3WTRzd5HUBEX8ViPiYoQMw4BY0SJRCBmJIAQUPA+/74zmz1mdrunq7urdyY+9X7hA/mw71NVXTU9Pb2wQBAEQRAEQRAEQRAEQRAEQRAEQRAzpNKZ7JBMOhX3r1F0yOTy1hT5XOaU2SwuLVsclpcW4/51UApFrsXQpViI+zcCSOUsALmkpxhMI/EqhSxUwyeb2ARbWZbx8GplJe5fzKSwJKfhs5TAoCyuyntY1mri1uJMScXDskqZuH/5lIeahk+iTMCLLotc3L8eySNBJpoeiTHRqI9E1cmKvodlJaA1Liquu2FKsfeTglIfnGU17h6vMJewWYrXI43lYVnpWEUk590oluP0yOJ5eM8n8XkUUFasEaX46h2t0k+Ird5TuB6WFVdIstgiMVUJboX4lOIRQRgWp4lneMzr//Bp8nF4oJe6Txy7dkUTIsUYRM6YEDkTg4gJD8uavwfi3Btk/jNw1ozI/HuikRKJo0iQHnGnWZ27iBmP+Ve7kXboM++WaGjRmv+y9b8RMTKg+Mx7SMmaEpljI0mlPV7YMMEHH370YtljzbBCupjLDx8LL32My+Urm59s2R6fOidUqrWymTgUQ70cVeTK1W17xEjkxKaGHJtCcbqRX0O0uG4H+MwJU0d0YZ3L2MCx2NnctsN87sxQxckx9vESFJGdzeu2LRbxUkxfpcB5QbiL4MHQsO0vHCYVzQQrcveutDVubNssvnQ4NJoaWRWx4/OVZlbdZGrYe1wRp6WcX5HHMr7W8rjFDodt7/NFvKCoeUTvtX+j43Hb5nEnSsSpKKRXQbCReFfD4yrXwz6IFHHqbWkP4aPstyY8Dt1oEacjaQJ466xaJDvf8T3sfZGIpAnk7bnqkBLlYd8TikiZgE4B7Krl1tUoj0NXLCJjAtuzUsqtm1EeXmYBRJw6dO0CvuNUGbduR3rYRyARpwLzAB/3uS/tcet6pMcDFyYC64zwV4MPZT12tqID8j1UxIFMKxJv1GRDEl0gg4AARVriMpF5xSkZklu2OCBAEaeLl1jyIdkCBAQq4ojW4KyMh9zCJVix/CVLQkSwcsnuTT+SENmO9njsSokI6l325KtEexcE5PBYUqSCGRCZiUsQkHuupEhkSOQqZAB0UBEEZN+VFlmPEFE4JrP7BCYSOfTaT115EYe/saJ0FvkHUJlcBhWInAh/UFF7U3sXYvJjpMeBqyLS4jZDJQ/Y4/sW0ENGhNsUlU+5i0eVy1APKZEaUhORyK7bUA8pEV4r0TiNLDLhP+A+CHtIiThY3TCAYBXmlsjTY1dDhN0TNT8EeRYlwvN47ro6IuwiyeqJWNf46XWDk1ZHrp4I+6lE+7zPLndcYdf682NXU4Rd7QinRjc4Lxs2GRp7B66rK1LHGrRmeXgfJrJ35Lr6IuxlC8PD4xojKtMT42OeRpJEvDHy2f0okQc//ey6p0LE4+6zJ2yRvTsHbiQJE/HY3bj06ElA5HBv/86RKyR5IqPY+Idlfjk6FiskXGTAr1CNpIv8BrT4/ezZlyrVRqNb8UmgyB8CgZdfOffq+ddmf1Kz3GtUK6dD5MLrF99YELDWa7Bt2J3dwIctI/7kSZx/UyQxpsyQMTZr8fiLYfHWxbfBEqNM61U7IRH2PkrWnIg1awEPRZiQS5/5JwY+/hoTWn8vvKNqcUJ/nGPsbZRFgyJ/TzTePa9lMWCtOwhLh/Pf6N8VThhV+z/n+IXRLJf7jcagiVT9f2vlMv8FW7PW4u/+GvokZMBQg51T7V5jvc5uFPVKo8/Zdu+3ePtaxo6JW4PeztYoNwAdvNLtyRxwMvYphce/7nuzGu0aZAwZxaYLP0Fn6Csdn/dnaqPdbUnNh35xV3swEWO5tTz9McVaTdpi6NKFHKlR3Y4XMX1JW3ldzWKYY32xifYtQCymLwPrKwYjEBbh0VkT3+mEL0BoNjq6GiAV9MGxFK6OGoqGjyC/sEOSD1WHflJNQiJKLtyQhNKqLdE0hAhPbKFOjsGbD5pdRA1xQDDvOgldNVXGyypQQLxegnUdUHDVxQ0HKCBo9R68MKuNGw7hkoWZXEGPGrIG9JQpxuwY8GhWsT060K979K+gCXrU9X/5FMAReEH/gryARxutlY8RnstEMwl4lPE91iU89LaGlicefXQN+MH4IWnlmAT6YAI8NLIrnSyPhYWU2iqcMelRVfoWsaDyvJgz6aH4+Z7K/dCTBauNrtHR+GA3Jfl4UhpfBoLfP9Y1PnH1gyI1DI8LpIk9Jrbg7ZxXKVl4fk0u/kGeSzrK1RFWAUZl0glxHz/Euz/wBAPVyriD9DA1IPtxEqSKQpfxTsMaXqFj3vgwSbGVbD6iXiaJhVQglW7f4P0ohfRKls14xGo39KmVpT+TJgiCIAiCIAiCIAiCIAiCIAiCIE4n/wEcArwt9ODQLAAAACV0RVh0ZGF0ZTpjcmVhdGUAMjAyMS0wMi0wOVQyMjo1OTozNCswMDowMMTL34MAAAAldEVYdGRhdGU6bW9kaWZ5ADIwMjEtMDItMDlUMjI6NTk6MzQrMDA6MDC1lmc/AAAAAElFTkSuQmCC;strokeWidth=102;spacingTop=-3;spacingBottom=-3;spacingLeft=-3;spacingRight=-3;points=[[0,0.5,0],[1,0.5,0],[0.5,1,0],[0.5,0,0]];labelBackgroundColor=none;rounded=0;html=1;whiteSpace=wrap;" parent="1" vertex="1">
                    <mxGeometry x="156.79" y="480" width="58" height="58" as="geometry"/>
                </mxCell>
                <UserObject label="" tags="Background" id="192">
                    <mxCell style="vsdxID=178;fillColor=none;gradientColor=none;strokeColor=none;spacingTop=-3;spacingBottom=-3;spacingLeft=-3;spacingRight=-3;points=[[0,0.5,0],[1,0.5,0],[0.5,1,0],[0.5,0,0]];labelBackgroundColor=none;rounded=1;html=1;whiteSpace=wrap;" parent="1" vertex="1">
                        <mxGeometry x="217.32" y="411" width="40" height="38" as="geometry"/>
                    </mxCell>
                </UserObject>
                <mxCell id="193" style="vsdxID=179;fillColor=#7fba00;gradientColor=none;strokeOpacity=0;shape=stencil(jZTdcoMgEIWfxltmYUXlspMm75FpTHWaxowxrX37omDYxZ82V4ALe+Y7J5vg7l4db2Wi4N61zUf5XZ+6KsHXRKn6WpVt3dlVgvsEd+emLd/b5nE9uf3tOFQOq8/ma3ihd/c0CJDDLQU/7kQCjPuDK397tK5eus9pLrT2FyS/Ab3yNVoM+7HGH5lCGOOr0FehmB7yJyYXiKE5vNj+l/pK5CqRIVOrM6Hlll4QJgX6k1y8TkWBXD5w6VoJVFw6cN0aItEzEbynZZgVUc81mQGpzLkIwiIQTc0mP8L8+Ui+aTexcrLbJoYq9fyD+yQhnGiP89AxousErQk60hGFjhg5tV1ViiE8UQQ5jwWCNqMqZwgj6nPtQ/az9QRSayfhYAlFDC3WNPoHsbL/ZpFdInQjF9dEz2n3OCdDAMtNnNSCxSGwEAViNCFsuH4amED1zxyy6TfqteswPM/15eJm71OeXcTD1h65QY37Xw==);spacingTop=-3;spacingBottom=-3;spacingLeft=-3;spacingRight=-3;points=[[0,0.5,0],[1,0.5,0],[0.5,1,0],[0.5,0,0]];labelBackgroundColor=none;rounded=0;html=1;whiteSpace=wrap;" parent="192" vertex="1">
                    <mxGeometry width="40" height="38" as="geometry"/>
                </mxCell>
                <mxCell id="194" style="vsdxID=180;fillColor=#ffffff;gradientColor=none;strokeOpacity=0;shape=stencil(pVbJcsIwDP2aXDWW5fXYoe1/dFoomVJgUrr9fR1sBy9ZYMopyHqy5Pcku6HVx/bpuG44+zh1h7f1d/ty2jZ033De7rfrrj25r4YeGlptDt36tTt87l/8/+NT79l/vR+++gg/HmcReA/i7NcbhAWis+XR++/afeKvNViTAUgBqlsAQs7uoAiMmgc8f3a+BgwQDgoDJJgEA4ks+Um//sP9ujRgbIDwoRClgxcFLwEs5hJMlCfD7qoCUpC3cD5bLhdXe0sGDDNvV8fMYbqaDF4d3R20tf/wpiWiBDqtpKzEyrGmILKiQVBO1CS3NEQZAtOohEZY4wh5MQsyrfwX+sCAvqXPqvC9xvUN/pIAZ/zTM5oAlOSlTODQRaN8RvIm+Q7rCsFECNWqoqFFFsirpai508isFAmszqvRZfYMjM4TdtMMixmRegWTYRlX54Sr/RNYMBkJwhYpiGpMGQuqEHw6Faj0mk7BDaphNGMdPE5K65SScqiKfJKsKYHcfiSTO2F9+DE5J2OT56NF7MO5MV7o46oxXuhwpIDkUsFa4VH0yW11uY3G++jSAaYoQC42RX3zyrKAJYAquygHLD8e3Mfl5bFpdzv/cEnXy5eKM/lXDj38AQ==);spacingTop=-3;spacingBottom=-3;spacingLeft=-3;spacingRight=-3;points=[[0,0.5,0],[1,0.5,0],[0.5,1,0],[0.5,0,0]];labelBackgroundColor=none;rounded=0;html=1;whiteSpace=wrap;" parent="192" vertex="1">
                    <mxGeometry width="40" height="38" as="geometry"/>
                </mxCell>
                <mxCell id="195" style="vsdxID=181;fillColor=#59b4d9;gradientColor=none;strokeOpacity=0;shape=stencil(lZPdbsIwDIWfJrdRYjv9uUQM3gOthVZjFIXCurdfSixqwqqKXrknPvGX9FTh+tLszrUCc+l991X/tFXfKPxQAO2pqX3bh0rhRuF63/n64LvrqYrv593YOVbf3W3cYYg+Z7SxowvMb1Sw0AXelW00fF59dNjYQKQtsMWmHjMAS6Umx10sEWoqSvHw+oCvFpao1ChgzOofHmljyTlt82ceSc2SKwO15MmeeeTd4GShBZ4wPM/ltpTAzY1lrMxoArmeUIuz4eTA9y9ubpBd+FywcE54DcX8jSZxu4OGesrrvj0eY9wfiQxFmu8gxX8DN38=);spacingTop=-3;spacingBottom=-3;spacingLeft=-3;spacingRight=-3;points=[[0,0.5,0],[1,0.5,0],[0.5,1,0],[0.5,0,0]];labelBackgroundColor=none;rounded=0;html=1;whiteSpace=wrap;" parent="192" vertex="1">
                    <mxGeometry width="40" height="38" as="geometry"/>
                </mxCell>
                <mxCell id="196" style="vsdxID=182;fillColor=#ffffff;gradientColor=none;fillOpacity=15;strokeOpacity=0;shape=stencil(hVNBcoMwDHyNrxrZsg0+dtLkH5mGFE8pZAhp09/XYBcspiScjLQrrdaWoN21Pl4qofA69N1H9e1PQy3oVSjl27rq/RBOgvaCdueur9777tae4v/lOCLH02f3NVa4R56xYMzIUvgTIwpsMQUOEf926yNBJoYG6zD7/ugpLwElS8uYv6vEV2BUoqQQJgQlBIYSCUE5YlKEL/+I0sUyhuRFUw9tQK3abipNTTWB4TK4N5OSxreZnQFAzM1QQ7tHdiI4nYuYJ5ezblnwUZCPEWa3JVeOXLZ5Zh/ynuMVrW5tU6aaX0VJXETmBS2PTT72z0DJ/CscWJP7x/HWAfdbGiDaxj9/7uGw7MrZN01ctTy/3q0QintJ+18=);spacingTop=-3;spacingBottom=-3;spacingLeft=-3;spacingRight=-3;points=[[0,0.5,0],[1,0.5,0],[0.5,1,0],[0.5,0,0]];labelBackgroundColor=none;rounded=0;html=1;whiteSpace=wrap;" parent="192" vertex="1">
                    <mxGeometry width="40" height="38" as="geometry"/>
                </mxCell>
                <mxCell id="YFrTDAXUjAM_6Oz1HCe--252" value="Backend Subnet" style="rounded=0;whiteSpace=wrap;html=1;fillColor=#f8cecc;strokeColor=none;fontSize=8;" parent="1" vertex="1">
                    <mxGeometry x="408" y="561" width="130" height="30" as="geometry"/>
                </mxCell>
                <mxCell id="YFrTDAXUjAM_6Oz1HCe--253" value="" style="vsdxID=184;fillColor=none;gradientColor=none;image;aspect=fixed;image=data:image/png,iVBORw0KGgoAAAANSUhEUgAAAMgAAADICAMAAACahl6sAAAABGdBTUEAALGPC/xhBQAAACBjSFJNAAB6JgAAgIQAAPoAAACA6AAAdTAAAOpgAAA6mAAAF3CculE8AAABa1BMVEX////kV4XkV4XkV4XkV4XkV4XkV4XkV4XkV4XkV4XkV4XkV4XkV4XkV4XkV4XkV4XgTHmETY01lP81lP81lP81lP81lP81lP81lP81lP81lP81lP81lP81lP81lP85R5w+aMU0PZE7RppLVKhUU6VdW61rUJs1lP82Q5dHUaZUWKtaVqdpX64+S6BmXq01lP9QVqlCTqNEUabGWY/kV4XeSXXWTHubSIJ+PXnYOmXMHkamH014H1RUHVY7GlMxF08rEkZBLGw1lP9CG1UuFk3cRXEsFElAPYe5Hko+Q5LiU4E2W7WGH1IyY8LSLFZLHFYsGlbVM12WH1AtHl3ZPmlrHlUuJWnfTHkvLXnNIUorFEowM4U2GVIuKXEvK3XPJU4sFk7bQm0uJ23TMFotHFowMYHQKVIsGFLhUH1fHlbWN2EtIGEtImUvL30+OIQ8R5xCS58yOIteVKOGWZ+nWZhTUaMxOYx3WKL///908or8AAAANHRSTlMAIEBggKDAMJDgEHBQ0PCwrMdAIMCgcNCAEOAw8JCw++f++uDNlIJQ/erBgS34VGDS8ue6j9TQMAAAAAFiS0dEAIgFHUgAAAAJcEhZcwAACxIAAAsSAdLdfvwAAAAHdElNRQflAgkWOyJ87E1lAAAHG0lEQVR42u2caXsURRCAs2eS3WTRzd5HUBEX8ViPiYoQMw4BY0SJRCBmJIAQUPA+/74zmz1mdrunq7urdyY+9X7hA/mw71NVXTU9Pb2wQBAEQRAEQRAEQRAEQRAEQRAEQRAzpNKZ7JBMOhX3r1F0yOTy1hT5XOaU2SwuLVsclpcW4/51UApFrsXQpViI+zcCSOUsALmkpxhMI/EqhSxUwyeb2ARbWZbx8GplJe5fzKSwJKfhs5TAoCyuyntY1mri1uJMScXDskqZuH/5lIeahk+iTMCLLotc3L8eySNBJpoeiTHRqI9E1cmKvodlJaA1Liquu2FKsfeTglIfnGU17h6vMJewWYrXI43lYVnpWEUk590oluP0yOJ5eM8n8XkUUFasEaX46h2t0k+Ird5TuB6WFVdIstgiMVUJboX4lOIRQRgWp4lneMzr//Bp8nF4oJe6Txy7dkUTIsUYRM6YEDkTg4gJD8uavwfi3Btk/jNw1ozI/HuikRKJo0iQHnGnWZ27iBmP+Ve7kXboM++WaGjRmv+y9b8RMTKg+Mx7SMmaEpljI0mlPV7YMMEHH370YtljzbBCupjLDx8LL32My+Urm59s2R6fOidUqrWymTgUQ70cVeTK1W17xEjkxKaGHJtCcbqRX0O0uG4H+MwJU0d0YZ3L2MCx2NnctsN87sxQxckx9vESFJGdzeu2LRbxUkxfpcB5QbiL4MHQsO0vHCYVzQQrcveutDVubNssvnQ4NJoaWRWx4/OVZlbdZGrYe1wRp6WcX5HHMr7W8rjFDodt7/NFvKCoeUTvtX+j43Hb5nEnSsSpKKRXQbCReFfD4yrXwz6IFHHqbWkP4aPstyY8Dt1oEacjaQJ466xaJDvf8T3sfZGIpAnk7bnqkBLlYd8TikiZgE4B7Krl1tUoj0NXLCJjAtuzUsqtm1EeXmYBRJw6dO0CvuNUGbduR3rYRyARpwLzAB/3uS/tcet6pMcDFyYC64zwV4MPZT12tqID8j1UxIFMKxJv1GRDEl0gg4AARVriMpF5xSkZklu2OCBAEaeLl1jyIdkCBAQq4ojW4KyMh9zCJVix/CVLQkSwcsnuTT+SENmO9njsSokI6l325KtEexcE5PBYUqSCGRCZiUsQkHuupEhkSOQqZAB0UBEEZN+VFlmPEFE4JrP7BCYSOfTaT115EYe/saJ0FvkHUJlcBhWInAh/UFF7U3sXYvJjpMeBqyLS4jZDJQ/Y4/sW0ENGhNsUlU+5i0eVy1APKZEaUhORyK7bUA8pEV4r0TiNLDLhP+A+CHtIiThY3TCAYBXmlsjTY1dDhN0TNT8EeRYlwvN47ro6IuwiyeqJWNf46XWDk1ZHrp4I+6lE+7zPLndcYdf682NXU4Rd7QinRjc4Lxs2GRp7B66rK1LHGrRmeXgfJrJ35Lr6IuxlC8PD4xojKtMT42OeRpJEvDHy2f0okQc//ey6p0LE4+6zJ2yRvTsHbiQJE/HY3bj06ElA5HBv/86RKyR5IqPY+Idlfjk6FiskXGTAr1CNpIv8BrT4/ezZlyrVRqNb8UmgyB8CgZdfOffq+ddmf1Kz3GtUK6dD5MLrF99YELDWa7Bt2J3dwIctI/7kSZx/UyQxpsyQMTZr8fiLYfHWxbfBEqNM61U7IRH2PkrWnIg1awEPRZiQS5/5JwY+/hoTWn8vvKNqcUJ/nGPsbZRFgyJ/TzTePa9lMWCtOwhLh/Pf6N8VThhV+z/n+IXRLJf7jcagiVT9f2vlMv8FW7PW4u/+GvokZMBQg51T7V5jvc5uFPVKo8/Zdu+3ePtaxo6JW4PeztYoNwAdvNLtyRxwMvYphce/7nuzGu0aZAwZxaYLP0Fn6Csdn/dnaqPdbUnNh35xV3swEWO5tTz9McVaTdpi6NKFHKlR3Y4XMX1JW3ldzWKYY32xifYtQCymLwPrKwYjEBbh0VkT3+mEL0BoNjq6GiAV9MGxFK6OGoqGjyC/sEOSD1WHflJNQiJKLtyQhNKqLdE0hAhPbKFOjsGbD5pdRA1xQDDvOgldNVXGyypQQLxegnUdUHDVxQ0HKCBo9R68MKuNGw7hkoWZXEGPGrIG9JQpxuwY8GhWsT060K979K+gCXrU9X/5FMAReEH/gryARxutlY8RnstEMwl4lPE91iU89LaGlicefXQN+MH4IWnlmAT6YAI8NLIrnSyPhYWU2iqcMelRVfoWsaDyvJgz6aH4+Z7K/dCTBauNrtHR+GA3Jfl4UhpfBoLfP9Y1PnH1gyI1DI8LpIk9Jrbg7ZxXKVl4fk0u/kGeSzrK1RFWAUZl0glxHz/Euz/wBAPVyriD9DA1IPtxEqSKQpfxTsMaXqFj3vgwSbGVbD6iXiaJhVQglW7f4P0ohfRKls14xGo39KmVpT+TJgiCIAiCIAiCIAiCIAiCIAiCIE4n/wEcArwt9ODQLAAAACV0RVh0ZGF0ZTpjcmVhdGUAMjAyMS0wMi0wOVQyMjo1OTozNCswMDowMMTL34MAAAAldEVYdGRhdGU6bW9kaWZ5ADIwMjEtMDItMDlUMjI6NTk6MzQrMDA6MDC1lmc/AAAAAElFTkSuQmCC;strokeWidth=102;spacingTop=-3;spacingBottom=-3;spacingLeft=-3;spacingRight=-3;points=[[0,0.5,0],[1,0.5,0],[0.5,1,0],[0.5,0,0]];labelBackgroundColor=none;rounded=0;html=1;whiteSpace=wrap;" parent="1" vertex="1">
                    <mxGeometry x="257.31999999999994" y="480" width="58" height="58" as="geometry"/>
                </mxCell>
                <mxCell id="YFrTDAXUjAM_6Oz1HCe--255" value="" style="vsdxID=184;fillColor=none;gradientColor=none;image;aspect=fixed;image=data:image/png,iVBORw0KGgoAAAANSUhEUgAAAMgAAADICAMAAACahl6sAAAABGdBTUEAALGPC/xhBQAAACBjSFJNAAB6JgAAgIQAAPoAAACA6AAAdTAAAOpgAAA6mAAAF3CculE8AAABa1BMVEX////kV4XkV4XkV4XkV4XkV4XkV4XkV4XkV4XkV4XkV4XkV4XkV4XkV4XkV4XkV4XgTHmETY01lP81lP81lP81lP81lP81lP81lP81lP81lP81lP81lP81lP81lP85R5w+aMU0PZE7RppLVKhUU6VdW61rUJs1lP82Q5dHUaZUWKtaVqdpX64+S6BmXq01lP9QVqlCTqNEUabGWY/kV4XeSXXWTHubSIJ+PXnYOmXMHkamH014H1RUHVY7GlMxF08rEkZBLGw1lP9CG1UuFk3cRXEsFElAPYe5Hko+Q5LiU4E2W7WGH1IyY8LSLFZLHFYsGlbVM12WH1AtHl3ZPmlrHlUuJWnfTHkvLXnNIUorFEowM4U2GVIuKXEvK3XPJU4sFk7bQm0uJ23TMFotHFowMYHQKVIsGFLhUH1fHlbWN2EtIGEtImUvL30+OIQ8R5xCS58yOIteVKOGWZ+nWZhTUaMxOYx3WKL///908or8AAAANHRSTlMAIEBggKDAMJDgEHBQ0PCwrMdAIMCgcNCAEOAw8JCw++f++uDNlIJQ/erBgS34VGDS8ue6j9TQMAAAAAFiS0dEAIgFHUgAAAAJcEhZcwAACxIAAAsSAdLdfvwAAAAHdElNRQflAgkWOyJ87E1lAAAHG0lEQVR42u2caXsURRCAs2eS3WTRzd5HUBEX8ViPiYoQMw4BY0SJRCBmJIAQUPA+/74zmz1mdrunq7urdyY+9X7hA/mw71NVXTU9Pb2wQBAEQRAEQRAEQRAEQRAEQRAEQRAzpNKZ7JBMOhX3r1F0yOTy1hT5XOaU2SwuLVsclpcW4/51UApFrsXQpViI+zcCSOUsALmkpxhMI/EqhSxUwyeb2ARbWZbx8GplJe5fzKSwJKfhs5TAoCyuyntY1mri1uJMScXDskqZuH/5lIeahk+iTMCLLotc3L8eySNBJpoeiTHRqI9E1cmKvodlJaA1Liquu2FKsfeTglIfnGU17h6vMJewWYrXI43lYVnpWEUk590oluP0yOJ5eM8n8XkUUFasEaX46h2t0k+Ird5TuB6WFVdIstgiMVUJboX4lOIRQRgWp4lneMzr//Bp8nF4oJe6Txy7dkUTIsUYRM6YEDkTg4gJD8uavwfi3Btk/jNw1ozI/HuikRKJo0iQHnGnWZ27iBmP+Ve7kXboM++WaGjRmv+y9b8RMTKg+Mx7SMmaEpljI0mlPV7YMMEHH370YtljzbBCupjLDx8LL32My+Urm59s2R6fOidUqrWymTgUQ70cVeTK1W17xEjkxKaGHJtCcbqRX0O0uG4H+MwJU0d0YZ3L2MCx2NnctsN87sxQxckx9vESFJGdzeu2LRbxUkxfpcB5QbiL4MHQsO0vHCYVzQQrcveutDVubNssvnQ4NJoaWRWx4/OVZlbdZGrYe1wRp6WcX5HHMr7W8rjFDodt7/NFvKCoeUTvtX+j43Hb5nEnSsSpKKRXQbCReFfD4yrXwz6IFHHqbWkP4aPstyY8Dt1oEacjaQJ466xaJDvf8T3sfZGIpAnk7bnqkBLlYd8TikiZgE4B7Krl1tUoj0NXLCJjAtuzUsqtm1EeXmYBRJw6dO0CvuNUGbduR3rYRyARpwLzAB/3uS/tcet6pMcDFyYC64zwV4MPZT12tqID8j1UxIFMKxJv1GRDEl0gg4AARVriMpF5xSkZklu2OCBAEaeLl1jyIdkCBAQq4ojW4KyMh9zCJVix/CVLQkSwcsnuTT+SENmO9njsSokI6l325KtEexcE5PBYUqSCGRCZiUsQkHuupEhkSOQqZAB0UBEEZN+VFlmPEFE4JrP7BCYSOfTaT115EYe/saJ0FvkHUJlcBhWInAh/UFF7U3sXYvJjpMeBqyLS4jZDJQ/Y4/sW0ENGhNsUlU+5i0eVy1APKZEaUhORyK7bUA8pEV4r0TiNLDLhP+A+CHtIiThY3TCAYBXmlsjTY1dDhN0TNT8EeRYlwvN47ro6IuwiyeqJWNf46XWDk1ZHrp4I+6lE+7zPLndcYdf682NXU4Rd7QinRjc4Lxs2GRp7B66rK1LHGrRmeXgfJrJ35Lr6IuxlC8PD4xojKtMT42OeRpJEvDHy2f0okQc//ey6p0LE4+6zJ2yRvTsHbiQJE/HY3bj06ElA5HBv/86RKyR5IqPY+Idlfjk6FiskXGTAr1CNpIv8BrT4/ezZlyrVRqNb8UmgyB8CgZdfOffq+ddmf1Kz3GtUK6dD5MLrF99YELDWa7Bt2J3dwIctI/7kSZx/UyQxpsyQMTZr8fiLYfHWxbfBEqNM61U7IRH2PkrWnIg1awEPRZiQS5/5JwY+/hoTWn8vvKNqcUJ/nGPsbZRFgyJ/TzTePa9lMWCtOwhLh/Pf6N8VThhV+z/n+IXRLJf7jcagiVT9f2vlMv8FW7PW4u/+GvokZMBQg51T7V5jvc5uFPVKo8/Zdu+3ePtaxo6JW4PeztYoNwAdvNLtyRxwMvYphce/7nuzGu0aZAwZxaYLP0Fn6Csdn/dnaqPdbUnNh35xV3swEWO5tTz9McVaTdpi6NKFHKlR3Y4XMX1JW3ldzWKYY32xifYtQCymLwPrKwYjEBbh0VkT3+mEL0BoNjq6GiAV9MGxFK6OGoqGjyC/sEOSD1WHflJNQiJKLtyQhNKqLdE0hAhPbKFOjsGbD5pdRA1xQDDvOgldNVXGyypQQLxegnUdUHDVxQ0HKCBo9R68MKuNGw7hkoWZXEGPGrIG9JQpxuwY8GhWsT060K979K+gCXrU9X/5FMAReEH/gryARxutlY8RnstEMwl4lPE91iU89LaGlicefXQN+MH4IWnlmAT6YAI8NLIrnSyPhYWU2iqcMelRVfoWsaDyvJgz6aH4+Z7K/dCTBauNrtHR+GA3Jfl4UhpfBoLfP9Y1PnH1gyI1DI8LpIk9Jrbg7ZxXKVl4fk0u/kGeSzrK1RFWAUZl0glxHz/Euz/wBAPVyriD9DA1IPtxEqSKQpfxTsMaXqFj3vgwSbGVbD6iXiaJhVQglW7f4P0ohfRKls14xGo39KmVpT+TJgiCIAiCIAiCIAiCIAiCIAiCIE4n/wEcArwt9ODQLAAAACV0RVh0ZGF0ZTpjcmVhdGUAMjAyMS0wMi0wOVQyMjo1OTozNCswMDowMMTL34MAAAAldEVYdGRhdGU6bW9kaWZ5ADIwMjEtMDItMDlUMjI6NTk6MzQrMDA6MDC1lmc/AAAAAElFTkSuQmCC;strokeWidth=102;spacingTop=-3;spacingBottom=-3;spacingLeft=-3;spacingRight=-3;points=[[0,0.5,0],[1,0.5,0],[0.5,1,0],[0.5,0,0]];labelBackgroundColor=none;rounded=0;html=1;whiteSpace=wrap;" parent="1" vertex="1">
                    <mxGeometry x="390" y="480" width="58" height="58" as="geometry"/>
                </mxCell>
                <mxCell id="YFrTDAXUjAM_6Oz1HCe--256" value="" style="vsdxID=184;fillColor=none;gradientColor=none;image;aspect=fixed;image=data:image/png,iVBORw0KGgoAAAANSUhEUgAAAMgAAADICAMAAACahl6sAAAABGdBTUEAALGPC/xhBQAAACBjSFJNAAB6JgAAgIQAAPoAAACA6AAAdTAAAOpgAAA6mAAAF3CculE8AAABa1BMVEX////kV4XkV4XkV4XkV4XkV4XkV4XkV4XkV4XkV4XkV4XkV4XkV4XkV4XkV4XkV4XgTHmETY01lP81lP81lP81lP81lP81lP81lP81lP81lP81lP81lP81lP81lP85R5w+aMU0PZE7RppLVKhUU6VdW61rUJs1lP82Q5dHUaZUWKtaVqdpX64+S6BmXq01lP9QVqlCTqNEUabGWY/kV4XeSXXWTHubSIJ+PXnYOmXMHkamH014H1RUHVY7GlMxF08rEkZBLGw1lP9CG1UuFk3cRXEsFElAPYe5Hko+Q5LiU4E2W7WGH1IyY8LSLFZLHFYsGlbVM12WH1AtHl3ZPmlrHlUuJWnfTHkvLXnNIUorFEowM4U2GVIuKXEvK3XPJU4sFk7bQm0uJ23TMFotHFowMYHQKVIsGFLhUH1fHlbWN2EtIGEtImUvL30+OIQ8R5xCS58yOIteVKOGWZ+nWZhTUaMxOYx3WKL///908or8AAAANHRSTlMAIEBggKDAMJDgEHBQ0PCwrMdAIMCgcNCAEOAw8JCw++f++uDNlIJQ/erBgS34VGDS8ue6j9TQMAAAAAFiS0dEAIgFHUgAAAAJcEhZcwAACxIAAAsSAdLdfvwAAAAHdElNRQflAgkWOyJ87E1lAAAHG0lEQVR42u2caXsURRCAs2eS3WTRzd5HUBEX8ViPiYoQMw4BY0SJRCBmJIAQUPA+/74zmz1mdrunq7urdyY+9X7hA/mw71NVXTU9Pb2wQBAEQRAEQRAEQRAEQRAEQRAEQRAzpNKZ7JBMOhX3r1F0yOTy1hT5XOaU2SwuLVsclpcW4/51UApFrsXQpViI+zcCSOUsALmkpxhMI/EqhSxUwyeb2ARbWZbx8GplJe5fzKSwJKfhs5TAoCyuyntY1mri1uJMScXDskqZuH/5lIeahk+iTMCLLotc3L8eySNBJpoeiTHRqI9E1cmKvodlJaA1Liquu2FKsfeTglIfnGU17h6vMJewWYrXI43lYVnpWEUk590oluP0yOJ5eM8n8XkUUFasEaX46h2t0k+Ird5TuB6WFVdIstgiMVUJboX4lOIRQRgWp4lneMzr//Bp8nF4oJe6Txy7dkUTIsUYRM6YEDkTg4gJD8uavwfi3Btk/jNw1ozI/HuikRKJo0iQHnGnWZ27iBmP+Ve7kXboM++WaGjRmv+y9b8RMTKg+Mx7SMmaEpljI0mlPV7YMMEHH370YtljzbBCupjLDx8LL32My+Urm59s2R6fOidUqrWymTgUQ70cVeTK1W17xEjkxKaGHJtCcbqRX0O0uG4H+MwJU0d0YZ3L2MCx2NnctsN87sxQxckx9vESFJGdzeu2LRbxUkxfpcB5QbiL4MHQsO0vHCYVzQQrcveutDVubNssvnQ4NJoaWRWx4/OVZlbdZGrYe1wRp6WcX5HHMr7W8rjFDodt7/NFvKCoeUTvtX+j43Hb5nEnSsSpKKRXQbCReFfD4yrXwz6IFHHqbWkP4aPstyY8Dt1oEacjaQJ466xaJDvf8T3sfZGIpAnk7bnqkBLlYd8TikiZgE4B7Krl1tUoj0NXLCJjAtuzUsqtm1EeXmYBRJw6dO0CvuNUGbduR3rYRyARpwLzAB/3uS/tcet6pMcDFyYC64zwV4MPZT12tqID8j1UxIFMKxJv1GRDEl0gg4AARVriMpF5xSkZklu2OCBAEaeLl1jyIdkCBAQq4ojW4KyMh9zCJVix/CVLQkSwcsnuTT+SENmO9njsSokI6l325KtEexcE5PBYUqSCGRCZiUsQkHuupEhkSOQqZAB0UBEEZN+VFlmPEFE4JrP7BCYSOfTaT115EYe/saJ0FvkHUJlcBhWInAh/UFF7U3sXYvJjpMeBqyLS4jZDJQ/Y4/sW0ENGhNsUlU+5i0eVy1APKZEaUhORyK7bUA8pEV4r0TiNLDLhP+A+CHtIiThY3TCAYBXmlsjTY1dDhN0TNT8EeRYlwvN47ro6IuwiyeqJWNf46XWDk1ZHrp4I+6lE+7zPLndcYdf682NXU4Rd7QinRjc4Lxs2GRp7B66rK1LHGrRmeXgfJrJ35Lr6IuxlC8PD4xojKtMT42OeRpJEvDHy2f0okQc//ey6p0LE4+6zJ2yRvTsHbiQJE/HY3bj06ElA5HBv/86RKyR5IqPY+Idlfjk6FiskXGTAr1CNpIv8BrT4/ezZlyrVRqNb8UmgyB8CgZdfOffq+ddmf1Kz3GtUK6dD5MLrF99YELDWa7Bt2J3dwIctI/7kSZx/UyQxpsyQMTZr8fiLYfHWxbfBEqNM61U7IRH2PkrWnIg1awEPRZiQS5/5JwY+/hoTWn8vvKNqcUJ/nGPsbZRFgyJ/TzTePa9lMWCtOwhLh/Pf6N8VThhV+z/n+IXRLJf7jcagiVT9f2vlMv8FW7PW4u/+GvokZMBQg51T7V5jvc5uFPVKo8/Zdu+3ePtaxo6JW4PeztYoNwAdvNLtyRxwMvYphce/7nuzGu0aZAwZxaYLP0Fn6Csdn/dnaqPdbUnNh35xV3swEWO5tTz9McVaTdpi6NKFHKlR3Y4XMX1JW3ldzWKYY32xifYtQCymLwPrKwYjEBbh0VkT3+mEL0BoNjq6GiAV9MGxFK6OGoqGjyC/sEOSD1WHflJNQiJKLtyQhNKqLdE0hAhPbKFOjsGbD5pdRA1xQDDvOgldNVXGyypQQLxegnUdUHDVxQ0HKCBo9R68MKuNGw7hkoWZXEGPGrIG9JQpxuwY8GhWsT060K979K+gCXrU9X/5FMAReEH/gryARxutlY8RnstEMwl4lPE91iU89LaGlicefXQN+MH4IWnlmAT6YAI8NLIrnSyPhYWU2iqcMelRVfoWsaDyvJgz6aH4+Z7K/dCTBauNrtHR+GA3Jfl4UhpfBoLfP9Y1PnH1gyI1DI8LpIk9Jrbg7ZxXKVl4fk0u/kGeSzrK1RFWAUZl0glxHz/Euz/wBAPVyriD9DA1IPtxEqSKQpfxTsMaXqFj3vgwSbGVbD6iXiaJhVQglW7f4P0ohfRKls14xGo39KmVpT+TJgiCIAiCIAiCIAiCIAiCIAiCIE4n/wEcArwt9ODQLAAAACV0RVh0ZGF0ZTpjcmVhdGUAMjAyMS0wMi0wOVQyMjo1OTozNCswMDowMMTL34MAAAAldEVYdGRhdGU6bW9kaWZ5ADIwMjEtMDItMDlUMjI6NTk6MzQrMDA6MDC1lmc/AAAAAElFTkSuQmCC;strokeWidth=102;spacingTop=-3;spacingBottom=-3;spacingLeft=-3;spacingRight=-3;points=[[0,0.5,0],[1,0.5,0],[0.5,1,0],[0.5,0,0]];labelBackgroundColor=none;rounded=0;html=1;whiteSpace=wrap;" parent="1" vertex="1">
                    <mxGeometry x="494.56000000000006" y="480" width="58" height="58" as="geometry"/>
                </mxCell>
                <mxCell id="YFrTDAXUjAM_6Oz1HCe--301" value="" style="aspect=fixed;html=1;points=[];align=center;image;fontSize=12;image=img/lib/azure2/networking/Virtual_Networks.svg;strokeColor=#050505;" parent="1" vertex="1">
                    <mxGeometry x="88" y="334" width="33.51" height="20" as="geometry"/>
                </mxCell>
                <mxCell id="YFrTDAXUjAM_6Oz1HCe--302" value="" style="aspect=fixed;html=1;points=[];align=center;image;fontSize=12;image=img/lib/azure2/networking/Public_IP_Addresses.svg;" parent="1" vertex="1">
                    <mxGeometry x="457.52" y="354" width="30.95" height="24.76" as="geometry"/>
                </mxCell>
                <UserObject label="" tags="Background" id="YFrTDAXUjAM_6Oz1HCe--303">
                    <mxCell style="vsdxID=192;edgeStyle=none;startArrow=block;endArrow=block;startSize=5;endSize=5;strokeColor=#666666;spacingTop=-3;spacingBottom=-3;spacingLeft=-3;spacingRight=-3;verticalAlign=middle;html=1;labelBackgroundColor=none;rounded=1;exitX=0.5;exitY=0;exitDx=0;exitDy=0;exitPerimeter=0;entryX=0.497;entryY=1.046;entryDx=0;entryDy=0;entryPerimeter=0;" parent="1" source="196" target="YFrTDAXUjAM_6Oz1HCe--233" edge="1">
                        <mxGeometry relative="1" as="geometry">
                            <mxPoint x="329" y="306" as="sourcePoint"/>
                            <mxPoint x="262" y="364" as="targetPoint"/>
                        </mxGeometry>
                    </mxCell>
                </UserObject>
                <mxCell id="YFrTDAXUjAM_6Oz1HCe--304" value="" style="aspect=fixed;html=1;points=[];align=center;image;fontSize=12;image=img/lib/azure2/networking/Virtual_Networks.svg;strokeColor=#050505;" parent="1" vertex="1">
                    <mxGeometry x="263.4700000000001" y="784" width="33.5" height="20" as="geometry"/>
                </mxCell>
                <UserObject label="" tags="Background" id="YFrTDAXUjAM_6Oz1HCe--314">
                    <mxCell style="vsdxID=192;edgeStyle=none;startArrow=block;endArrow=block;startSize=5;endSize=5;strokeColor=#666666;spacingTop=-3;spacingBottom=-3;spacingLeft=-3;spacingRight=-3;verticalAlign=middle;html=1;labelBackgroundColor=none;rounded=1;" parent="1" edge="1">
                        <mxGeometry relative="1" as="geometry">
                            <mxPoint x="624" y="314" as="sourcePoint"/>
                            <mxPoint x="624" y="314" as="targetPoint"/>
                        </mxGeometry>
                    </mxCell>
                </UserObject>
                <UserObject label="" tags="Background" id="YFrTDAXUjAM_6Oz1HCe--316">
                    <mxCell style="vsdxID=192;edgeStyle=none;startArrow=block;endArrow=block;startSize=5;endSize=5;strokeColor=#666666;spacingTop=-3;spacingBottom=-3;spacingLeft=-3;spacingRight=-3;verticalAlign=middle;html=1;labelBackgroundColor=none;rounded=1;" parent="1" source="YFrTDAXUjAM_6Oz1HCe--302" target="YFrTDAXUjAM_6Oz1HCe--229" edge="1">
                        <mxGeometry relative="1" as="geometry">
                            <mxPoint x="468" y="374" as="sourcePoint"/>
                            <mxPoint x="483.03" y="409.88" as="targetPoint"/>
                        </mxGeometry>
                    </mxCell>
                </UserObject>
                <mxCell id="YFrTDAXUjAM_6Oz1HCe--319" value="" style="aspect=fixed;html=1;points=[];align=center;image;fontSize=12;image=img/lib/azure2/security/Key_Vaults.svg;dashed=1;strokeColor=#4A8CF6;fillColor=none;" parent="1" vertex="1">
                    <mxGeometry x="737" y="475" width="68" height="68" as="geometry"/>
                </mxCell>
                <UserObject label="Certificate Retrieval&lt;br&gt;for decryption/encryption" tags="Background" id="YFrTDAXUjAM_6Oz1HCe--320">
                    <mxCell style="vsdxID=192;edgeStyle=none;startArrow=block;endArrow=block;startSize=5;endSize=5;strokeColor=#666666;spacingTop=-3;spacingBottom=-3;spacingLeft=-3;spacingRight=-3;verticalAlign=middle;html=1;labelBackgroundColor=none;rounded=1;" parent="1" source="YFrTDAXUjAM_6Oz1HCe--256" edge="1">
                        <mxGeometry x="0.187" y="-21" relative="1" as="geometry">
                            <mxPoint x="598" y="434" as="sourcePoint"/>
                            <mxPoint x="722" y="510" as="targetPoint"/>
                            <mxPoint as="offset"/>
                        </mxGeometry>
                    </mxCell>
                </UserObject>
                <UserObject label="" tags="Background" id="YFrTDAXUjAM_6Oz1HCe--323">
                    <mxCell style="vsdxID=192;edgeStyle=none;startArrow=block;endArrow=none;startSize=5;endSize=5;strokeColor=#666666;spacingTop=-3;spacingBottom=-3;spacingLeft=-3;spacingRight=-3;verticalAlign=middle;html=1;labelBackgroundColor=none;rounded=1;exitX=0.5;exitY=1;exitDx=0;exitDy=0;exitPerimeter=0;startFill=1;endFill=0;" parent="1" edge="1">
                        <mxGeometry relative="1" as="geometry">
                            <mxPoint x="334.7" y="266" as="sourcePoint"/>
                            <mxPoint x="228" y="344" as="targetPoint"/>
                        </mxGeometry>
                    </mxCell>
                </UserObject>
                <mxCell id="YFrTDAXUjAM_6Oz1HCe--325" value="Outbound Traffic" style="edgeLabel;html=1;align=center;verticalAlign=middle;resizable=0;points=[];fontSize=10;" parent="YFrTDAXUjAM_6Oz1HCe--323" vertex="1" connectable="0">
                    <mxGeometry x="-0.4439" y="3" relative="1" as="geometry">
                        <mxPoint x="-21" as="offset"/>
                    </mxGeometry>
                </mxCell>
                <UserObject label="" tags="Background" id="YFrTDAXUjAM_6Oz1HCe--329">
                    <mxCell style="vsdxID=192;edgeStyle=none;startArrow=none;endArrow=block;startSize=5;endSize=5;strokeColor=#666666;spacingTop=-3;spacingBottom=-3;spacingLeft=-3;spacingRight=-3;verticalAlign=middle;html=1;labelBackgroundColor=none;rounded=1;startFill=0;" parent="1" edge="1">
                        <mxGeometry relative="1" as="geometry">
                            <mxPoint x="470" y="600" as="sourcePoint"/>
                            <mxPoint x="348" y="764" as="targetPoint"/>
                        </mxGeometry>
                    </mxCell>
                </UserObject>
                <mxCell id="YFrTDAXUjAM_6Oz1HCe--330" value="Inbound HTTP/HTTPS" style="edgeLabel;html=1;align=center;verticalAlign=middle;resizable=0;points=[];fontSize=10;" parent="YFrTDAXUjAM_6Oz1HCe--329" vertex="1" connectable="0">
                    <mxGeometry x="-0.3103" y="2" relative="1" as="geometry">
                        <mxPoint x="38" y="29" as="offset"/>
                    </mxGeometry>
                </mxCell>
                <UserObject label="" tags="Background" id="YFrTDAXUjAM_6Oz1HCe--331">
                    <mxCell style="vsdxID=192;edgeStyle=none;startArrow=none;endArrow=block;startSize=5;endSize=5;strokeColor=#666666;spacingTop=-3;spacingBottom=-3;spacingLeft=-3;spacingRight=-3;verticalAlign=middle;html=1;labelBackgroundColor=none;rounded=1;startFill=0;" parent="1" edge="1">
                        <mxGeometry relative="1" as="geometry">
                            <mxPoint x="248" y="634" as="sourcePoint"/>
                            <mxPoint x="328" y="764" as="targetPoint"/>
                        </mxGeometry>
                    </mxCell>
                </UserObject>
                <mxCell id="YFrTDAXUjAM_6Oz1HCe--332" value="Inbound&lt;br style=&quot;border-color: var(--border-color); font-size: 10px;&quot;&gt;Non-HTTP/HTTPS" style="edgeLabel;html=1;align=center;verticalAlign=middle;resizable=0;points=[];fontSize=10;" parent="YFrTDAXUjAM_6Oz1HCe--331" vertex="1" connectable="0">
                    <mxGeometry x="0.4208" relative="1" as="geometry">
                        <mxPoint x="-3" y="-68" as="offset"/>
                    </mxGeometry>
                </mxCell>
                <UserObject label="" tags="Background" id="YFrTDAXUjAM_6Oz1HCe--333">
                    <mxCell style="vsdxID=192;edgeStyle=none;startArrow=block;endArrow=none;startSize=5;endSize=5;strokeColor=#666666;spacingTop=-3;spacingBottom=-3;spacingLeft=-3;spacingRight=-3;verticalAlign=middle;html=1;labelBackgroundColor=none;rounded=1;startFill=1;endFill=0;" parent="1" edge="1">
                        <mxGeometry relative="1" as="geometry">
                            <mxPoint x="228" y="634" as="sourcePoint"/>
                            <mxPoint x="308" y="764" as="targetPoint"/>
                        </mxGeometry>
                    </mxCell>
                </UserObject>
                <mxCell id="YFrTDAXUjAM_6Oz1HCe--334" value="Outbound Traffic" style="edgeLabel;html=1;align=center;verticalAlign=middle;resizable=0;points=[];fontSize=11;" parent="YFrTDAXUjAM_6Oz1HCe--333" vertex="1" connectable="0">
                    <mxGeometry x="-0.4439" y="3" relative="1" as="geometry">
                        <mxPoint y="51" as="offset"/>
                    </mxGeometry>
                </mxCell>
                <mxCell id="212" style="vsdxID=198;fillColor=none;gradientColor=none;image;aspect=fixed;strokeWidth=102;spacingTop=-3;spacingBottom=-3;spacingLeft=-3;spacingRight=-3;points=[[0,0.5,0],[1,0.5,0],[0.5,1,0],[0.5,0,0]];labelBackgroundColor=none;rounded=0;html=1;whiteSpace=wrap;;image=data:image/jpg,/9j/4AAQSkZJRgABAQAAAQABAAD/4gHYSUNDX1BST0ZJTEUAAQEAAAHIAAAAAAQwAABtbnRyUkdCIFhZWiAAAAAAAAAAAAAAAABhY3NwAAAAAAAAAAAAAAAAAAAAAAAAAAAAAAAAAAAAAQAA9tYAAQAAAADTLQAAAAAAAAAAAAAAAAAAAAAAAAAAAAAAAAAAAAAAAAAAAAAAAAAAAAAAAAAAAAAAAAAAAAlkZXNjAAAA8AAAACRyWFlaAAABFAAAABRnWFlaAAABKAAAABRiWFlaAAABPAAAABR3dHB0AAABUAAAABRyVFJDAAABZAAAAChnVFJDAAABZAAAAChiVFJDAAABZAAAAChjcHJ0AAABjAAAADxtbHVjAAAAAAAAAAEAAAAMZW5VUwAAAAgAAAAcAHMAUgBHAEJYWVogAAAAAAAAb6IAADj1AAADkFhZWiAAAAAAAABimQAAt4UAABjaWFlaIAAAAAAAACSgAAAPhAAAts9YWVogAAAAAAAA9tYAAQAAAADTLXBhcmEAAAAAAAQAAAACZmYAAPKnAAANWQAAE9AAAApbAAAAAAAAAABtbHVjAAAAAAAAAAEAAAAMZW5VUwAAACAAAAAcAEcAbwBvAGcAbABlACAASQBuAGMALgAgADIAMAAxADb/2wBDAAMCAgICAgMCAgIDAwMDBAYEBAQEBAgGBgUGCQgKCgkICQkKDA8MCgsOCwkJDRENDg8QEBEQCgwSExIQEw8QEBD/2wBDAQMDAwQDBAgEBAgQCwkLEBAQEBAQEBAQEBAQEBAQEBAQEBAQEBAQEBAQEBAQEBAQEBAQEBAQEBAQEBAQEBAQEBD/wAARCAGfB58DASIAAhEBAxEB/8QAHgABAAEDBQEAAAAAAAAAAAAAAAkDBwgBAgQFBgr/xABoEAABAwIDBAUCDA8KCwYFBQEAAQIDBAUGBxEIEiExCRNBUWEidRQZMjc4V3GBlbGztBUYIzM0QlJyc3aRobLS0xYXNlVWYoKSltEkJTVTVFhjdJSi1EODk6OlpkRkaMHkJkZIteHD/8QAHQEBAAAHAQEAAAAAAAAAAAAAAAECAwQFBggHCf/EAE4RAQABAgMDBgcLCgUDBAMAAAABAgMEBREGITEHEkFRYXETIjKBkaGxFBUzNkJScoKSwdEXIzQ1YnOywtLwFlOis+EIJFQlQ2PTg8Px/9oADAMBAAIRAxEAPwCVMAAAAAAAAAAAAAAAAAAAAAAAAAAAAAAAAAAAAAAAAAAAAAAAAAAAAAALfZ358ZYbPGB6nH+aWI4rZb4vIgiTR9TWzaapDBFrrI9dOScETVVVERVQLgcuKmMOf3SNbL+QEtRaLnjFcU4ip95rrNhxG1cscicN2WXeSGJUXm1z99PuVIvNrTpMs6NoiorsLYOrKnA2ApVdE220MytrK6JeGtXO3iqOTXWJiozRdHb+m8YcgSLZqdNNnTf5pqXKXLzDuEqJV0ZUXFz7lWad6L9Tibrz0WN2nLVeZjVizb/2ycZySSXXaBxRS9Zqm7aZY7YjUVNOHoVsenPnz7eZj8ALiVW0ftD107qqtz5zFqJn6b0kuKa57naJomqrLqvBEO5sO19tUYafG60bROYjGxJoyKbEVVPE3jr9ble5nPwLRADMvL7padsXBT4mXvE9jxlSx8OpvlojR273dZTdS9V8XK73+RmTkn0zeTuLZqe0Z04KueB6uRWsW40b1uNv17XPRrWzRp4IyT3SGsAfUTgfH+CMzMPU+LMvsV2vENnqk+pVluqWTxqva1VavkuTXi1dFTkqId+fMrk3nxmzkBidmLcp8a19hreCTxxP3qerYi67k8LtWSt8HIui8U0XiTIbFnSZ5f7R0tHl9mNBSYPzClRI4YusVKC7P/8Al3uXVki/5l6qq8N1z11RAzaAAAAAAAAAAAAAAAAAAAAAAAAAAAAAAAAAAAAAAAAAAAAAAAAAAAAAAAAAAAAAAAAAAAAAAAAAAAAAAAAAAAAAAAAAAAAAAAAAAAAAAAAAAAAAAAAAAAAAAAAAAAAAAAAAAAAAAAAAAAAAAAAAAAAAAAAAAAAAAAAAAAAAAAAAAAAAAAAAAAAAAAAAAAAAAAAAAAAAAAAAAAAAAAAAAAAAAAAAAAAAAAAAAAAAAAAAAAAAAAAAAAAAAAAAAAAAAAAAAAAAAAAAAAAAAAAAAAAAAAAAAAAAAAAAAAAAAAAAAAAAAAAAAAA63EuI7LhDD1yxViS4xUFqtFJLXVtVKujIYI2q573L3I1FUC3W0ttH4C2X8sK7MjHNQkis1gtltjejZ7lWKiqyCPXv0VXO0VGtRzl5Hz/bRG0bmZtNZgVOPsybu6Z+ro7dbonKlJbadV1SGFnYnLVy+U5U1cqnrNtHaqxDtXZwVmLqmSemwzbHPosOW166JTUiO+uOby62TRHPXs8luqo1CwYAAAAAAAAAAADfDNNTzMqKeV8Usbkex7HKjmuTkqKnJTYAJfujb6RqTH7rZs+583lXYl0Smw9iCpfxuaInk01S5f8At9E0ZIv1zkvl6LJJUfK3S1VTRVMVZRzyQTwPbJFLG5WuY9F1RyKnFFRe0nk6N7bFXadyrdh3GVax2YGDo46e6K56b1xpl8mKtROe8um7JpqiP0dw6xGoGYAAAAAAAAAAAAAAAAAAAAAAAAAAAAAAAAAAAAAAAAAAAAAAAAAAAAAAAAAAAAAAAAAAAAAAAAAAAAAAAAAAAAAAAAAAAAAAAAAAAAAAAAAAAAAAAAAAAAAAAAAAAAAAAAAAAAAAAAAAAAAAAAAAAAAAAAAAAAAAAAAAAAAAAAAAAAAAAAAAAAAAAAAAAAAAAAAAAAAAAAAAAAAAAAAAAAAAAAAAAAAAAAAAAAAAAAAAAAAAAAAAAAAAAAAAAAAAAAAAAAAAAAAAAAAAAAAAAAAAAAAAAAAAAAAAAAAAAAAAAAAAAABGj0yW0lNhnCNm2b8M17oq7EzW3a/rG7RW29j1SGFfCSVjnL4Q6LwcSWSPbFG6R6+SxFcvuIfNvtb5wVGe20VjjMh1Us1FW3SSmti6+S2hg+pU+ick1jY1yon2znLx11AtCAAAAAAAAAAAAAAAAXg2Tc/bvs2Z64bzPt8kzqGmqEpbxSxr9l2+VUbPHpyVd3ym68Ee1q9hZ8AfU7aLtbr9aqK+Werjq6C408dXSzxr5MsMjUcx6eCtVFT3TlmGnRR5yS5pbKtuw9dKvrrrgKsksMm85Ve6l0SSmev81GPWJvhDy7VzLAAAAAAAAAAAAAAAAAAAAAAAAAAAAAAAAAAAAAAAAAAAAAAAAAAAAAAAAAAAAAAAAAAAAAAAAAAAAAAAAAAAAAAAAAAAAAAAAAAAAAAAAAAAAAAAAAAAAAAAAAAAAAAAAAAAAAAAAAAAAAAAAAAAAAAAAAAAAAAAAAAAAAAAAAAAAAAAAAAAAAAAAAAAAAAAAAAAAAAAAAAAAAAAAAAAAAAAAAAAAAAAAAAAAAAAAAAAAAAAAAAAAAAAAAAAAAAAAAAAAAAAAAAAAAAAAAAAAAAAAAAAAAAAAAAAAAAAAAAAAAALQ7XeOpsttmTMvGNJUJBV0WHKxlHIq6btTJGscK/+I9p82pPb0rFzqLdsTY0hp1Vq11XaqZ7muVFRvo+By8ueu7oqdyqQJAAAAAAAAAAAAAAAAAAABJL0JWOpbfmvj/LmSVyQXqxQ3VrVXyVlpZ2xoieO7VPX3Gr4EwZA50TN4W3baeF6FHKn0Vtt1pVRGouu7Ryy8V7PrRPGAAAAAAAAAAAAAAAAAAAAAAAAAAAAAAAAAAAAAAAAAAAAAAAAAAAAAAAAAAAAAAAAAAAAAAAAAAAAAAAAAAAAAAAAAAAAAAAAAAAAAAAAAAAAAAAAAAAAAAAAAAAAAAAAAAAAAAAAAAAAAAAAAAAAAAAAAAAAAAAAAAAAAAAAAAAAAAAAAAAAAAAAAAAAAAAAAAAAAAAAAAAAAAAAAAAAAAAAAAAAAAAAAAAAAAAAAAAAAAAAAAAAAAAAAAAAAAAAAAAAAAAAAAAAAAADj1twoLbD6JuNbBSwounWTSNY3Xu1VdAjTTNU6UxrLkA8bdc28EWvfY25PrZWO3VZSxK/XxRy6MVPcceXr8/qRj3NtmHJZWaeS+eoSNUXxa1HfpFSLVdXCGVsZFmOJ30Wp8+726LtAsLVZ8YskR7YKK1wovqVSJ7nN99X6L+Q6aXOPMFzlcy/NYn3LaSHT87FUqRhq5ZW1sbmNzjNMd8z90SyTBi9UZp48nkWV+JqlFXsYjGJ+RqIhQdmhjpP/wB0Vv8AWT+4m9yV9a6p2GxsxvuU+v8ABlQDFqDN7MKlRyRYlmXe59ZFFJ+TeauhyqfPLMOnej5brBUIi+plpY0Rf6qIv5x7kr7CrYXMY8muifPP9LJsGPtHtIYkjlRbhYbZPFrxbCskTl99XO+I9FbdpLDkyKl3sFfSO14dQ9k7ffVdxfzKSThrsdDH3tkM3s7/AAXOjsmJ9WuvqXgB5G0ZsZeXpUZS4opIn6IqsqlWnVF7tZERFX3FU9Yx7JGNkje1zHIjmuauqKi8lRSjNM08YYLEYTEYSrm4iiaZ7YmPa3AAgtwAAAAAAAAAAYe9LFTTz7FGLZoo1cynuFpklXX1LVroWov5XInvkDJ9F23dgyTHuyJmjYYYutljsM1xiZu6q59KqVDURO/WJNPE+dEAAAAAAAAAAAAAAAAAAAMu+ikoJKvbcwVUsciNoaO7zPTTmi26oZ8b0J7SF7oXMGzXfaIxNjF8KrS4fwxLGknHyaieeJrE7uMbZvyE0IAAAAAAAAAAAAAAAAAAAAAAAAAAAAAAAAAAAAAAAAAAAAAAAAAAAAAAAAAAAAAAAAAAAAAAAAAAAAAAAAAAAAAAAAAAAAAAAAAAAAAAAAAAAAAAAAAAAAAAAAAAAAAAAAAAAAAAAAAAAAAAAAAAAAAAAAAAAAAAAAAAAAAAAAAAAAAAAAAAAAAAAAAAAAAAAAAAAAAAAAAAAAAAAAAAAAAAAAAAAAAAAAAAAAAAAAAAAAAAAAAAAAAAAAAAAAAAAAAAAAAAAAAFOoqaekgfU1c8cMMabz5JHI1rU71VeCFtMVZ3W2gV9JhinSumTgtRKithavgnBz+3uTtRVJqaKq50he4LLsTmFfMw9Gvb0R3yuXUVEFLC+oqp44Yo03nySORrWp3qq8EPC4gzlwtaFfBbesulQ3VPqXkxaovbIvNPFqOQspfsWX7Ec3W3m5zVGi6tYq7sbfcYmjUXx01OndMXVGGiPKbtgNjrVGlWMq509Ubo9PGfU99fM48X3XejpaiK2wu1Tdpm+WqL3vdqqL4t3TxVZcauundVVtXNUTO9VJLIr3L7qrxOC6UprJ3lxTRTTwhtuFy/D4ONLFEU90ffxV3TalJ03iUnSJ2m1Ze5CeF9FOjer3L2KbV6zsT85sWZe82rL3KRVI1blZIv2yJ75sdDL2Ob+UdYOsI6poqqhsWnn7N1ffKT6aq/zevuKhyesNes71GqeL1dLrZWzs9VC9E9zgcd0ved62Tx1NHshmTSWJjvdQmipVoxnN8ql590vidhZsX4jw3J1tivdZRLrqrYpVRjl/nN5L76FeWzUU3Fm/Eve1eH5zrqnDta3yqaRkyd3qV/uJtaat0rqL2ExNPg7umk9FUbvwXTw1tN4lt6tgxNbKa6xJzli0gm91dE3F9xGp7peDCWcmAcYKyCivDaSsk4JS1qJFIq9iIuu65fBqqphpUx1FK7cqIXxr3OTTU4zpfEp14K3XvjcwmYbB5VmUc+zHg6p6aeH2eGndokLBhbgrO/HWCHRwU9x+iFvZonoOtVZGIncx2u8z3l070UyIwBn1gnHDo6GWf6EXSTRqUlU9N17u6OTgjuzguir2IWF3CXLW/jDzTOtiM0yeJuxT4S3HyqejvjjHrjtXKABatPAAAAAHFuttpLxbKu018DJqatgfTzRvTVr2ParXIvgqKfMrnVlvX5QZt4uyxuLXdbhu71NA1zv+0ia9eqk9x8ascng5D6dCIjpmdnaay4wsW0hYKJfQN+YyyX5WN+t1kbVWnmd9/EixqvBE6lic3ARnAAAAAAAAAAAAAAAAAHr8ocssRZy5mYcywwrB1tzxFXxUUS6KrY2uXy5HacmMajnOXsRqqBL50N2Us+Ddnu85l3CmWKpx5dt6nVWab9FSI6ON2vjK+pT+invZ+nm8t8BWHK3AOH8usMw9Va8OW6C3UyaIiubGxG77tObnKiucvarlU9IAAAAAAAAAAAAAAAAAAAAAAAAAAAAAAAAAAAAAAAAAAAAAAAAAAAAAAAAAAAAAAAAAAAAAAAAAAAAAAAAAAAAAAAAAAAAAAAAAAAAAAAAAAAAAAAAAAAAAAAAAAAAAAAAAAAAAAAAAAAAAAAAAAAAAAAAAAAAAAAAAAAAAAAAAAAAAAAAAAAAAAAAAAAAAAAAAAAAAAAAAAAAAAAAAAAAAAAAAAAAAAAAAAAAAAAAAAAAAAAAAAAAAAAAAAAAAAAAAAAAA2SyxQRPnnkbHHG1XPe5dEaic1VexARGu6G88hjTMyxYOR1K5fRtx04UsbtN3VNUV7uO72d68U4acTw2YGdDpVls+D5VZHpuSV+nlO70j7k7N5ePPTTgpaGWpfI90kj1c96q5znLqqqvNVUubdjXfU3XJtlK7+l7Hbqeinpnv6u7j3PR4px1iDFs2/daxepausdNHq2Ji96N7V58V1Xjz04HnnS+JxnTeJRfN4l5FMRuh6Dh8Lbw9EW7VMREdEOU6bxKLpvE47pik6Um0XcW3KdL4lNZvE4zpfE2LN4kVSLbkrL4m1ZfE4izeJt60J4ocvrfE2rL4nF60060jom5jl9aneOtTvOH1qm5JSOiPMctJPE3JIpwklQ3tk8Ql5jmtk7io2TvU4TZCo2TxCnNLnNk0KzH9nYcFr+RWY8aKNVLmOZFOxYp42SMXm1yaodNcMHUVUiyUEq07/uV8pi/wD3Q7VjjkxOIxM08EtvEXsNVraq0/vqW1uloudod/hlO5Ga6JI3ixff/vOsdOidpeRGxzMWKSNr2OTRWuTVFTxQ8vfcu6asa6psj0p5uawuX6m73Pufi9wrUXY4VNgwG0FqqeZio5s9fR5+p3OWu0ZirBLorbe3yXqzt0b1cr9Z4W/7N680RPtXapw0TQyrwZjfDePrO294ar0qIFXcka5u7JC/TVWPavJePuL2KphJgHK7EmOcYx4VbSy0iR/Vayd7fJghRdFd/OVeTdOar3aqmceFcLWXBlipcO2ClSCkpW6Jrxc93a9y9rlXiq/EmiGPx1NqmY5vlPOOUnDZJh66JwtOmIq3zzdObzeuqOGs9Gmmu+Z6HbAAxzykAAA8RnVlJhbPTK/EGVeMoFktl/pHU7ntRN+CT1UczNeCPY9GvTxah7cAfMhnZk7jLITM295WY7olhudmnWNJGtXqqqFeMc8SrzY9uip3cUXRUVE8MT9bfWxHZtrLAjLnh9KW35h4ehctmr5PJZVR67zqOdyJruOXVWu+0cuqcFcjoG8W4SxLgTEtywdjGy1VovVoqHUtbRVTNySGRvNFTtTkqKmqKioqKqKigdSAAAAAAAAAAAAAEwnRH7IM+BcOSbSmP7V1V6xFTLT4ap549H0tvd6up0Xk6bk1dEXq0VdVSQxq6OHYBr8+8Q02bua9onpsurPO2Smpp41Yt/nauvVt5L6HaqJvvT1XqG8d5WTa09PBSwR0tLDHDDCxI4442o1rGomiNRE4IiJwRAKgAAAAAAAAAAAAAAAAAAAAAAAAAAAAAAAAAAAAAAAAAAAAAAAAAAAAAAAAAAAAAAAAAAAAAAAAAAAAAAAAAAAAAAAAAAAAAAAAAAAAAAAAAAAAAAAAAAAAAAAAAAAAAAAAAAAAAAAAAAAAAAAAAAAAAAAAAAAAAAAAAAAAAAAAAAAAAAAAAAAAAAAAAAAAAAAAAAAAAAAAAAAAAAAAAAAAAAAAAAAAAAAAAAAAAAAAAAAAAAAAAAAAAAAAAAAAAAAAAAAHEul0t9lt890ulUynpadu/JI9eCJ/91VeCInFVVEQJqaaq6oppjWZa3K5UFnoZrlc6qOnpoG70kj10RP/APVXgidqmO+Yuadfi+V1voVfS2ljuEWujp1ReDpPjRvJPFdNOuzHzKr8cV+4zfp7XTuX0NTKvFV5dY/Tm5fyIi6J2qvinTeJfWbHN8ari9O2e2ZpwURicVGtzojop/57ejo63IfN4lF03icd0vepSdN3Fzo3Om25Dpl7yk6ZE7Tjul71KTpiKtTbcl03iU3TeJxXS+OpTdL4kdFSLblLMU1l8TjLL4mxZfEjoqRbcpZTasy95xVlNFl8Ron5jldbr2miSeJxet8R1niRR5jl9YveapIvecNJPE3JKvIjocxzEkN6SIcNJPE3pIQ0STS5rZPEqsecFrysx/EKdVLnMfxK8b/E4MbzkMeFtXS50bu05UbzgRO5HKicQWlyHYRO5KcyFVVdEOvidyPf5SWD6OYoiqJmKtPbk9EvXRdFei+Q3Xv146dqNUp1VRTTNUsVjr9OFs1Xq+FMars5e4WTDFhjZPHpXVaJLUqvNq/as/oovjxVx6gAxVVU1TrLyDEX68Tdqu3OMgAIKIAAAAAGL+2bsG5a7WljW5r1WHceUMStt+IIYdetROUFU1NOti7l9Uzm1dFc12UAA+aTPrZwze2bMWOwlmvhWa3SPVy0dfFrLQ17E+3gmRN16clVq6Pbqm81q8C2R9Q+O8vsEZn4aqsH5h4VtmIbLWJ9WorhTtmjVU5ORF9S5OaOTRUXiiopHPtA9C/hq8z1N+2cccJYZpFV7bBf3STUiLx8mKqajpWJy0R7ZF/nIBEgC/WamwptX5PTTLivJi/1VDDqq3GzQfROk3E+3c+n3+rT8IjV8CxE0M1NK+CoifFLGqtex7Va5qp2Ki8lA2AAAD2WAcmc2806htNlvlpibErnLuq62WuaojZ4ue1qtani5UQzHyU6HXaFxzNT3DNq72nLy1OVHSQvkbcLk5umqbsULuqbr/OlRzdeLV0VAMC6Ojq7hVw0FBSy1NTUSNihhhYr3yPcujWtanFVVV0REJLdijonb5iOpt+Zu1DQTWqzMVtRR4SVysq6zjqi1ipxhj/2aL1i68VZpoueWzdsKbPWzDHHcMFYXW6YlRm7JiK8q2pruKcUiXRGQJxVPqbWqqcHK4yEA41stlustupbPZ6CnoaGhhZT01NTxpHFDExEa1jGt0RrURERETgiIckAAAAAAAAAAAAAAAAAAAAAAAAAAAAAAAAAAAAAAAAAAAAAAAAAAAAAAAAAAAAAAAAAAAAAAAAAAAAAAAAAAAAAAAAAAAAAAAAAAAAAAAAAAAAAAAAAAAAAAAAAAAAAAAAAAAAAAAAAAAAAAAAAAAAAAAAAAAAAAAAAAAAAAAAAAAAAAAAAAAAAAAAAAAAAAAAAAAAAAAAAAAAAAAAAAAAAAAAAAAAAAAAAAAAAAAAAAAAAAAAAAAAAAAAAAAAAAAAAAAAKVTUwUdPLV1UzIoYWLJJI9dGtaiaqqr2IiGMeamZk+Nrl6EoXvjs9I9eoYvDrXcU61yc+KLwReSeKqd7npmatyq5MGWSf/BKZ+lbI1eEsqL6hP5rV596+5xs26XxL7D2dPHqen7J7Pe56Ix2Jjx58mOqOvvn1Q5Dpk7yi+ZSg+ZCi6bUu9G+U23IdL3qUnTeJx3S96lJ0xHRVptq7pV7ym6Q4z5vEpOm7SKtTbcl0vibHTadpxVnVV4FN0viR0VYtuU6bTtNiz9xxXSm1ZVGipFtylmU0WZe84iy+Jp1viRTRQ5fW+ISXxOJ1viElTvCPMc1JVNySnCSTxN6SKEJoc5sqFVsnccBJEXt4lVkmmmqhSqoc9r17ysx5wWSa9pXY/tIKFVLnRv1OQx/acFjuXE5MbiC1rpdhG7XgcuJx18T+KHMicQWdyHYwu1L/AOSNpSjwtLdHxoklwnVUei+qjZ5Kfkd1hj5C4yowFRRUGDLNBCq7rqSOb35E31/O5S0xU6UaNI2vvTbwdNuPlVeqN/t0d+ACwebgAAAAAAAAAAAAAdDiXAOBMZtRmMMFWG+tREREudthqkREXVE+qNXtTU74AWrk2UtlyWR0suzZlY971VznOwdblVVXmqr1PE7axbP+Q2F5WTYZySwDaJI3bzH0OG6Knc13eisjTReCfkPfADbHHHFG2KJjWMYiNa1qaIiJyRE7DcAAAAAAAAAAAAAAAAAAAAAAAAAAAAAAAAAAAAAAAAAAAAAAAAAAAAAAAAAAAAAAAAAAAAAAAAAAAAAAAAAAAAAAAAAAAAAAAAAAAAAAAAAAAAAAAAAAAAAAAAAAAAAAAAAAAAAAAAAAAAAAAAAAAAAAAAAAAAAAAAAAAAAAAAAAAAAAAAAAAAAAAAAAAAAAAAAAAAAAAAAAAAAAAAAAAAAAAAAAAAAAAAAAAAAAAAAAAAAAAAAAAAAAAAAAAAAAAAAAAAAAAC3GdOYqYLsP0Ots7Uu9yarItF4wx/bSeC9jfHjx0U91ebtRWK1VV4uUyRU1HE6WRy9yJyTvXsRO1TC/GmLa7GWIqu/16qizv0ii3tUijT1LE9xPyqqr2lxh7XhKtZ4Q23ZLI/fTFeGux+bo49s9EffPo6XWPnVVVVXVSk6Ze8oOl8Sk6ZE7TJaPZ6bas6UpOm8Tjvm8Si+bxI6KtNtyHTeJSdN4nGfN4lJ03iR0VabbkOm8Sk6Y4zpvEpumCrFDkum8TYs3ccR03iUnT+IVYoc1ZvE2LO37pPynXunKT5/Eiq02dXade37pPyhJu1DpnS+JTWbTkpFUjD6u+60163vOgStmZ6mV35Tey7St9W1rk/Io0lGcLV0O+SRO8qNk8Tp4rtSyaI5+4v8AO5flOcyVFTVHaovEh3qFdqqjjDnNkRV5lVjzgtkK7JOGgUZpc6OTjwOUx510b9eZyY395CVvXS7CN5yo3HXxu1OXE4lWdyHYROObCp10TjnQryJVhdh2MK8jLTCX8FbNp/F9P8m0xJgUytwDWw1+C7LPBruNo44ePfGm4v52qWmK4Q8/2zpnwFuro1n2O/ABZPPQAAAAAAAAAAAAAAAAAAAAAAAAAAAAAAAAAAAAAAAAAAAAAAAAAAAAAAAAAAAAAAAAAAAAAAAAAAAAAAAAAAAAAAAAAAAAAAAAAAAAAAAAAAAAAAAAAAAAAAAAAAAAAAAAAAAAAAAAAAAAAAAAAAAAAAAAAAAAAAAAAAAAAAAAAAAAAAAAAAAAAAAAAAAAAAAAAAAAAAAAAAAAAAAAAAAAAAAAAAAAAAAAAAAAAAAAAAAAAAAAAAAAAAAAAAAAAAAAAAAAAAAAAAAAAAAAAAAAAAAAA63Ed9osM2Kuv1wdpBQwOmdxTV2icGpr2quiJ4qIjXcnt26rtcUURrM7o71j9pjHqo+nwHb59ERG1Nfuu59sca6L/SVF/mKY+um8SviC/wBbiK81t8uUm/U1szpn8V0TVeDU17ETRETuRDq3zaduhmbVuLdMUuhskyinKcFRho4xvntmeP4R2K75ii6bxOO+bxKTpV7yozMW1d8xRfN4lB8qd5SdKNVSKFd0xRdL3qUHzeJRfMneQ1VIoch0xSdN4nGdOvYUXTeIVIocl8/iUnzeJxnTeOhSdMRhWpocl03iUnTdxx3S+JSdN4hWpocl03iU3TeJxnTL2cCm6UirU0OSsxTdL3qcZ0viU3SkVxTQ5Kym+C41FK7WGVU8OxfeOA6bxKbpiKtFqKo0mHq6HEdPIqR1SdU77r7Vf7jvI5UeiOa5FReKKnaW1WXvU5VvvtZbXfUn70fbG7l//hDmdS1v5XFca2uPUuTG85Ub+PA89Z7/AEN0RGxP3JUTjE5ePvd53cTvEkncwF+1Vbq5tcaS7CJ2qHNicdbC7uOdC7lxJZlj7kOxhcc6FeR10K8jnwKSTLH3YdlB2GRGRt49HYTktckjVkt07mtYiabsb/KTXv1d1hjtTlysmsQ/QbFUdFNKrae6N9DuRVXd6znGuic118lO7fUoX6edQ1HaTCzisFXFMb6fGjzf8ashQAY95QAAAAAAAAAAAAAAAAAAAAAAAAAAAAAAAAAAAAAAAAAAAAAAAAAAAAAAAAAAAAAAAAAAAAAAAAAAAAAAAAAAAAAAAAAAAAAAAAAAAAAAAAAAAAAAAAAAAAAAAAAAAAAAAAAAAAAAAAAAAAAAAAAAAAAAAAAAAAAAAAAAAAAAAAAAAAAAAAAAAAAAAAAAAAAAAAAAAAAAAAAAAAAAAAAAAAAAAAAAAAAAAAAAAAAAAAAAAAAAAAAAAAAAAAAAAAAAAAAAAAAAAAAAAAAAAAAAAAAAAAFg9qrGfoK0W/BVLMqS17vRdW1F/wCxYvkNXvRX8f8Auy/aqiIqryTiYJ5wYvXGGYV3u0cu/TMmWmpeKqnVR+SipryRyorv6Sl1hLfPua9Tdtg8r935pF6uPFtRzvPwp/HzPKPmKDpSk+XxKD5k7zKPdYtq75fEovl8Sg+bxKD5+zUgqRbch8+nIovn8TjulKL5vEaJ4tq75l7VKTpjjumRCi6YKkUOQ+bxNIWVFZUR0lJDJPPM9I4442q5z3KuiIiJxVVXsOG6ZO8yu2S8k1jZFmriqjTeei/QankT1KclqFT8qM18XfcqU7tyLVPOlic8zexkOCqxd7upj509Efj1QxauFNW2ysmt9ypZqWqp3rHNDMxWSRuTm1zV4opxHToSD5yZB4Tzbo3VMzUt19iZu09xiZqq6cmSt+3b+dOxeaLgpmLlxi/LC9usmLLc6ByqqwVDPKgqGJ9tG/t7NU5prxRCSzfpu96x2a2rwW0NHMp8S7HGifbT1x646YeedMq9pTdKcZ0xTWbxK7cqaHJdL4lN0pxnTFNZe9SKvTQ5LpvEprL7xx1lKaykYV6aHJdL4mxZde04zpO9TYs3cRXNNDkuk8TYsqd5xnS+JsWQmhcU0OUlS+N6Pje5jmrqjkXRUU9dh/HiNVtJel4cm1CJy++T/wC6Hg1l04qptWUTTFRfwNrF0cy5Hn6YX9pZo5WNlie17HJq1zV1RU70U7CFeJYrDuMblh6VEid11Mq6ugevD+j3KXdw3ia1Yjg62gnTrGp9Uhfwez3U7vFOBQromlpOa5RfwPj6a0df49T08C8eB2EC8jradTsYF5FKZavednTnaUqq1yOaqoqLqiodZTHaUyckQk1YjEMlsAYrZiuwx1Mr2+jafSKqbqmu/pwfommiO58tNdUTkelMcsG4jrcMXSO4UvlsVNyaJV4SMXmmvYvai96dqaouQVrulDeaGO4W+ZJYZU4L2ovaip2KncWN2jmzrHB5VnOXTgr010R4lXDs7PwcsAFJhgAAAAAAAAAAAAAAAAAAAAAAAAAAAAAAAAAAAAAAAAAAAAAAAAAAAAAAAAAAAAAAAAAAAAAAAAAAAAAAAAAAAAAAAAAAAAAAAAAAAAAAAAAAAAAAAAAAAAAAAAAAAAAAAAAAAAAAAAAAAAAAAAAAAAAAAAAAAAAAAAAAAAAAAAAAAAAAAAAAAAAAAAAAAAAAAAAAAAAAAAAAAAAAAAAAAAAAAAAAAAAAAAAAAAAAAAAAAAAAAAAAAAAAAAAAAAAAAAAAAAAAAAAAAAAAAAAAAAB5PNXEzsIZe3y/xyOZNBSuZA5vNsr9GRr/AFnNMAHzarzMq9sLEPoHCNow7GrmvuVa6dyovBY4m8UX+k9i+8YjOlMpg6NLevW915N8u8DldWJmN9yqfRTuj16q75ig+Uovl8Si+bxLvR6JFtWdL4lF8viUXylF8qd5BPFCs+XxKL5Sg+bXwKL5fEgmihXfNpyKL5e9Sg6XxPRZc4DvuZuLaPCVgi1mqXb00zk8inhT1cj/AARPyroicVQhMxTGspL1y3hbVV69OlNMazM9EQuFs4ZLVGa2J0uV2p3tw1aZGvrHrqiVD+bYGrz483KnJvaiq3XP2CCGmhjpqaFkUUTUZHGxqNaxqJoiIicERE7DpMDYKseX2GKHCmHqfq6SiZorl9XK9fVSPXtc5eK/kTRERDvjE3rs3atehzXtVtFc2hxs3I3Wqd1EdnXPbPT5o6A6PGOCsM49sk2HsV2mGvopuO69PKjd2PY7m1yd6cTvAUonTfDXLV2uxXFy1MxVG+JjdMT2I+c9tmPFOVb5r/YuuvOGdVd6IazWakTsSZqdn89OHfu8ELFLN4kvMkcc0bopWNex6K1zXJqiovNFQxOz/wBjeC6eicX5RU8dPVrrJU2TVGxSrzVYFXgx38xfJXs3dNFvrOK18Wt7XslyjUX5pweczzauEXOET9Lqnt4denFho6U2LL4m24U1ba62e3XKjmpaqmesU0EzFZJG9OCtc1eKKncpxHTeJfPZbdMVRExwcpZUTt1Kbpu5TjLL4mxZETtJoXNFDkrKbFk7VU4yyqbFk71IrmmhyVlNiyqvacdZDYsqa8yaFxRQ5Cym1ZfE4yy69ptWQjC5oochZSpSXKrt9SysoqmSCaNdWvY7RUOCsnepsdL3Ey4i1FUaTGsLz4NzipKhY6HFCNp5fUtqmN+pu++T7VfFOHuF26GaGoiZPBKyWN6I5r2ORWuTvRUMOlk8T0OFMw8SYOlRbXW71PvavpZtXRO97mi+KKhQrsa76WoZvsXRiom7gZ5tXzZ4T3dXs7mXlN2Ha0yci0GC89sI3zcpr1J9BqteH1d2sLl8JOSf0tPdUu9b5YaiJk9PKyWN6asexyOa5O9FTmWddNVE6VPKM2y7F5bX4PF25pnt4T3TwnzO8t0EtRNFT08avklcjGNanFzlXRET3zIHBuGW4XtDaR8iSVMy9bUOT1O/ppo3wTlr28+HJPK5T4MWhpmYmuUadfOz/BGKnGONU9X7rk5afarzXe0S5BZ3a9Z0h5Rn2Y+HuTh7U+LHHtn/AI9oDyeYuOafBNlWdixvuNVqyjhevNyc3qicVa3VFXlqqomqa6njcKZ6sk3KTFtDuLwb6MpWqrfdfHzTvVW66ryahRWFjJ8ZicP7ptUa0+ue6Old4HXWfEViv8XW2a601WiNRzmxvTfYi8t5vqm+4qIdiGProqt1c2uNJ6pAAEgAeEzBzxypyvikdjTG1uoqhiapRMk66qd3aQs1fx71RE8SMUzVOkLrBYHFZjejD4O3VcrnhFMTVPojWXuwedy9x3YszMHW3HOGln+ht1Y98HXsRkibsjmORyIqoio5i9p6ITExOkqeIw93CXq8PfpmmuiZiYnjExOkxPbEgAIKIAAAAAAAAAAAAAAAAAAAAAAAAAAAAAAAAAAAAAAAAAAAAAAAAAAAAAAAAAAAAAAAAAAAAAAAAAAAAAAAAAAAAAAAAAAAAAAAAAAAAAAAAAAAAAAAAAAAAAAAAAAAAAAAAAAAAAAAAAAAAAAAAAAAAAAAAAAAAAAAAAAAAAAAAAAAAAAAAAAAAAAAAAAAAAAAAAAAAAAAAAAAAAAAAAAAAAAAAAAAAAAAAAAAAAAAAAAAAAAAAAAAAAAAAAAAAAAAAAAAAAAADDTbBvqVmY1HaI5FVlttzN5uvKSRznL/AMqMLCvlPebQV6S75w4mqUVN2OrSmRE7OqY2NfztUtu+buUzlmnm24jsdUbM4L3Jk+GtfsUzPfMaz65Vny6cyi+ZO8oulKLpSoz0W1V8uvaUnSlF8viUXy+JCU0W1Z0pRfL4lB83cUXSkE0W3Mpoau4VcNBQwSVFTUyNihijarnPe5dEaiJzVVXTQkQ2dclabKLCLXXCKN+Iro1stxmTR3V9rYGr9y3XjpzdqvFEbpabY8yGWkiizbxdQ6Tyt/xJTyp6hipxqVTvXkzXs1d2tUyzMbir3OnmU8HhfKLtVGLuzlODq8SmfHmPlVR8nup6eue4ABZvKQAAAABaLPPZuwXnTROq5WNtWI4maU91hjRXO0TgyZvDrGe/qnYqcUWPLM7K7G2Ul/dh/GVpfTvcqrT1LNXU9UxPton6aKnLVOCpqmqIS1GDe3RntbbzUNydw62mqW2+dtRdqtWNesc7fUwxuX1Kpr5apx47uvqkLzC3K+dzOMPXeTHaDN6sbTlVEeEs8Z1n4OOuJ6v2eEzw03yxGWVe82LL4nHWVO82LKpkodF00OSsvibFlOMshtWXTtJlzRQ5CyKvNTasnccdZe5DYsviRhc0UOQsqJ2m1ZVXtOOsmnabVl8SZc0W3IWU2LJ4nHWXxNqyeJGFxRQ5Cyr3m3rCgshtWTxI6rqmhXWQy42F8m8TYqu8mP7zW1tLhK3vWOKk6xUiudT2orOSxs4K5e1dG8fK0sXs/wCS17z0x9TYYoOsgttPpUXWuRvCmp0Xjp2K93qWp2quvJFVJY8M4bsuD7BQYYw7QR0VttsDaemgYnBrE+NVXVVVeKqqqvFSyxuI5lPg6eMvF+V/be3k+DnJMJMTfux408eZRPsqq6OmI37p5suzOpxXimxYJw5cMV4lr46K22yB09RM/k1qdiJzVVXREROKqqInFTtVVERVVdETiqkbG2ptKrmhiN2XOD67XC1jqF6+aJ3k3GrbwV2qc42LqjexV1dxTdVMZatTdq0eDbC7HYnbTNacHb1i1TvuVfNp/qnhTHn4RL1+JNqfL7Gt8nvd0v8AJTK/RsMLqOdUiiTXdYitYuumvFe1VVeHJOCu0FlVDpu4jkl1+4oZ+H5WIYfJzNxe+47fXLrG3yWZJRTFFFVyKYjSIiadP4GWFVtR5fUatdSUN4q5GKjmKyBjERe/Vz0VPeQ4VXt45i0bZW4VpJIXPXRJbnWOreH3jk0b7ymL5ubyKtOFtx0MhY5Mtm6dJvWPCfTmZj0RpHphkrS9IFn9AxWS/ubqFVdd6W2uRU8PJkRPzFC47eu0LXI5tNdLJb1cnBaa1scqe51qvMck5m9OZVixa+bDI0cnmylNXPjL7Wv0ImPRO5cnFG0ZnljJj4r9mffXxSerhpp/QkT07lZCjGqngqaFuXOc9yve5XOcuqqq6qq95oCrTTFO6IbRgstwWW0eCwVmm3T1U0xTHoiISO9HziR12yXrLHM/WSy3eWNifcxSMY9v/Mshk8YLdG3e1ju2NcNufqlRTUla1vd1bnsVU/8AFb+RDOkw2Kp5t2XC3KzgIy/bDG0UxuqqiuPr0xVPrmQAFu86AAAAAAAAAAAAAAAAAC0W0htS5R7LmD1xTmZfUbUTtclts9LuvrrjIn2sUaqnBNU1e5UY3VNV4oihdxVRE1VdEQxWz76SvZdyInqbLLiuTGGIabVj7Xhtrarq3p9rLUK5IWKi8Fbvq9OPkkVm1P0jOfG0rUVdip7pLg3BMqqxlgtNQ5q1EfH7LnTR86qi8W+THwTyNU1MVAJC81emgz4xM+WjypwThzBVG5VRlRUo651yJ2Kjno2FO9UWJ3Ht78YMabbG1pj+aWXEm0DjTdmXefDb7k63QO8OqperZp4buhZMAdrd8W4qv+99HsTXW5b+m96LrZJtdOWu8q8jq2ucxyOa5Uci6oqLoqKaAD0tnzPzKw9L19gzDxNbJddd+ju1RC7Xlrqx6d6/lLuYJ2/tsbAMkb7Nn9iesbH/ANnepmXVrk7l9FtkX8ioqdmnAx+AEkuU3TW5oWeaKizmywsmJKNNGurbLI+31bU7XOY9ZIpF8E6tPEz62f8Ab52aNoySntWEMbttOIajg2w31raOtc77mPVyxzLz4RvcvBVVEPngNWucxyPY5WuauqKi6KigfVOCDLZN6UnOPIqejwpmfUVmP8EsVsfV1c+9c6BnBNYKh/F7UTlFIqpwRGuZzJlcnc6ctc+sE0uP8rcT015tNT5D1jXdmpZtEV0M8a+VFImqatcnJUVNUVFUPcAAAYGdJPtsZy7J2JsD2zK6DD0sGIqKtnq0utC+dUfE+JG7itkZpwe7XXXsM8yI7pwf4bZVebLp8rTgWx9OS2uP4ty/+Bp/+oHpyW1x/FuX/wADT/8AUGCwAzp9OS2uP4ty/wDgaf8A6gkO6ObafzJ2qcp8QY0zNgs0Vwtl+dbYEtdK+CNYkgif5SOe9Vdq9eOvLQgIJpuhYoUj2ZcT3HrFVajGlTCrNOW5R0i66+PWfmAkCAAAAAAABhT0lO2Dmxsm23AtXldTWCV+I566Os+itG+dESFsSs3N2Rmn1x2uuvYYQ0PTPbWFIr1qMMZa1u9pok9orE3fc6urb+fUu305UsqVOTUCSvSNzL+9zN5d1XItAiKqd6Iq/lUiwAz/APTq9qf+QOVXwVcf+uHp1e1P/IHKr4KuP/XGAAAny6O3a2zH2uMC4qxPmRZMN22qsd0ioqdlkpp4Y3MdFvqr0mmlVV17lRPAy2I3OhI9aLMP8YKb5upJGAAAGjl0aqp2JqQ95mdMNtMYMzIxXg+14Gyxlo7Fe662076i2XB0r4oZ3xsV6trURXKjU1VERNdeCEwcnqHe4p8yefPr5Zi/jZd/nkoGYvp1e1P/ACByq+Crj/1w9Or2p/5A5VfBVx/64wAAGf8A6dXtT/yByq+Crj/1xyqHpr9pKNH/AETy0y1n103OopK+HTv13qp+vZ3e+R7ACRT07TP32qMv/wCrW/tx6dpn77VGX/8AVrf25HWAJFPTtM/faoy//q1v7cenaZ++1Rl//Vrf25HWAJFPTtM/faoy/wD6tb+3Hp2mfvtUZf8A9Wt/bkdYAkU9O0z99qjL/wDq1v7cenaZ++1Rl/8A1a39uR1gD6AOj92scebXGX+JMZ44wtZLK60XZtupm2vrUZKnVI9yu6x7l1Teby0TiZUEeXQp+x6xj+Nr/mkBIaAAAAAAAefx3j7BmWOFq7G2P8SUNisdtj6yprayVGRsTsRO1zlXREaiKqqqIiKqkTu1b0v+McWS1uDNmWklw1ZtXRPxLWRItxqW66KsETtW07V7HOR0miov1NeAEnub20PknkLbfonm1mRZsOtexZIaaebfq50Tn1VPGjpZP6LVMFs1umxy9tE09vycymu2InMVWMuN7q20ECqn27YWJJI9q8ODljXjx05ESl/xBfsVXeqxBie9V93ulbIstTW11Q+eeZ6/bPkequcviqnAAzVxt0u+2JimSX6AXrDOEInr5DbTZI5nNb3b1Ws2qqnNdE8NC0t429dsa+SLJW7Q2Lo1VyO0o6ptImumnKFrU08O/jzLCAC9X0621x/rG5gfDk/6x3Nl6QPbMsKxrQ7QeJ5erRUT0a6Gs1468evY/X39eHDkY+ADNvBfS/7YGGXxpiGuwni6NF8v6KWVsD3J26LSOhRF7l0X3F5GTuVfTZZf3R0NDnHlJd7DIqo11fYqplfB986KTq3sTwR0i+7yIhwB9L+T20dkfn5QLX5SZk2fECsZvy0kUqxVkDe+SmkRsrE17XNRF7FLknyy2K/XzC93pb/hq811pudFIktNW0NQ+CeB6cnMkYqOaviiki2yf0vmNMIz0eDNpqCXE9kVWxR4kpYmpcqROSLOxujahicNVRGyc1VZF4ATCA6DAuPMG5mYWoMbYAxJQ32x3OPraWto5UfG9O1F7WuReDmuRHNVFRURUVDvwAAAwD2w+k8vuy5nXWZTUGT9BiGGloaasSumvL6dzllaqq3cSFyJppz1LI+ni4q/1drV/aOT/pyx3S3ezJu/mS2/JuMMgJPvTxcVf6u1q/tHJ/049PFxV/q7Wr+0cn/TkYIA+lHZYzsqtozIXCuc1bh6KxzYjZVudQRVKzth6mrmgTSRWtV2qQo7kmm9p2F1zFzoxfYM5Yfgbp//AGtWZRgAAAANr3sjY6SRyNa1FVzlXRETvUCnV1dLQUs1dXVEVPT07HSyyyuRrI2NTVXOVeCIiJqqkbmafTVYJwhjy7YZy9yYlxnZLdOtPDe34kSgbWObwc+OJKWX6nqi7rldq5NF0TUs30lvSFuzOq7js+ZJ3dP3IUsvU3690sq/44kb6qnhcn/wzV4Od/2ipw8hNXxyASqennf/AEu/+9v/AMAennf/AEu/+9v/AMAirAEqnp53/wBLv/vb/wDAPZZQ9LnjjPHMG0ZaZebI0lwvF3mSJiJjVergZ9vNK5Leu5GxNXOd2IhFBlnlpjbN/G1ry8y9sNRd75d5khp6aFPfc97l4MY1NXOc5URqIqqqIhPzsZ7GuBNkjAbbdbmQ3TGF2iY6/X10ej5n8+oh14sgavJOblTedx0RoZCwrM6GN1RGxkqtRZGsermtdpxRHKiKqa9uie4hvAAAAAAAAAA6/EF2bYbFcL2+BZm2+llqVjR26r0Y1Xaa9muhh36ZbZPakrvhhn7IyzzE/gDiPzVVfJOIXTI4HD270Vc+OD2Pkt2SyjaWxia8ztc+aJpiPGqjTWJ18mY6md/pltk9qSu+GGfsh6ZbZPakrvhhn7IwQBfe4bHV65eq/ks2V/8AGn7dz+pnf6ZbZPakrvhhn7I5FN0lOFHtVazK27RO14JFcY5EVPfY3QwIA9w2Or1yhPJXstMaRh5j69f9TP30yfBHtaXz/i4R6ZPgj2tL5/xcJgEB7gsdXrSfkp2X/wAift1/ikAi6SbAayNSbLe/NYq+U5tTC5UTwRdNfynpbH0heRVze2O50OJ7Oq+qfUUMckae/FI5y/1SNoEJwFmehRvckmzN2nSmiuntiufv1hMJgzP3JnMGSODCWY1lrKmZdI6WSf0PUP8AchlRr1/qnvyDwvFlPtX5yZTSw09vxFJeLRHo1bXdXOnhRidkblXfi4ct1UTvRS1uZbMb7c+lpOdcitdumbmUYjnT82vdM/Wjdr30xHalhBZXIbary8zyiZbKaRbJiRrN6W0VciK6TRNVdA/gkrU48NEciIqq1E4l6jHV0VW55tUaS8WzLLMZlGIqwmOtzRXHRPtjomOqY3SAAkWAAAAAAAFpM7dpvLTI+ndTXyvW431zN+Cz0TkdOuqeS6ReUTF73cVTXdR2hNRRVXPNpjWV7l+XYvNb9OFwVua654REa/8A8jrmd0dK7ZbfMLaLyZyvfJTYtx3b4q6JdHUNKq1NSju50cSOVn9LRPEj1zc2w84s1ZJ6KO8vw3ZJNWpbrVI6NXMXslm4Pk4cFTVGr9yhY5VVVVVXVVMlay2Z33J9D2vIuRe5cpi7nN7m/sUaTPnqnWPRE97PvFfSSYPo3viwVl1dbnpqiTXGqjo2696NYkiqnuqi+4Wwu3SM5xVTlbaMLYToI15b9PUTSJ76yo3/AJTFMF7TgrFPyXpGD5NdmMFGkYaKp66pqq9Uzp6IZGrt9bQqqq/RGxp4fQtv95XpOkCz/pn78z8OVScPJmtqon/I9q/nMawT+5rPzYZKdidnao0nBW/swzHsHST4zgc1MU5a2Wub9stvq5aRfeR/Wl48FdIBkjiR8dNiOO74Yneu6rqun6+nRV5fVIt52nirERCNUFKvA2auEaMHmHJXszjonmWZtz10VTHqnnU+pNXhjGGFMa25LthHEdtvNGvDrqGpZM1q9y7qrur4LxO4IUsM4sxPgy6R3rCd/r7RXR+pno6h0T9O5VavFO9F4L2mXuS/SFXSkkp7FnVbG1tOujPo1b4kbMzs3poU8l6dqqzdVET1LlLC9l9dG+jf7XlO0XJBmWXUzfyuvw9EfJ00rjujhV5pieqGeAOpwtizDeNrJT4jwneqW622qTWKoppN5q96L2tcna1dFTtRDtiwmJidJeRXLddmubdyJiqN0xO6YntgABBIAAAcK83Wnsdorb1VskfBQU8lTI2NEV6tY1XKiIqomuidqoc089mJ/AHEfmqq+ScRiNZ0VsNRF29RRVwmYj0yx39MbyR/ktjj/gaT/qTkU3SI5FTsV0tnxhTqi6bslvgVV8fJnVCN0Gc977Pa6lnkh2amN1NcfX/4SUemFZC/6Hir4Oi/andYL23smcd4rtWDrJS4jbX3iqZSU6z0MbY0e9dE3lSRVRPeUi9Ll7NPr+YD8+Uv6aEleAs00zMasdmnJPs9hMDexFvn86iiqY8bpiJmOhLwADCuZQAAeNzXzWwxk3hR2MsXR1z6Bk8dOqUcSSSbz10Tgrmpp75Zb0wrIX/Q8VfB0X7U5O376wM/nWk/SUjOMnhMJbvW+dV1vcOT3YDJ9pconG47nc/n1U7qtI0iI7J60lHphWQv+h4q+Dov2o9MKyF/0PFXwdF+1I1wXXvfZ7W8/kf2b/8Ak+3/AMJhsoM7MCZ3WSpvmCKyoc2jm6ippqqNI54XKmrVc1FXyXJrouui6L2op70h/wAis5b/AJIY9pMW2lz5qNypBcqLe0ZV0yr5TV7nJ6pq9jkTmmqLLRhDFlhx1hq3YuwzXMq7ZdIGz08re5ebXJ2ORdUVOaKip2GNxeG9z1axwl4vt/sTXsni4rsa1Ye55MzxiemmZ6+mOuO6XcAAtHnwAAAAAtvm/tAZd5HPtTMeVNfEt5SdaX0LSrNr1W5v66Lw+uN/OW6+n62ev4xvnwW7+8tN0mH2Tl3+Duvx0phEZXDYK3dtRXVrrL3zYvk0yXP8jsZji5r59fO10qiI3V1UxpHNnojrSbfT9bPX8Y3z4Ld/ePp+tnr+Mb58Fu/vIyQV/e6z2tp/I5s78659qP6Ux+VGbeDs58Nz4qwRNVS0FPWPoXrUwLE7rWsY9eC9mkjePuntDFro6fWNuv4z1XzalMpTEX6It3JojhDnjajLbOT5xiMDh9eZbqmI13zp28A6LHGNsPZdYXrsY4rq301rtzWuqJWROkc1HORqaNaiqvFyckO9LL7Y/scMY/gKf5xGS26YrrimemVpkuDt5hmWHwl3Xm3K6aZ046VVRE6cd+91H09Ozd/K6u+Can9QfT07N38rq74Jqf1CLsGY97rPXP8AfmdHfkZ2f/zLv2qf6Eon09Ozd/K6u+Can9QfT07N38rq74Jqf1CLsD3us9c/35j8jOz/APmXftU/0JRPp6dm7+V1d8E1P6g+np2bv5XV3wTU/qEXYHvdZ65/vzH5Gdn/APMu/ap/oSifT07N38rq74Jqf1B9PTs3fyurvgmp/UIuwPe6z1z/AH5j8jOz/wDmXftU/wBCUT6enZu/ldXfBNT+ocmm239meeNXy5gy06oum5JZ65VXx8mFU/ORZAe9trrn+/MlnkY2fmN1y7H1qP6EqX07OzH7Zn/o1w/YD6dnZj9sz/0a4fsCK0D3ttdc+r8Ev5Fsg/zr32qP/rSpfTs7Mftmf+jXD9gPp2dmP2zP/Rrh+wIrQPe211z6vwPyLZB/nXvtUf8A1plsuM1sA5t2movmXt++itDSzrSzS+hZoN2XdR27pKxqrwcnFE04nrTEzo4/WnxD5+d8hEZZmJv24tXJojoeA7U5VZyTOL+X4eZmi3VpE1aa8InfpER6nX3++2rC9iuGJb7VehrbaqWWsq5txz+rhjarnu3Worl0airoiKq9iFnvp2dmP2zP/Rrh+wLy3i0W2/2mssd5o46uguEElLVQSeplie1WuYvgqKqGFW3NkxlblzldZbxgfBNus9bUYghpZZqZrkc+JaeocrF1VeGrGr7xUw9Fu5VzK9dZ6mU2OyzJc6xlGX5l4WLlyrSmaJoimI0+VzqZn0L/ANg2u9njFF9t+GrFmF6JuV1qoqOkh+hNczrJpHI1jd50KNTVyomqqiJ2qepzLztywyfktseYuJ/oQ679atGnoKon63q9zf8ArMbt3TrGeq058OSnj8ptn3Jekwvg7F9Nl3aY7zFb7fcWViMd1jalImP6zn6re4+6WJ6SKkkuF3yzoInNR9QtziaruSK51Iia/lJ7dq1dvRbp1039TIZXkWQZ3tFZyrCTeptTz4rmqaOdrTTVMc2Yp003b9YmWbFFW0lyoqe42+pjqKWqiZPBNG7eZJG5EVrmqnNFRUVFPD45z7yhy2vTMO42xvR2y5PhbUJTvilkd1aqqIq7jXImu6vBePAxbyF2mH5FYRxXlLnGyWK74IbKtpidxdU+VolK1e3ynNcx3Lceq8EahjBmVTY8vdbQ5tY8V3X46mq6ym39UcsUStaioi8o/K3GJ3M7tFWpawPOrmK53dHazmR8l/urMrtjMbk02I3W6qdNbusc6Jp1iY05ka1cdOC5GPrp9FMb4hue9qlVdauZFTXTR0rlTTXj2nnXy+JrcKrr6yedZN7rJXv3l7dVVdThPlMjEaRo9tw+Hi1aptx0REeiFV8viUXyoUny+JRfKQXEW1V8q9hRdJ4lF0upSdJpzCPg1V8vep6fKt+A1x9Z1zKqJ4sPtnR1UsUav109Sj0TykYq6bytRV010Q8a+YoPlXvJJjWNFLEYX3RZqs86aedExrG6Y16Y7Y6EwVqq7XXW2lq7JUU09BLE11NJSua6F0enk7it4bunLTgcsjGyQ2ksaZL1zaamkW6Yemk3qm1TvVGp3vidx6t/ucF7UXRNJCMsc2ME5uWBt/wbdGztZolTSyaNqKV6/ayM14cl0VNWrouiqYm9YqtT2OYtqti8fszcm5V49mZ3Vx7Ko6J9U9E9D2IAKDTAAAAABYfaw2g6fJjB62qx1DHYrvcbo6FnBVpo+TqhyeHJuvN3eiKRlVNZPVzyVVVO+aaZ6ySSPcrnPcq6q5VXiqqvaZ4bW2yTiLMC7VeaOAbjUXG6uialVaKmXXfYxuiehnLwauia9WvBVVVRdV0XAiupqy2Vc1vuFLNS1VO9YpoZmKx8b0XRWuavFFRewyeF5kUeLx6XT/JXh8pt5Trga4qvTvudFUT0Rpx5sdE8J3z2RqshtWVE7eJx3Sd6mxZO9S6eq023IWU2LJqcdZO42rJrz4kVzRbchZV7zasnicdZDRZCOq4ooVlk/IbVkKKvNqyaEVzTQrrJ3qbVkKO8vaN7vI6rimlV317ztMM4cveMcQUGF8OUElZcrnO2npoI04ue5dPcRE5qq8ERFVeB0yKrlRE4rrpohJJsR7Nv72+HWZmYxoN3E17h/wAEhlb5VBSOTVE0XlI9OK9qN0Thq5ClevRZp1ni1XbXa3DbG5XVjLmk3J3UU/Oq/CONU9W7jMLu7P2SVlyLwBTYYoernudRpUXaua3jU1Cpx0XnuN9S1O7VdNXKXMBanaOz3s2Q+Apr7OsVReq5HU9noXLxnn09W5E49WzVHOXh2Jrq5DDeNdq7ZcW005ltXmuka3cRfq9Mz7IiPNER0RCzu3LtJ/uIssmUeC7hu3+7wf4zqIneVQ0jk9QipykkT32s1XgrmqR2t5nOv9+vGKL1W4iv9fLW3G4zuqKmolXV0kjl1VfDwROCJoicDgtMpatxap0h3BsRsjhtjcrpwNnfXO+ur51XT5o4Ux0R2zLcnM3GjeZqVm6Ut5ubyNpubyJoVaWqczenM2JzD5Y4U3pHaJ8ZHWI3yqTVTRTzqp0iFUHD+icW9puO3e85iKipqi8CFFyi55M6qWHxdjFa+BqidOLJzo+Lk6izwqqNNdLhY6mBf6L45P8A/mSPkX2w7UrBtIYchRmvoiCvjVdfU6Ukrtf+X85KCYzHRpd8zjnl8sRa2rprj5dmif8AVXT9wACzeJgAAAAAAAAAAAAAAWr2l9oTB+zLlJd80cXvSX0K3qLdQNkRstwrXovVQM171TVy6Lusa5ypo1QLe7bW2xg7ZDwTHMtPBe8a3pjm2WydejeHFFqZ9PKbC1e5NXu8lFTynNgbzVzYx/nXja4ZhZlYjqbzeri/V8sq6MiZ9rFExPJjjbyRrURE91VUqZv5t43zxzDvGZ2YV0WtvN5nWWTTVIoI04Mhiaqruxsbo1qarwTVVVVVV8aAAAAA9zlhkbnDnRXrbsq8t7/iaRjtyWSgonvghXh9dm0SOPmnF7kTigHhgZu4S6H3bBxJTNnu9PgzCznJr1V2vavengvoSOdNffPT13QqbTUMDJKHMLLOpk6vekjdX18ej9PUsX0IqO7eK7oEfYMqswujD2zcvqeaudlZ+6Ojg1V0+Hq+Gtc772BHJO73o1MY75Yb5hm6VFjxJZa+03GkerJ6OupnwTxOTmj43ojmr4KgHBAAAurs57SuaOzDj2HHOWt36vfVsdxtlQrnUdygRfrU8aKmvNdHIqOaq6tVC1Rnv0auwPNntfqfOjNi0vZl7ZqjWho5mKn0dq43J5OipxpmKi77vtlTcTXy1aEuuRWasWd2UmGM1YcM3PD7MR0Lav6H3GPdmhXVWrpy3mKqbzH6JvsVrtE10PeGyKKKCJkEEbY442oxjGJo1rU4IiInJDeAIjunB/htlV5sunytOS4kR3Tg/wANsqvNl0+VpwIyAAAJsOhd9ilf/wAeq/5jQkJ5Nh0LvsUr/wDj1X/MaEDPgAAAAAAAEUnTl/Z2TH4LEHx0BFkSm9OX9nZMfgsQfHQEWQAAATIdCbQrFkfjq5dYipUYmZCjNOXV0zF118es/MSMEeXQp+x6xj+Nr/mkBIaAAAG2T1DvcU+ZPPn18sxfxsu/zyU+myT1DvcU+ZPPn18sxfxsu/zyUDwoAAA3wQT1U8dNSwyTTSuRkccbVc57lXRERE4qqr2F0vpTtqf/AFac1f7G3H9iBaoF1fpTtqf/AFac1f7G3H9iPpTtqf8A1ac1f7G3H9iBaoF1fpTtqf8A1ac1f7G3H9iPpTtqf/VpzV/sbcf2IFqgXV+lO2p/9WnNX+xtx/Ymn0p21Mn/APGnNX+xtx/YgWrBcBdnnP5qq12R2YCKnBUXDNbw/wDLNPpe8/faPzA/szW/swJXOhT9j1jH8bX/ADSAkNMC+h7wXjHA+Q2LLdjTCd5sFXNil80UF0oJaSR8foWFN5rZGoqt1RU1ThqimegAAAC2u0DtA5c7NmXVdmRmRdEgpKf6nSUcSotTcKlUVWQQMVfKeunuNRFc5URFU9Xj3HWF8s8G3jH2NLpFbrLY6R9ZWVMi8GRtTXRE5q5eCIicVVUROKnz2bYW1fjLaxzSqcXXmWejw7b3Pp8O2ZX6x0NKqp5SonBZpNEc93fo1F3WtRA02rtsHNLazxk694wrH2/D9FK5bNh2nmV1LQM4ojl4J1syoq70rk1XVURGt0aligAAAAArUdHWXCqjoqClmqaiZyMjhhjV73uXkiNTiq+4XuwdsL7XmO4WVOH9n7FzYZERWSXGkS3Nei8lRapY0VPFOAFiwZSVfRhbc9FA6pmyKmcxmmqRYgtMruK6cGsqlcvvIWsx7stbRuWEMlVjvJLGVppIfV1klplkpW+7OxHR/wDMBa4AAAABfjZP2xM09kzGCXfCFYtww7XStW84eqpF9C1rE4K5v+amRPUyN5Lojkc3Vqz4ZFZ34E2h8tbZmjl3VzzWq4orHR1ELopqadunWQyNXhvNVdFVqq1eaKqKikE+xFsb4q2tsx22/SptuC7K9k2ILw1um5Gq8KeFVRWrO/RdEXg1EVyoumiz+YHwRhXLfCVqwLgiy01psdlp20tFR07dGRsTj7quVVVznLqrnKqqqqqqB3gAAgk6W72ZN38yW35NxhkZm9Ld7Mm7+ZLb8m4wyAAAD6GOjojji2K8rmRRtY36HVLtGpomq1s6qvvqqqZIGOPR1+wtyt82VHzycyOAAADRVRE1VdEQif6TXpDvok66bN2Rd7jfQq11Jiq/Ukmqyu1VH0MDk4bqaaSPRV11ViaaO19b0l/SIMwlBcdnjIi/sdfJmvpMT3yldr9D2KmjqSB6L9fXij3p9bTyUXf1VkRYAAAD0GAMAYwzRxha8BYCsNTeL7eJ0p6Skp26ue5eaqvJrURFc5yqiNRFVVREVSjgvBeKcxMU2zBOCbHVXi93iobTUVFTM3pJZF+JETVVVdEREVVVERVJ5dhHYewxsm4IbcrzDSXPMa9QJ9GbqxN5tMxdF9CU6rxSNqom85NFe5NV4I1Gh2OxDsVYO2SsCM6yKmuePbzAxb9eUTe0XgvoWnVURWwNX3Fe5N53JrW5MAAAAAAAAAAAAB57MT+AOI/NVV8k4hdJosxP4A4j81VXyTiF0y+WcKvM6H5EP0bGfSo9lQADKPdAAAAAAAAAAAV6CvrrXWwXK21k1JV0sjZYJ4ZFZJE9q6tc1ycUVF4oqEj+yFtVMzboWYCxzURx4uoYdYZ10a25xNTi9E5JK1E1cnanlJ2okbJ2OHcQXfCl9ocSWCuko7jbZ2VNNPGvFj2rqi+PuLwUt8Rh6b9Ok8ehqW1+yeF2swM2LsRF2nfRX00z/TPTHn4xCbIHhcks0bfnFltaMc0SMjmqouqrYGr9YqmcJGe5rxTXjuuavae6NdqpmmZpni45xeFvYG/Xhr8aV0TMTHVMTpIACC3DRVRE1U1MOdtbaklwvFU5P5e3Dcu1RFuXmvid5VJG5PrEbkXhI5F8pftWqmnFdW1bNqq9XzKWc2eyDF7S4+jAYON875nopp6ap7I9c6R0m1LtrRYXkq8vMoK2GouzdYa+9MVHx0buKOjh7HSJ2u4tby4u13cCa+vrrpWz3K51k1XV1MjpZp55FfJI9V1VznLxVVXtUoA2CzYosU6Uuutmdlcv2WwsYfB0+NPlVz5VU9vZ1Rwjv1kABWbKAG6KKWeRsMMbpJHro1rUVVVe5EQIcG0HpabLLMmsi66jy+xLPGq6b8dpqHN191GHWXbDWIrCu7fLBcrcqqrdKulkh493lInEliqJ3RKhRi7FyrmUVxM9UTGrrQATLgAAFw8ms9Me5IX9LvhG4q6kmc30dbZ1V1NVsTsc3sd3PTRyd+iqiyd5J55YLzzwu2/YYqOprIEa2422V2s9FKqcl4JvNXRd16JovgqK1IgT12VuZ+KcosY0eM8J1fVVNMu7LC9V6qphX1UUjUVN5q/mVEVNFRFLPFYSm/GsbqnnW3OwGF2psziLERRiYjdV0Vfs1dfZPGO7cmVB4zKPNXDWceCKLGuGZvqc6dXU0zlRZKWoRE34n+KaoqL2oqL2nszA1UzTOk8XKGKw17BXqsPiKZprpmYmJ4xMAAIKAeazLnipsu8T1M7t2OK0Vb3u0VdESJyqvA9KePzh9abGXmGv+QeTUb6oXmX0xVjLVM9NVPthDYADaXd4XL2afX8wH58pf00LaF19lWOOXaEwQ2RiORLmxyIqa8URVRfeVEKd34OruliM/q5uU4qf/jr/AIZS2AA1hw2AADGPpCaiSHImCJipuz3ulY/h2IyR3xtQjYJI+kO9Y2i8/U3ycpG4Z3L/AIHzuqeSCIjZuP3lf3AAL56kGTOxhtIOyrxMmBMXV6twnfJkRskjvJt9UuiJLx4Ix3BH93B3YqLjMCndt03aZoqYnO8mwuf4G5gMXGtNUeeJ6Jjtif70ThIqKiKi6opqYh7Dm0kuLrXFlBjW4b15tkP+J6iV3GrpmJxhVV5vjROHexP5uq5eGuXbVVmuaKnGm0GRYrZzMK8vxcb6eE9FVPRVHZPqnWOMAAKbCgAAwZ6TD7Jy7/B3X46UwiM3ekw+ycu/wd1+OlMIjYMF8BT5/a695MPiphPr/wC5WAAu2/JHujp9Y26/jPVfNqUylMWujp9Y26/jPVfNqUylNcxfw1Xe4y28+MuM+nIWX2x/Y4Yx/AU/ziMvQWX2x/Y4Yx/AU/ziMksfC098Mdsv+vMH+9t/xwikABszt4AAAAAAAAAAAAAAABIh0cfrT4h8/O+QiMszEzo4/WnxD5+d8hEZZmu4v4epxtyg/GbGfS+6AxS6Rv1nMP8A40QfNakytPM4+y1wRmhaYLHj2wRXehpqlKuKGSSRiNmRrmo7VjkX1L3Jz04lOzXFu5Fc9DFbM5payTN7GYX4mabdWsxGmvCeGsxHraZXetnhHzFQfN2GKvSCxyTYxykhiYr3vqq5rWomqqqyUfAzIttvo7RbqW1W6BIKSihZTwRIqqjI2NRrW6rx4IiJxPOY0yrwBmHcLRdMZ4bhudVYpHS26SSWRiwPcrFcqIxyIuqxs568iazdi1d589q92cz2xk2exml2mZojwm6NNfGpqpjjMRxmNd61efmyXh7OvHOHMZLVx299LM2G+IiKjq6jbqrWt0ThIi+TvLp5Ll57rUWw/SIW+itV8y9tdtpYqakpLbVwQQxN3WRxtWJGtanYiIiIZ8Hg8yMjMrM3Kuhrsw8LfRae2MfHSu9HVMHVteqK5NIZGouu6nPXkVLGJm3XTNe+IZPZfbS7lePwl3Mqqq7GHiuKaadJmOdTMdMxrvmOM7ojSEZzpPEovl8RWo2Cpmhaq7scjmprz0RdDiPlRORl3UVNGsawquk8Sk+VCi+Ve8oukITCbwaq+XxKL5Cm+REKD5e4gmi2qukKL5Sk+QovkISm8Gqvk73HcYLx9irLq/wYmwdeZ7dcKdfVxrq2Rvax7V4PauiatVFQ846UpPl17SWY1jSUt3C28Rbm1dpiqmY0mJjWJjqmEluz3tcYSzfZBhzESwWLFiojUpXO0grV74HO+2/2arvdyu4qmQBCc2ofDI2WKRzHsVHNc1dFRU5KimYuzntz1NrWmwZnVVSVVJ5MVNf9FdLCnJEqUTi9v+0Tyu9Ha6pj72F08ah4RtlyW3MPzsdkcTVTxm3xmPodcfs8erXhGdgOPb7hQXWhgudrrYKukqo2ywTwSI+OVipqjmuTgqKnahyCyeKTE0zpPFQra2jttHPcLhVRU1LTRulmmlejWRsamrnOcvBEREVVVTZbLnbr1b6e7Wivp62iq40lgqKeRJI5WLyc1ycFQwb27dpNKuafJHBVw+oQuT90FVC71b0XVKVFTsTgr/HRvY5CxOQW1HjvIm4spaSV12w1NJvVVnqJVRnHm+F3Hqn+KIqL2ouiaXNOGqqo53S9RyzkrzPM8ljMqKopu1b6bc7taejf0TPGIndpprMa7pZCyG0Hsq4Izxo5LnG2Oy4pjZpBdIY00l0TgydqadY3s19UnYunBfb5TZy4Czow63EOCLu2dGIiVVHLo2ppHr9rLHrw7dHJq1dF0VdD3BQiardW7dLRMNicy2Zx/PtTVavUTpPRMdkxPGJ6p3ShlzOyvxxlFiSTDGObNJRVKauhmb5UFVGi/XIpOT2/nTkqIvA8gsndwJoMxss8F5r4bmwrjiyw3Cil8pjl8mWCTThJE9OLHJ3p7i6oqoRq7R2yLjbI6ea/WtJr9hBz/IuMbPqtIirwbUsT1Pdvp5K/zVVGmRs4mLm6rdLpfYflKwW0fNweO0tYnhp8mv6Mzwn9md/VM9Fhlk1NqvKKvNN7xLrV61TQqrIN8o73iV6KirrlUNo7dRz1U7+DYoI3SPd7iIiqpDVWiIpjWeDZvaje4nsqTJLOiuhSoocosa1ES8nxWCre1ffSM6W+YGxthdHOxLg692lGruqtdb5oERddNPLanHgv5CHPjrU7OPwd6vwdu7TNXVFUTPo1dPvdxrrw4lPVS6uznkXes+sfwYcpesprRSaVF3rkbqlPAi8k7N9/qWp36ryRdIVVxTGsquPx+GynC3MbjKubbojWZ7PxnhEdM7oXi2HNmv8AfBvrM1MZ2/ew5Zpv8Aglb5NfVtXXVUXnGxeK9iu0Tjo5CR46zDWHLLhCwUGGMO0EdFbbZA2npoI04MY1PzqvNVXiqqqrxU7JVRqKqroicVUxV27N2rWXD+2u1uJ2xzSrG3d1uN1FPzafxnjVPXu4RDp8ZYvsGAsMXHF+J65lHbLXA6eeV3cnJqJ2uVdERE4qqoicyI7PXOW/545gVmMLur4aVFWC20W9q2kpUVd1ncrl5uXtcq9iIiXa21dpNc1cTrgDCFfvYUsM6o+WJ3k3GrbqiyapzjZxRvYq6u46t0xibzLvD2uZHOni6O5IdgP8PYT33zCn/ubsbonjRRPR2VVcZ6o0jdvbjVpobk5F3D22luabk5m1vI3N5kyrDcbk5G04tRWapuQrw7Xf3Ety7Tap1qUcVjLWBt+Euz3R0z3Ks9Y2LVrNHP8AzIcB73yO3nuVVU0BiL2IqvTv4NFzDNL2YVeNup6I/vjIdzTrvQRr/NQ6Y7qD6xH94nxF1l/lVMzsv8Lc7o9q+2xL7JbCn4O4fMZyUgi72IIJZdpLDMrG6thhr3v48kWjmb8bkJRCGO+Ejuc1/wDUFMTtRZ0/yKP47gACyeFgAAAAAAAAAAAADRVREVVXRE4qpA90nO1LUZ/561WEMP3Bz8G4BmltlAxj/qdVWIu7U1K6cHeU3q2LxTdZqnq1JWtvnPZ+z7sx4qxbbaz0PfbnElksrkVUclZUorUe1U+2jj6yVPwZ876qrlVzlVVXiqqAAAA5VqtVzvlypbNZbdU19fXTMp6alponSyzSuXRrGMaiq5yqqIiImqnFRFVdETVVJnOi52GqPKzCtDtDZnWhr8Z4gputsdJO3VbRQSN8mXReU8rV115tjcicFc9EDx2xv0R1jttDQZibU0C3C5SI2opsIRSqlPTJzT0ZIxdZX98TVRiaaOV+qtSSywYdsGFLRTYfwvY6C0WyjYkdPRUNMyCCFqckYxiI1qe4h2IAAAAW9zg2f8ms+rK6x5s5e2jEMXVrHDUTw7tVTIvbDUM0liX7xya9upcIAQtbXnRN4+ykgrceZCVFdjbCkDXTVFrkYjrvQMTiqtaxESqYnexqPTh5DkRXEfiorVVrkVFTgqKfVQYQbW/RdZabQ2LqTMHA1ygwPf6quY/ECwU29TXKBzk62Xq00RlSibyo5NEeq+XxXfQI49gjYiv21fjtLpf4aq35d2CZrrzcGorHVT+aUdO5UVFkcmiuX7Rq6rxVqOnqw7h6x4SsVBhjDNqprZabXTspaOjpo0ZFBCxNGsa1OSIiHR5VZWYJyWwFaMtsvbPHbbJZoEhhjRE35HfbSyORE35Hrq5zu1V7OR60AAABEd04P8NsqvNl0+VpyXEiO6cH+G2VXmy6fK04EZAAAE2HQu+xSv8A+PVf8xoSE8mw6F32KV//AB6r/mNCBnwAAAAAAACKTpy/s7Jj8FiD46AiyJTenL+zsmPwWIPjoCLIAAAJm+hT9j1jH8bX/NICQ0jy6FP2PWMfxtf80gJDQAAA2yeod7inzJ58+vlmL+Nl3+eSn02Seod7inzJ58+vlmL+Nl3+eSgeFAAHeYE/htYPOdN8o0+ow+XPAn8NrB5zpvlGn1GAAAAAAAAAAAAAAAAt3tDZu2zIjJbF2bF0RrmYftsk8ETuU1S7RkEX9OVzG/0gIxemB2q58TYup9mXB1zVLRh90dbiV0TuFTXKiOhp1VObYmqj1Tim+9vJYyNU7LE2I71jDEd0xZiOukrbreayavramT1U08r1e96+65yqdaAAADnwQzs2NOi2x7n5R0WYeblXWYMwNUaSU0LY0S6XSPsdE16K2GJeyR6Kq8N1iou8ntOi82CaDM6eDaIzkszanC1DOqYdtNQzWO51MbtFqJWr6qCNyKiMVNHvRdfJarXzDoiNRGtREROCIgFssmdmfIzZ/trLflRlxabLKjNyWvSLrq6fhx6ypk1ldrz03t1NeCInAucAAAAGPmfWwfszbQ0VRU4vy+pbZfZ9XfR6xtbRV2/p6p7mpuTL+Fa8iZ2tOjTzn2aoqzF9hVccYEgRZH3ahgVlTQx//NU+qqxE/wA4xXM0TVys1RCek2vYyRjo5Go5rk0Vqpqip3KB8rJdnZk2bsebUWaNDlzgmnWON3+EXS5yMcsFupEXy5ZFROf2rW/bOVqcNdUkj21eieoseXf98XZipbfZrtX1bEuuHJZG09C9JHIjqmncvCFW6q50Wm65NVZo5N1+YGyZss4H2Ucr6bA+GY46u71SMqL9eHRoktwq93RV15tibqqRs+1RVXi5znKHrsjsksBbPmXFryxy7tiUtttzNZJntb19bOqJv1EzkRN+Ryomq9iIjU0RERPfAAAABBJ0t3sybv5ktvybjDIzN6W72ZN38yW35NxhkAAAH0NdHX7C3K3zZUfPJzI4xx6Ov2FuVvmyo+eTmRwAj36SXpCocmbfWZG5L3prsfVkaR3a5QKjkscD267rXf6S5qpp9w1d7gqtPUdItt90GzfYJ8rctK6OpzMvFKjutajXx2OnfwSeRF1RZnJr1ca8uD3cN1HwgXO53G9XGqvF4r6iurq6Z9RU1NRIsks0r1Vznvc7VXOVVVVVeKqoFGoqJ6qeSqqppJppnrJJJI5XOe5V1VyqvFVVeKqbAAB2mFsLYixviK34SwlZqq63i61DKWjo6WNXyzSuXRGtRCnh/D98xXfKHDWGrVVXO63OdlLR0dLEsks8r10axrU4qqqvInK6PjYGtWy7h9uPcfRU1wzLvNMjZ3t3ZIrNA5ONNC7tkXlJInBfUt8lFc8Oy2A9hKx7KeE/3T4uio7nmTfIES4VjER7LZCqIvoSB3u+renqlRETyWoq5eAAAAAAAAAAAAAAAHnsxP4A4j81VXyTiF0mizE/gDiPzVVfJOIXTL5Zwq8zofkQ/RsZ9Kj2VAAMo90XE2d6GiueeOCbfcqOCrpai800c0E8aSRyMV6IrXNXgqL3KSqfvT5We1phX4Gpv1CLLZp9fzAfnyl/TQl4MPmVUxXGk9DnPlmxN+xmmHi1XNMeD6JmPlT1PKfvT5We1phX4Gpv1B+9PlZ7WmFfgam/UPVgx3Pq63jnvhjP82r7U/it/e9n7I/EMTorplRhZ2+miyQ2yKCTT8JGjXJ+Ux+zZ6PLB92pZ7llHd57HXtRzmW6uldPSSL2NbIuskfuqr/c7TMEFSjEXbc601MxlW12d5Nci5hcTVGnRMzVTPfTOsff1ShVxfg/EuAsQ1eFsW2ie23OifuSwTN0Xwc1eTmqnFHJqipyOmJItvHJ234xy0kzGt9Gxt8wqiSSStb5U9ErtJGOXt3Nd9NeWjtPVKRumdw1+L9HO6XVexm09G1eV042I5tcTza46Iqjq7JiYmPR0AALhtjMvo5cwpKLE2IMs6udfQ9yp0udG1y8EniVGyI1O9zHIq+ERnwRK7KWIH4b2hME1jH7vom5Nt6+KVDVh0/8wlqMFmFHNu6x0uWeV/LacFn8YiiNIu0RVP0o1pn1RAAaKqImqli8qWk2nM7afJDLSqvdM+N18uKrRWiFyIus7kX6o5O1rE1cveuidpFBcK+tutfUXS5VUtTV1cr555pXbz5JHKquc5V5qqqql7dsjNuTNLOGupqKoV9mwyr7XQNR2rXPa76tKnZ5T001Tm1jCxRn8HY8Db1njLrfk22Xp2eyim7dp/PXoiqrriPk0+aN89syAAvHogeoy7yzxtmriCPDWBrFPcax/lSK1N2KBna+V6+Sxviq8V4Jqqoh2WTWUGJ868bUuDsNsSNHJ11ZWPaqxUlOipvSO091ERO1yonaSr5VZTYMycwtDhTBluSCFuj6iofo6erl04ySv08pe5OSJwREQs8Vi4w8aRvl5zt1t/Y2TojD2IivE1RrEdFMddX3RxnriGPmUvR8YCw7DBc807lLiW5Jo51FTvdBQxr3appJLp3qrUXtaZM4YwNgzBNKlFhDClps0OmitoaOOHe8XK1EVy+K6qd4DC3L1y7OtcuZ842mzbPq5rx9+qqJ6NdKY7qY3R6A2TQw1ET4KiJksciK1zHtRzXJ3Ki8zeCkwUTpvhZ/MPZOyLzHglWvwTS2muk1VK+ztSkma77pUYm49fv2uMKc9tinMDKeCoxHhmR2KMOQ6vkmgiVKqkYnbLEmurU7Xs1TgqqjUJNjRURU0VNUUurOLu2Z46x1N42d5Qs72euRFN2blrpormZjTsmd9Pm3dcSg9BnFtjbItFT0Vbm1lZakgWHeqL1aoG6M3NNXVELU9SqcVe1OCpq5NFRdcHTN2b1N+nnUuo9m9pMFtRgYxuDnsqpnjTPVP3T0wAArNgXx2Ss958lsxoorpVOTDN+cykukar5MXHSOoRO9iquve1XJz00lQY9krGyRva9j0RzXNXVFReSopB8Se7Eebb8ycoobJc6nrLxhJzLdOqu1c+n0X0PIv9Frmf8Ad69pisxsf+7HneCcsezFM0UZ9h6d8aU3PZTV/LPfT1MhgAYlz+Hj84fWmxl5hr/kHnsDx+cPrTYy8w1/yDyajyoXuWfptn6dPthDYADaXdwXZ2UfZC4I85J+i4tMXZ2UfZC4I85J+i4p3vg6u6WG2i/U+L/d1/wylqABrDh0AAGL/SHesbRefqb5OUjcJI+kO9Y2i8/U3ycpG4Z3L/gfO6q5IPi3H06/uAAXz1EAAHNsl6umHLvR36yVstHX2+dlRTTxO0dHI1dWuRfBUJWtmvPm2Z7YEjurligv9u3ae70bF03JNOErU57j9FVO5UcnZqsTB7zJXN7EOSuO6LGVicssbF6muo1doyrplXy43ePai9jkRewtcXh4v0buMcGh7fbHW9q8v/NREYi3rNE9fXTPZPqnSetMODosDY1w/mJhS24ywvWJU225wpLE77Zq8nMcnY5rkVqp2KinemvzExOkuRL1q5h7lVq7ExVTMxMTxiY4xIACCmwZ6TD7Jy7/AAd1+OlMIjN3pMPsnLv8HdfjpTCI2DBfAU+f2uveTD4qYT6/+5WAAu2/JHujp9Y26/jPVfNqUylMYejyplp8iKyRX73ojEVVKiacvqNO3T/l/OZPGuYr4arvcY7dzE7SYyY+fIeex9gWwZk4Sr8FYnjnfbLk1rJ2wyrG9Ua9HJo5OXFqHoQUImYnWGr2b1zD3Kb1qqaaqZiYmOMTG+JjuY5fSC7PX8XXz4Ud/cPpBdnr+Lr58KO/uMjQVvdN750ti/xrtF/5tz7cscvpBdnr+Lr58KO/uKc+wBs+zRqyOmxBA5ft47nqqf1mqn5jJED3Te+dKMba7RROvu259qWMnpeuQv8ApmKvhGL9kR85j2ChwrmFijC9sWVaOz3mtoKdZXI56xRTvY3eVETVdGpquicSaEhwzs9eXHv4z3T53IZDAXq7lUxXOr1/kk2gzTOcZiaMwv1XIpppmOdOuk6vFgAyj3Ruiaj5GMXk5yISOWvo+8i6q2UlTUV2KVllgje9W18aIrlaironVcOJHLT/AF+P79PjJsrJ/kWg/wB1i/QQx2YXa7cU8ydOLxnldzzMclpwnvfeqt87n682dNdObpr3ayxx9L1yF/0zFXwjF+yHpeuQv+mYq+EYv2Rk2DGe6r3zpeK/452k/wDNufaYyel65C/6Zir4Ri/ZD0vXIX/TMVfCMX7IybA91XvnSf452k/8259p4HJ3JbB+R9hq8OYMluL6StqlrJFrZ2yv6xWtbwVrW8NGp2HvgClVVNc86ri13F4u/j79WJxNc1V1b5meMgAJVsAAAAAImMfUklrxxiG1y679HdauB2umurJnNXlw7DzrpF7y4e0fa3WLPDGNA9u6r7i6q08Jmtl1/wCctk5/ibDRPOpiXb+U3IxeAsX4+VRTPppiVR8uhSfKvapTfJ4lF8niTMjFtUdIUXyFN0ilFzyWUfBqj5O4ovk8TY+TvUovkQgmi2qOeUnSInaUnSL2lJ0i9+hImi0qulUouk8Sm6QpOkIJotr25AbVGOciq5lBE914wvNJvVNonkVEZqvF8DuPVv8AytXtTXRUyqzt248D0mUcNzyovTarEeIWvp4IZGIk1q0ROskmYuqI5u8iM5tc7im81qkcjnlNXlCuxRXVzpafm3J7kuc5hbzK/b0rpnWqI3RXpw58dO/p4zG6dY4cioqp6qeSpqZpJppXrJJI9yuc9yrqqqq8VVV46lBX+JTV/epsV/cVm8U29N0PTYFzDxflpiOnxVgm+VFruNMvCSJfJkb2se1fJexdOLXIqKSS7Ne2Tg/OqKnwxid1NYcZaI1KVz9KevX7qnc77b/Zqu93K5NdIslcq81NY55YJGTQSPjkjVHMe1VRWqnJUXsUo3bVNyN/Fqe1mwuXbXWNL8cy7EeLciN8dk/Op7J80xKdkp1FPT1lPJSVcEc0EzFjkjkajmvaqaK1UXgqKnYYA7M23xWWf0JgfPOqlrKLyYqXEOivngTkiVKJxkb/ALRNXp2o7XVM+bbcrdeKCnutpr6etoquNssFRTyJJHKxU1RzXN1RUXvQxtduq3OkuUtpdlMz2TxXgMdRunya48mrunr64nSY9DCLaY2CI6j0XjjIulbFL5U1VhzVEY7tV1Kq8Gr/ALJeH3KpwauH2X+T+Y+Z2K34LwhhesqLnTvVlY2WNYmUWjt1yzudokaIuqaLx1TREVeBNOcamttuo6iprKSgpoJ61zX1MscTWvmc1u6ivVE1cqIiIir2JoVqMTVTTpO9vGQ8sWb5Rl9WDxFEXq4jxK6pnWPpfPjq3xPXM9GKWUHR45cYVhgueaVbJiu6oiOfSRvdBb43dyImkkui9rlRF7WGUGHMI4VwfRJbcJ4btdmpU0+o0FJHAxdO1UYiar4qdsCjXcqr8qXn+dbT5ttDcm5mN+qvs10pjupjxY9AaOa17VY9qOa5NFRU1RUNQSMCtDmTso5F5oRSvvWB6S3V8mqpcbQ1KOoRy/bLuJuSL+Ea473JLJTCWRWDkwlhZJJ1kmdUVddO1vX1UirwV6pw0a3RqInBNFXmqqtwQTc+qY013Mxe2gzXEYH3tvYiuqzrE82apmNY4cejs4a79NQw+26dpZcH2qTJ/BNw3b3dIf8AG9TC/wAqjpXJ9aRU5SSIvuo375FMh878b33LjKzEOM8NWKW7XG20jpIYGJqjVVURZXJzVjEVXuROOjV90h3vd7uuJbzW3++10tZcLhO+pqZ5V1dJI5dVVff7Owr4e1z5509D1bka2ItZ9jJzjG6TasTpFPHnV8Y1j5tO6d/GdOiJcNORubyNpvMjDrmA3GiczcnEmhUphuTkFc1jVc9URDZLMyJPKXj2IcKSV8q6uXh2J3FC/iKbMacZY/MM1tYGObG+vq/FUnqXS+S3g3u7yiAYmu5VcnnVNJxOJu4u5Ny7Os/3wAASqEB3cSK2NjV5o1EOljbvvaxO1UQ7wymXRuqluOy9G65X3R7WSewDbVrc+Uq0ZvfQ+0VU+ui+Trux6/8Amace8koMCOjesqzYxxfiLc1SktkNFvacuul39Nf+4/MZ7lHGzrdcocueKjEbX3Lcf+3RRT6ud/MAAtHj4AAAAAAAAAAAAAiK6bLNJ9fjrAeTlJOnU2i3y3+tY1dUdLO9Yode5Wthl4d0ieBGYZM9JJjF2M9s7MWqbLvU9sqqe0wJvb24lPTRsemv4VJF07NdDGYAAAMoOjo2dKfaK2kbRbL9RJUYXwwz6O3tj26smiic1I4F70klcxqpz3N9U5H0DoiNRGtREROCIhHv0MWWEOG8hMR5m1NMja7F97WmiereK0dIxGsVF8ZZZ0VE+4Tn2SEgAAAAAAAAAAAAAAAACI7pwf4bZVebLp8rTkuJEd04P8NsqvNl0+VpwIyAAAJsOhd9ilf/AMeq/wCY0JCeZD7Pm3htAbMmCarL/Ky42SC0Vlylu0ra22NqJFqJI4o3KjlVNE3YWcPd7wPohBBX6bztk/x3hX4Bj/WHpvO2T/HeFfgGP9YCdQEFfpvO2T/HeFfgGP8AWHpvO2T/AB3hX4Bj/WAnUBBrQ9MLtg0ivWolwVW72miT2RU3fc6uVv59Tl+nJbXH8W5f/A0//UAXk6cv7OyY/BYg+OgIsi+W09ti5tbWsuHJc06awROwu2rbQ/QmjfT6pUdV1m/vSP3vrDNNNNOPPUsaAAAEzfQp+x6xj+Nr/mkBIaR5dCn7HrGP42v+aQEhoAAAbJl3Ynu7mqv5j5ic4611yzdxxcXsRjqrElzmVqcmq6qkXT859OtR9Yk+8X4j5gs0fXMxd59r/nDwPMAADvMCfw2sHnOm+UafUYfLFZ7lLZrtRXeCNj5KKojqGNfruucxyORF07OBIT6dpn77VGX/APVrf24EygIcKbpts9GTtdWZRYElhT1TInVkbl9xyyuRPyKdh6d7mp7R+FPhGp/uAl/BEB6d7mp7R+FPhGp/uHp3uantH4U+Ean+4CX8EQHp3uantH4U+Ean+4ene5qe0fhT4Rqf7gJfwRAene5qe0fhT4Rqf7iRfZAz4u+0pkNYs3r5YaOzVl2mq430dJK6SJiQzvjRUc7iuqN198C9AAAEafTW5ry2fLvBGTlvqnMfiO4S3e4NY7nT0rUbGx6dzpJkcnjCSWEF3S8Y1fija+rbCkyrFhSxUFs6tHcGve11S5dOxVSoZ7yIBhQAABdXZeyOum0XnlhbKm3K+OG61aPuFQ1PseijTfnk48NUja7RF5uVqdpaolX6ErKiHqMwM7K6kR0u9Dhu2zKnqU0SeqT3fsX3lXvAk+wxhqxYNw7bMJYYtsNvtFnpIqGipYU0ZDDG1GsanuIicV4r2nZgAAAAAAAAAAAAAAAAAQSdLd7Mm7+ZLb8m4wyMzelu9mTd/Mlt+TcYZAAAB9DXR1+wtyt82VHzyc8nt+7ddi2U8I/uZwu+nuWZF/pnrbKNXI5luiXyfRlQ37lF13GL6tzV7GuVLJ4M21MKbI/R4ZWyQNprtjq92mqZY7M6Tl/hdQi1VQiLvNgYqdmivdo1NPKc2JrHWOcV5lYuuuOsb3qpu18vNQ6qrKuoernPevYnc1E0a1qcGtREREREQDh4jxHfsX36vxRii71V0u10qH1VZWVUiySzyuXVznOXiqqp1wAA5dns91xBdaOxWK3VNwuNwnZTUtLTRLJLPK9Ua1jGt4ucqqiIiFKioqu41kFvt9LLU1VTI2KGGJiufI9y6Na1E4qqqqIiITW9Hb0dtBkJQUecOcNugrMxayLfoqJ6JJHYI3JyTsdUqi6OenBiKrW9qqHadHj0fVv2bbTDmlmdTw1uZdzp1RkSOR8VigenlQxqnB0zkXR8icE4sbw3nPzhAAAAAAAAAAAAAAAAAA89mJ/AHEfmqq+ScQuk0WYn8AcR+aqr5JxC6ZfLOFXmdD8iH6NjPpUeyoABlHui5ezT6/mA/PlL+mhLwRD7NPr+YD8+Uv6aEvBhsy8unuc2ctn60w37v+aQAGNeLgAA8vmjR09wy2xVQ1UaPhqLNWRSNXta6FyKn5FIZCXXaWxtSYCyQxZep5mxzTW+WhpEVdFdUTp1ceiduiu3lTuapEUZjLInmVS6O5ErNynL8Veqjxaq6YjviN/tgABk3tr2GTj3x5tYMfG5Wubf6BUVF0VF69nEmTIfdny1OvOeGBaBGbzXX6ikkTj6hkrXO5fzWqTBGHzOfHphzly210zj8LRHGKKvXV/wFvNoHH7sssnsT4wglRlXS0ToqNdU4VMqpHEunbo97V07kUuGYh9I7ip1vy8w3hGKXcdeLm6pkbrxfFBHxT3N+WNfeQssPR4S7TS802QyyM4zzC4OuNaaq41j9mnxqvVEo+XOc5yucqqqrqqrzVTQA2V2wGrGOke1jGqrnLoiJ2qaF49kjL+HMTPbDttrqfrqC2yOutW1URWqyBN5rXIvNrpNxqp3OJK64opmqehY5nj7eV4K7jb3k26ZqnzRrp52e+yjklTZM5YUkNbSo3EN8Yyuu0jm6PY5U1ZB7kbV00+6V69pekA1muublU1VcZcQ5nmN/N8Zcx2KnWuuZmfwjsiN0dgACVYAAAAADa9rXtVj2o5rk0VF5KhFvtiZJQ5PZnPqLHSdTh3EbX1tvaxujIJEX6tAng1VRyJyRr2p2EpRYbbVy8ix5kVd6yKBHV+GtLzTO04o2NF65NeeixK9dO9E7i7wd6bV2Oqdzf8Ak32hryHPLdNU/mr0xRVHRvnxZ809PVM9aLUAGwOvAyK2FMfS4Qzyo7JNPuUOKKeS3Soq8Ot034V0799qNT79THU7fB99qcL4ss2JaNytntVfBWRqi6Kjo5Ecn50Kd2jwlE09bEZ9ltOcZZfwNXy6ZiO/TdPmnSU1gKVLUwVtLDWUz0fDPG2WNycnNcmqL+RSqaw4cmJidJDx+cPrTYy8w1/yDz2B4/OH1psZeYa/5B5NR5ULzLP02z9On2whsABtLu4Ls7KPshcEeck/RcWmLs7KPshcEeck/RcU73wdXdLDbRfqfF/u6/4ZS1AA1hw6AADF/pDvWNovP1N8nKRuEkfSHesbRefqb5OUjcM7l/wPndVckHxbj6df3AAL56iAvdkBkC7PPBmPUtSOZf7DFR1FrertI5Hu63egf2eWjOC9itReWqLZeto6u3Vk9vr6aSnqqWV0M0MrVa+ORqqjmuReKKioqKhJFdNVU0xxhj8NmmGxeKvYO3V+ctTEVR0xzqYqie6Yn0xKiACdkGR2xztHuygxT+5LFNY79yN9makrnLwoKldEbOn81eCP8NF47uiyZseyVjZI3tex6I5rmrqiovJUUg+M+thjaSS/W+HJfGtw/wAY0MeliqZXcaiBqcaZVX7ZiJq3vamnDdTXF4/Da/naPO8K5V9ifD0Tn2Ap8aPhIjpj5/fHyuzf0TrmSADEOeWDPSYfZOXf4O6/HSmERm70mH2Tl3+Duvx0phEbBgvgKfP7XXvJh8VMJ9f/AHKwAF235JZ0ffrBv8+Vf6ERkuY0dH36wb/PlX+hEZLmt4r4arvcXbcfGPG/vKvaAAoNVAAAAAAhwzs9eXHv4z3T53ITHkOGdnry49/Ge6fO5DJ5Z5dXc9v5Ef07F/Qp9svFgAzDoxUp/r8f36fGTZWT/ItB/usX6CEJtP8AX4/v0+Mmysn+RaD/AHWL9BDFZnwp8/3PBOXDyMD33P5HNABiXP4AAAAAAAAAAAAAjy27LF9Cc547qxv1O8WqCdXac5GK6NU/qtZ+UxwdKZw9IbhdajC2F8ZRR6rQVstBK5Oe7Mzeaq+CLFp/S8TBR0i95nMLVzrMOxOTfGRmOzOFr6aYmifqzMR6tFR8nepRe/xNjpSg9/iV29eCVXyeJRdIpTdJ4lF8hCU3g1R8hSdIneU3SFNXkqPg29717Ci6TxCvKT1110JUYoauf4lNz/E2OcqFNXKvaSSnihvc8pq9ew2qq95tVV7yGqeKG5V71NquNNTbqSzUmiluVTTU0BTmtPFLXe7i+OzftTZiZG3aCz0HW33DdXOiTWOV66bzl9XTu4rHIvgitd2oq6KljS/uxBl1FmDn/ZXVsCS0OHWPvdQ1U4KsSokX/nOi1ReaalO5VE0zqwG1dGX+8uIuZpbi5appmqYnp0jdpPROu6JjfE8ErtHPJU0kFTLSy0z5Y2vdDLu78SqmqtduqqapyXRVThwVSsAY9wlM6zrAAAgAAAAANksUc0boZmNex6K1zXJqiovNFQin2v8AJCPJfNOZtnp+rw7iFr6+1oieTDx+qwJ945UVO5r2Jz1JWzHLbxy+hxjkXWX2KBHV+Fp47lC5E8rqlXcmbr3bjt5fFiFaxXzK+96dyTbTXNn9obVmqr81fmLdUdGs+RPfFXT1TKL9E4m40TkaPe1iauXQymum+XbMzFMa1TpDe0py1KM8mPivf2IUJKh0nkt4N+M2Fjfxmni2/S13H55prbwvp/D8RVVy6uVVVe0AGOmZnfLWaqpqnnVTrIACZKAAJoV6Jm/Us8OJ2xwLYzi+Tw3UOfzM1gqOba163oGz9nwWCiqflTM/d9yQzo7MNut+V1+xLJHuPu936lqr9tHBGmi+5vSvT3lMry1my9hNcG5DYPtUkW5NPQJcJdeauqHLMmvijXtT3i6Zjb9XPuVS4O29zOM32mx2LidYm5VEd1Pix6ogABSaiAAAAAAAAAAAaKuiKq9nE1NHIqtVE7UA+aLaaui3raOzSuqukc2pxleXs6zTeRno2XcRdO5uie8W1LgbQ1JNQZ/ZmUNQiJLTYwvMT0RdU3m1sqLx91C34AAAfQ10ddiiw9sX5YUUTWIs1tnrHq3jvOnqppdVXRNV0eie9p2GRxj7sAXCnuexxlZVU2u42yrAuunqo55I3clX7ZqmQQAAAAAAAAAAAAAAAAAiO6cH+G2VXmy6fK05LiRHdOD/AA2yq82XT5WnAjIAAAAAAAAAAAAAAAAAAEzfQp+x6xj+Nr/mkBIaR5dCn7HrGP42v+aQEhoAAAU6j6xJ94vxHzBZo+uZi7z7X/OHn0+1H1iT7xfiPmCzR9czF3n2v+cPA8wAAAAAAAAAAAAAE+/RaUc1LsR4CmlVu7Vy3OaPRftfR87OPjqxfzEBB9AvRi+wZyw/A3T/APtasDKMAAD51tvq8Pvu2LmpXyTMlVt8Wl3mqqppDFHCicVXiiRoi+KdnI+ik+b7bQpp6TawzYiqI1Y9cVV8iIq/aulVzV99FRffAswAABPJ0TuG4rDsYYbuEcW4t/udyuT1+7ck60+vPup0Ts5e+sDZ9AHRf1UFRsO5bxQybzqZt0ilTRU3XfROqdp48HNXh3gZUAAAAAAAAAAAAAAAAAACCTpbvZk3fzJbfk3GGRmb0t3sybv5ktvybjDIAAAK1VXVtb1Po2snqPQ8SQxdbIr+rjTVUY3Xk1NV4Jw4qUQAAAAr0NdW2utp7lbquWlq6WVs0E8L1Y+ORq6tc1ycUVFRFRUJ7+jy2yKLamysZa8TV0LMwsKwx097h4NdWxepjrmN7n8nonBsmvBqOYhASXDyCzwxns75pWbNPA9Tu1trl0np3qvVVlM7hLBIic2ubqnei6KmioigfTKDwmSGcuDM/csbJmngStSa23iBHOiVyLLSTpwlp5U7Hsdqi96aOTVFRV92AAAAAAAAAAAAAAAAB57MT+AOI/NVV8k4hdJosxP4A4j81VXyTiF0y+WcKvM6H5EP0bGfSo9lQADKPdFy9mn1/MB+fKX9NCXghdy+xjU5fY2suNqOjiq57LWR1kcErlayRzF1RqqnFEMpPTJ8ce1rY/8Ai5jG43DXL1UTRDxblN2MzjaXH2b+XW4qppo0nWqmN+sz0zDP4GAPpk+OPa1sf/FzD0yfHHta2P8A4uYsvcF/q9bzT8lO1H+RH26PxZ/HAvl9suGbVU3zEN0pbdb6RiyT1NTKkccbU7VVeBH3fekZzbroXQ2LCeGbWrm6da+Oaokave3V6N/K1SwWYecmZua1Q2fHuMK+6MY7fjp3OSOniXvbCxEY1fFE18Spby65VPjzpDM5TyN5xibsTmNdNqjp0nnVeaI3eeZ80rpbXO0smeGIILBhd0seEbLIr6bfarHVs+ios7mrxRERVRiLxRFVV4romPQBl7dum1TFFPB0RlGU4XI8FRgMHTpRRHnnrmZ6Zmd8gARFVdEKjJsltgPBc2Is8GYjfEq0uGqCerc9fU9bI3qmN93y3OT7xSS0x52JMopcs8pY71dqZYbzixzLhUNc3R0dOiKkEa/0XOf/AN5p2GQxr2MuxduzMcI3OQOUnO6M72gu12p1ot6UUz183XWftTOnZoEf3SR3R82PMJWdXLu0lrmqETs1llRF+SQkBI6ukaSf9+GxK5zOpXD0W4ieqR3oibe18NN3T3yfAR+fjzr7kloivae3M9FNc/6dPvYogAzzrEM0OjWscc2I8a4kViLJR0VLQo7tRJpHPVP/ACE/IYXmd/RpywLZcewtROuZU29z1047qtn3ePuo4tMbOlir++loPKfdqtbLYqaenmR5prpiWagANfchAAAAAAAABwL/AGulvdjuFnrWb9PXUstPK3vY9qoqfkU55sm+tP8AvV+IcE1FU0VRVTO+EI1fRzW6uqbfUJpLSyvhemmmjmqqL+dCgd1jb+Gd/wDOlV8q46U2qJ1jV3pZrm5bprnpiJDVFVFRU5pxNARVUyWTdyW8ZR4Kub5N+Sow/b3yO48X+h2b3Pj6rU9iW92evWNwL5ho/k0LhGr3I0rmHCmbURbzC/RTwiuqP9Uh4/OH1psZeYa/5B57A8fnD602MvMNf8g8hR5UJMs/TbP06fbCGwAG0u7guzso+yFwR5yT9FxaYuzso+yFwR5yT9FxTvfB1d0sNtF+p8X+7r/hlLUADWHDoAAMX+kO9Y2i8/U3ycpG4SR9Id6xtF5+pvk5SNwzuX/A+d1VyQfFuPp1/cAAvnqLOboz/sbMT8Javiqipt1bNyVUM2dmCbf9WiRPo/Sws9WxE0SqRE7U4I/w0d2Kq0+jP+xsxPwlq+KqM2aingqoJKaphZLDK1WSRvbq1zVTRUVF5oqGEv3qrGKmuns9kOYNqtocTszt3iMfhujmRVHRVT4OjWJ+7qnSUIAMgNrvZ0lyVxh9HMPUr1wjfZXPolRFVKObm6mcvcnFWKvNuqcVaqmP5mLdym7TFdPB0blGa4bO8Fbx+Dq1orjWOuOuJ7YndIcm2XOvs1xprvaquWlrKOVk9PPE5WvjkaurXNVOSoqIpxgTMhVTFUTTVGsSle2Yc/7dnrgZlTVSRQ4mtTWw3elbomrtPJnYn3D9F4fauRU5aKt5SHHKDNTEOTmOqDGuHpFV1O7cqqZXKjKqnVU34neCpyXsVEXmhLZl9jzD2ZmELbjXC9Wk9Bcoke1F034n8nRvTsc1dUVPDu0MFjMN4GrnU+TLlDlH2LnZnG+6sLT/ANtdnd+zVxmnu6aezd0MO+kw+ycu/wAHdfjpTCIzd6TD7Jy7/B3X46UwiMngvgKfP7XufJh8VMJ9f/crAAXbfklnR9+sG/z5V/oRGS5jR0ffrBv8+Vf6ERkua3ivhqu9xdtx8Y8b+8q9oACg1UAAAAACHDOz15ce/jPdPnchMeQ4Z2evLj38Z7p87kMnlnl1dz2/kR/TsX9Cn2y8WADMOjFSn+vx/fp8ZNlZP8i0H+6xfoIQm0/1+P79PjJsrJ/kWg/3WL9BDFZnwp8/3PBOXDyMD33P5HNABiXP4AAAAAAAAAAAAAtftM4KXHmSOKbNDGj6qGjWvpk01VZYFSRGp4u3Vb/SIn3SeJNdIxsrHRvRFa5FaqL2opEFnngaTLTNfEuDupWOno6576NNNEWmk8uLTv0Y5qe6imTy+vdNHndE8hmbRXRicornfGlynz6U1fy+l4l8niUnyd5TdIveUnPUyEug4tt7pPEpOf4m1z/cKTnkibmNznmxXmxzzYriWTwberymr01Nqqbd4hMpZobnORSmqduoVxtVy9xLO800bVXxNN7uNy8TYqKUqomOCaNDXUDRTXdUpTMyniGgRFU10Q1II6NETQzp6MKzQyV2PsQPj+q08NBRxuVvNsjpnvRF92Jmqe4YMIiqZ6dGFcmehcwLQ97d5H26ojbpxVNJ2uX3vI/KU7vkS885V5rp2Rxc0fsejwlOrOkAFm4wAAAAAAAADzOZ1phv2XGKLJU7vVV9nrKd+8uiaPhci8ezmemPN5lV0Fsy7xPcalVSGltFXNJppruticq8+HYRjiu8BVXTi7VVvjFVOnfrGiFJ9QicGJr4nHe5znauXVTVeehsXmVbt2q5xdy4vHXsVPjzu6uhq03GjTUtGMAAIAAEwAG+CNZpWx968fcJqaZqmKYVrNuq7XFunjM6Ozoo+rp2p2u8pT1mWmEajHmYGH8H0yP3rtcYKZzmpxYxz03n+41uqr4Iea5GVnR75frfszLjjypj1psM0ashVU/+JqEcxv5I0l9/Qz1cxYtbuiG3bV5tRsts7iMdE6eConm/SnxafTVMJC6enhpKeKlpo2xwwsbHGxvJrUTRET3ioAYJ875mZnWQABAAAAAAAAAAAAAAfOft3YYdhDa/zVs7o0jWTEEtw0RunCrY2pReSc+u19/t5lhzPrplcuZMMbSNmx7DAraTGNhjVZFTg+qpXrHImvbpG+n/ACmAoAAATjdEBmHDizZQbhF86LVYMvdXQdUrtVbBMqVDHadiK+WZPdapnEQi9ERn5T5Y7QFRljfa5ILPmNTsoYle7RjbnEquptfF6OliRO10rSboAAAAAAAAAAAAAAAAARHdOD/DbKrzZdPlaclxIi+nAnhdjzK2nbI1ZY7VcnuYi8WtdLAiKvu7q/kUCMsAADu7LgfGuJKR1fh3B97ulMyRYnTUVvlnjR6Iiq1XMaqa6Ki6eKHSE2HQu+xSv/49V/zGhAh5/enzT9rTFXwNU/qD96fNP2tMVfA1T+ofT8APmB/enzT9rTFXwNU/qD96fNP2tMVfA1T+ofT8APmB/enzT9rTFXwNU/qD96fNP2tMVfA1T+ofT8APlrvuFMU4XWFMS4autpWp3up9HUckHW7um9u76Jvabya6ctU7zqyU3py/s7Jj8FiD46AiyAAACZvoU/Y9Yx/G1/zSAkNI8uhT9j1jH8bX/NICQ0AAAKdR9Yk+8X4j5gs0fXMxd59r/nDz6faj6xJ94vxHzBZo+uZi7z7X/OHgeYAAFSlpamtqYqOip5aionekcUUTFe+R6rojWtTiqqvBEQ939L3n77R+YH9ma39mcHJn13cFfjBb/nDD6dwPmW+l7z99o/MD+zNb+zH0vefvtH5gf2Zrf2Z9NIA+Zb6XvP32j8wP7M1v7MfS95++0fmB/Zmt/Zn00gD5lvpe8/faPzA/szW/sx9L3n77R+YH9ma39mfTSAPmW+l7z99o/MD+zNb+zJ1ejjw/fsLbF+XFhxNZK+0XOliuaT0VfTPp54t651Tm70b0RzdWuaqapxRUXtMlAAAAA+fDpJcOPw1tp5k03Vo2Ksq6SviVOTkmo4XuXmv26vT3u7Q+g8hn6afLx9jz0wjmNDAjKbFFgWie5rfVVFHKu85V71jqIk9xoEd4AAE2HQ1Y7gxDsz3fBj50dWYWxHMix72qtpqiNkka6dmr2z/1SE8zq6IbPKny02iqjLm81fU2vMWjS3xqq6NS4wqr6ZV++RZo0/nSt8QJvgAAAAAAAAAAAAAAAAABBJ0t3sybv5ktvybjDIzN6W72ZN38yW35NxhkAAAAq0lJVV9VDQ0NNLUVFQ9sUUUTFc+R7l0RrUTiqqvDQ2wwzVMzKenifLLK5GMYxNXOcvBERE5qTGdHB0czMrI7dn1npaEfjKRramxWSduqWZqpq2eZq86lU4tav1rmvl/WwivzjyHzVyCvVuw/mvhKpsVbdrdDc6Rkqo5HwyJy1RVRHtXVr2L5TXJoqcU18AfRFtubKFj2sMn6rC6tp6bFVnR9bhu4yJp1FVu8YnuRNeqlREa9OP2rtFViHz3Ykw5fcH4guOFcT2ue23e0VUlFW0k7dJIJo3K17HeKKi8uHcB1wAAzB6OPbNqdmLM1MLYurZHZeYunjgurXKqpbqj1MdaxOxG66SInqmcdFVjEJ4qapp6ynirKOojngnY2SKWN6OZIxyao5qpwVFRUVFQ+Vwlw6JrbUXENsp9l7Mu7q6526JzsJVtRJxnpmpq6hVV4q6NEV0f8xFbw3GooScAAAAAAAAAAAAAAAA8tmrUuosssWVjGo50FlrZEReSqkLlIZSZPOH1psZeYa/5B5DYZfLPJqdFciMR7jxc/tU+yQAGUe4gAAAAAAAABvggmqZmU9NC+WWVyMYxjVc5zl4IiInFVCEzpvlsMmtjjZnq80sRQY+xfbnNwjaJkexkreFyqGrwjai842qnlryX1Paunf7O2wtiHFVRS4tzipaizWRqtlhtKruVlYnNEkTnCxe1F8tePBvBxn9aLRa7Ba6Wy2WggoqCiibBT08DEayJjU0RqInJDGYvGxTE0W539bxPlB5S7GFs15Xk1fOu1bqq44Ux0xTPTV2xup7+HLRERERE0RDUAw7nEMAOkltToMb4PvSs0bWWyopkdx4rFI12nd/2v5zP8xK6RjCr7lllYsWQxq59luvUyr9zDOxUVf67I098usFVzb9LfeTPGRg9p8NNU7qudT9qmYj16I8QAbC6+DMLo3sSR0eOsVYVkl3fonbIqxiKvBzoJN3TTv0mcvuIph6XG2ecxEytzgw3i+eZY6OGqSnrl7PQ0qLHIqp26Ncrk8UQo4ijwlqqmGtbYZXVnORYrB0RrVVTMxHXNPjRHnmIS+g2seyVjZI3tex6I5rmrqiovJUU3GtOKQAAAAAAAA63Et4psP4dul9rXaU9uo5qqVddNGMYrl4+4h2Rj1tx5jR4IyPr7NT1KMuOKXpa4GovFYV4zrp3dWit916FS1RNyuKY6WVyPLa84zKxgbfGuqI82u+fNGsoxqqplrKmarndvSzyOkeve5y6r+dSkAbO7liIiNIDVrVe5GpzVdDQ9PljhaTG+YmG8JRxud9FbnT0r93mjHSIjne4jdVX3CEzFMaypYi9RhrVV65OlNMTM90RrKXTKy1vsmWWEbNI3dfQ2Kgp3oqaLvMp2NXXx1RT1BtYxsbUYxqNa1NERE0RE7jcatM6zq4QxF6cRervVcapmfTOoePzh9abGXmGv+QeewPH5w+tNjLzDX/IPI0eVCvln6bZ+nT7YQ2AA2l3cF2dlH2QuCPOSfouLTF2dlH2QuCPOSfouKd74Orulhtov1Pi/3df8MpagAaw4dAABi/0h3rG0Xn6m+TlI3CSPpDvWNovP1N8nKRuGdy/4HzuquSD4tx9Ov7gAF89RZzdGf9jZifhLV8VUZumEXRn/AGNmJ+EtXxVRm6a/jvh6vN7Icg8p/wAa8X9T/boebzDwBhzM7CFxwViqjSeguMSsVU4PienFkjF7HNXRUXw7UIk83crMRZOY6r8EYjjVZKZespqlGqjKuncq7krPBdFRU46ORydhMgWY2ocgLfnpgWSCjiihxNaWvntFU5ETV2nlQPX7h+iJ4KjV46aLNg8T4Grm1eTK+5ONtJ2ZxvuXFVf9tdnf+zVwiru6Kuzf0Iowcm5W2vs9xqbTdaSWlrKOV8FRBK3dfFI1dHNcnYqKiocYzrq6mqKoiqmdYkMg9kHaLmyYxh9AMQ1T1wjfpWsrEVVVKOZeDalqd3JH6c28eKtRDHwEty3Tdpmirgx+b5Ths8wVzAYynWiuNO2OqY7YnfDNrpK5oaiTLiop5WSxSw3R7HscjmuavoVUVFTgqKnaYSnrsVZnYkxlgzC2DL/OtTDhH0XHQTvcqyJBP1WkK97WLF5PcjtOTUPIlPD25tW4ono/FjNkMmu7P5Pay29Os25r3x0xNdUxPniY3dHAABXbKks6Pv1g3+fKv9CIyXMaOj79YN/nyr/QiMlzW8V8NV3uLtuPjHjf3lXtAAUGqgAAAAAQ4Z2evLj38Z7p87kJjyHDOz15ce/jPdPnchk8s8urue38iP6di/oU+2XiwAZh0YqU/wBfj+/T4ybKyf5FoP8AdYv0EITaf6/H9+nxk2Vk/wAi0H+6xfoIYrM+FPn+54Jy4eRge+5/I5oAMS5/AAAAAAAAAAAAAAwd6RjLRzXWDNi303k6LaLk5qJ4vgcv/mNVV72IZxHkc2svqDNPLq+4EuO61l1pHRxSKmvVTJ5UUmn817Wu94q2LngrkVNq2Kz+dms8sZhPkROlf0Kt1XojfHbEIaHSFJzzmXy03HD14rrDd6Z9PXW6okpamJ3NkrHK1zV9xUU69XGcmXdtHNrpiuidYnfEiuNiqHKpsVdCnMpuaK42uUKvabVXUkmUs0ir3m1dO8LqaENUnNaKvYac1N2iGmncQSTDTRe40N5pohGISTDTTgo3Tdoa6KRmmJ4msxwbNDVEQ3JzNVRFJJtR0Ixd04w2mUHR643iwvnkuHquXdgxPbpqJiKujUnYqSsVfFUje1PF5jCiadp2uF8RXPCGI7ZimzT9TX2qrirKd/dJG5HJr4aoS12pmNGH2iy+3nuU4jLat3hKZiJ6p+TPmnSU4gPI5UZkWXNrAFnx5Y3NSG5QI6WHeRzqedOEkTvFrkVPFNF5KeuMXMTE6S4OxOHu4S9Xh79PNrpmYmJ6JjdMAAIKIAAAAAFj9s7HLMDbPeJpGVDI6u9xNstM1yarItQu7IieKRda7+iXwI1+kDzmixvmJTZb2OsSW1YS3vRSsdq2W4PTR6cF0Xq26N70c6RCamNZbnsDktedZ5Zo08S3PPq7qZ1iPPOkedievNTYbl5KbSFUusKm5ORqaJyNSiogAJoAABGA59ti0R0ypz4IcKNiyPaxvNy6HcxsbGxGN5NTQv8AA2udVz54Q2bZzB+FvTiKo3U8O/8A4j7m5EVV0QlP2PstVy3yStDKuDq7lfv8cVmqcU61E6pq68U0jRmqdiq4wD2aMq35u5uWfDk8KvtlM/0fc3aKqJTRKiuavdvrusRe96Es7WtY1GMajWtTRERNERO4rY65wtw8d/6gtpopt2NnrM75/OV90axRHnnWZjsplqADGuXQAAAAAAAAAAAAAAAGEnS15KS5n7Mc2NLTSLNdcvaxt5TcRVc6icnV1TfvWtc2VfCH3lgyPqbvVntuIbPXWG80kdVQXGnkpaqCRNWSxParXNVO1FRVQ+cPawyAvGzTnniPK+4RyuoKedauzVL/AP4q3SqqwP17VRNWO/nseBaAAAcm13O4WW5Ut4tNZNSVtDMyop54Xqx8UjFRzXNcnFFRURUVD6DdhXa3su1blDTXWqqYIca2BkdHiSgaqIqTaaNqWN/zUuiuT7lyPb9qir89JcDIzPPMTZ4zDt+ZWWt4dRXKiXcmhfq6nradVTfp52apvxu0TVOaKiORUciKgfTQDG/ZJ26coNq2xwU9puENhxpDEjq/DVbO1J0cieU+nVdPREXPympvInqmt4a5IAAAAANOXFQNS0m0dtRZSbLeEI8WZoXmSN9Y9YrdbKNiS1te9NN5Io1VE3WoqK57lRqapquqtRbDbX3Sc5SbPlPW4Ry6qaLHOPmI6L0LTTb9BbZOWtVMxdHORecUa72qKjlj4KQvZuZw5iZ543rcwsz8SVF5vNb5PWSLpHBEiqrYYWJ5McbdV0a3hxVeKqqqH0qZf4/wjmlg204/wJeoLtYr3TpU0dXDro9q8FRUXi1zVRWuaqIrXIqKiKh6EgF2FNuvFmydixLLenVV4y5vE6LdbUjt59I9dE9F02q6NkRETebwSRE0XRUa5s72CMb4TzIwnbMcYHvtLeLHeIG1NFW0zt5kjF/O1yKio5qoitVFRURUVAO8AAAh56bf13cvPxfqfnCEwxDz02/ru5efi/U/OEAjdAAAmw6F32KV/wDx6r/mNCQnk3fQ10KUeyXcZkkV3ozGVwnVNNN3/BqRmnj6jX3wM7QAAAAAAARSdOX9nZMfgsQfHQEWRJ104U0rsY5UQOlesbLddnNYrl3WqslNqqJ2Kuia+4ncRigAABM30KfsesY/ja/5pASGkeXQp+x6xj+Nr/mkBIaAAAFOo+sSfeL8R8wWaPrmYu8+1/zh59PtR9Yk+8X4j5gs0fXMxd59r/nDwPMAAD2OTPru4K/GC3/OGH07nzEZM+u7gr8YLf8AOGH07gAAAAAAAAAAAAAAws6WTJiTM/ZbrMV2ylWW6Zf1jL6zdTVzqTRY6lv3qMf1q/gUM0zh3m0W6/2itsV3pY6mhuFPJS1MMiatkie1WuaqdyoqoB8sYLt7VmQ112bs9cTZW10cy0VHULU2iokT7Jt0qq6CTX7ZUbqxypw32PTsLSADl2e73PD92or7Za6ajuFuqI6qlqIXqySGVjkcx7XJxRUVEVFQ4gA+irYq2pbFtV5MUGMIp4IsT2xrKHEtvYui09YjfriN7I5URXs7E8puqqxS/wAfNhsy7SmP9lvM2jzEwNUddH9Yulrlkc2nuVKq+VFJpyXta7RVa5EXjxRZ7Nmnaqym2pcGx4my8vUbbhDG1bpY6iRqVtukVE1R7Obmaro2Rvku8F1agXjAAAAAACy20rtcZM7LWGn3jMXEUb7tNEr7dYKN7ZLhXu7NyPXyGa85H6MTvVdEULkY/wAwsE5WYTr8c5h4mobDYrZH1lVW1km6xickaic3OVdEaxqK5yqiIiqqIc/DmI7Di+w0GKML3elulpulOyqo6ylkSSKeJyatc1yc0VD549rDbKzW2tcVNuWMKpLZhyglc60Ydo5F9C0aLw33rwWaZU5yOTtVGoxF3S6fR/8ASAX7Zgv0WAcfVFVdMsrpUazQprJLZpXLxqKdO1irxfGnP1TfK1RwTtg63DmI7Di+w0GKML3elulpulOyqo6ylkSSKeJyatc1yc0VDsgAAAgS6VieabbVxeyWRzmw0VsZGir6lvoSNdE8NXKvvqYiGXHSqezYxn/uls+ZxGI4AAASydFpsHYZWwWTanzObS3esrHOqMK2vTfhourkcz0XMi8HTb7HbjeTNEdxcqbkohjj0dfsLcrfNlR88nMjgBGh0suxb+62zT7T2WtpV16tECNxXSQM1dWUbERG1aInN8TU0evbGiLw6vjJeU6ingq6eSlqoWTQzMWOSN7UVr2qmioqLzRUA+VsGYPSP7GsuzHmf+6nB9A5MvMXzvlte41d221PF0lE5exETV0fezVOKsVVw+AHOsV8u+Gb1Q4iw/caigudsqI6ukqqd6skgmY5HMe1ycUVFRFRTggD6FdhTa6s21hlJBdayaCnxtYGx0eJKBujfqunkVUbU/7KVGqqJp5Lke3kiKuSZ82Gy/tFYv2Yc3LTmbhWV8kMLkp7rb1eqR3Chc5Othd4qiIrV47r2tdouh9EuVuZuEM4sA2XMnAlzbXWW+0zamnkTTeYq8HRvT7V7HIrXN7FaoHqgAAAAAAAAAAAAHj84fWmxl5hr/kHkNhMnnD602MvMNf8g8hsMxlnk1Oi+RH9Cxf06fZIADJvcHIt9uuF3rIrdaqCoraud27FBTxOkkkXua1qKqr7h6L96jNL2tcVfA1T+oev2UfZC4I85J+i4lqLHFYucPVFMRq8t265Qr+yGNt4W1Yi5FVPO1mZjpmNN0T1IYp8r8y6WJZ6nLvE0UbdNXvtFQ1qe+rDi/uExv8AyNvnwdN+qTTgtvfOr5vraVTy34nTxsHT9uf6UNdJk7m5XSJFRZW4uneqa7sdkqXLp38Gcj2uHtj/AGisSPalPltWUUar5UtxmipUYnerZHI5feaqkr4JZzKueEQtMRy2ZpXTph8Nbpntmqr2TSwJwL0b+Jap8dTmNjyht8XN1LaYnVEqp3LJIjWtXxRr0MqMrdm7KDKBGVGE8KxSXJif5UrlSoq1XvR7k0j9xiNTwLnAtbmKu3d1U7mh51tznuf0zbxd+eZPyafFp88Rx+tMgALdqQAAB4XPHATczcqMS4LRjXT19C/0LvJwSoZ5cSr7j2tPdAjTVNMxVHQuMJirmCxFGJszpVRMVR3xOsIP5oZaeZ8E8bo5I3Kx7HJorXIuioqd5sMhNtjKKXLbNyqv1BTObZcWK+4070bo1lQq/V49e/eXf9yRE7FMezZrdcXKIrjpdwZNmlnOsBax9ifFuUxPdPTHfE6xPcAAqMmkn2H8+oMxcCx5eX+tRcR4YgbHHvu8qroU8lj071ZwY7w3F4qqmThCvgzGWIsAYmoMXYVuMlFc7dKksMrF597XJ9s1yaoqLwVFVCUTZ62l8HZ72ZkUUkVsxNTRotdaZH+UuiJrLDrxfGq++3kvYq4TG4WbdXhKOE+pzFymbCXcpxVebYCjWxXOtUR8iqeP1ZnfE8Indu3a3kABj3kIAAABTqKiCkgkqqqeOGGFiySSSORrWNRNVVVXgiInaEYiZnSGlTU09HTy1dVMyGGFiySSPcjWsaiaqqqvJEQip2r87v368zpq21zOdh6yNdQ2lOKJI3X6pPp3yORNOXktZqmupdja82v4Ma09VldlbXuWxuVYrrdY1VPR2i6LDEv+Z+6d9vyTydd7D8zOBws2/wA5XxdJcluw13KI9+Mxp0u1RpRTPGmmeMz1VTw06I4750gADJPaAyo6PjLx2I81qzHNVDvUeFaNVjcqIqeip0VjE49zOtdr2K1DFmNj5XtjjarnvVGtRE4qq9hLFssZR/vP5RWyzVsHV3i5/wCMrpqnlNnkamka924xGtVPukcvaWWOu+DtTHTLzblSz6nJ8irw9E/nL/iR3fLnu03d8wu+ADAuTQ8fnD602MvMNf8AIPPYHj84fWmxl5hr/kHk1HlQvcs/TbP06fbCGwAG0u7guzso+yFwR5yT9FxaYuzso+yFwR5yT9FxTvfB1d0sNtF+p8X+7r/hlLUADWHDoAAMX+kO9Y2i8/U3ycpG4SR9Id6xtF5+pvk5SNwzuX/A+d1VyQfFuPp1/cAAvnqLOboz/sbMT8JaviqjN0wi6M/7GzE/CWr4qozdNfx3w9Xm9kOQeU/414v6n+3QAAtGhMNNujZuS+UM2dGCrfrcKKNPo5TRM41EDU0SoRE5uYmiO72oi/a8cBycGWOOaN0MrGvY9Fa5rk1RUXmikZe2Ns4vyfxX+6zC9G5MI36ZVha1OFBUrqroF7mrormeCK37XVcvgMTr+ar834OhuSjbbw9EZDj6vGj4OZ6Yj5HfHyezd0RrjkADKPdQAAAABJZ0ffrBv8+Vf6ERkuY0dH36wb/PlX+hEZLmt4r4arvcXbcfGPG/vKvaAAoNVAAAAAGjl0RV7kIas3alazNfGlYrNxZ8Q3KTd1103qmRdPzkyj/UO9xSGTND1y8W+fa/5w8yeWeVU9y5EYj3Xi5/Zp9svMgAzDolUp/r8f36fGTZWT/ItB/usX6CEJtP9fj+/T4ybKyf5FoP91i/QQxWZ8KfP9zwTlw8jA99z+RzQAYlz+AAAAAAAAAAAAAAAAjx6QnJh2HMW0mbtmpkbbsQK2luSMThHWtb5L17kexv5WKq8XGHqr2k0+Z2X1lzTwJeMCX9mtLdadYkejdXQyJxjlb/ADmvRrk8UIdceYKvuXeL7rgnElP1NxtNQ6CVOxyc2vb3tc1WuRe5UMlhr3Oo5s8Ydecje1sZ5lPvViKvz2HiIjrqt8KZ+r5M9nN63n9TaviblTQ0VCtM6vY5ht0Nqopv0NCEQpzDaaKmpvVNTRUIpJhsVNAid5uVDVE1JtEkw2KncN03qi9hpopGISaNNORqa6cdNDRUJksw0046mpqiGmi6hTmGqIF05GqdwVOIU5hkTsfbTMuR+KH4exNPI/B18lb6LTi70DNwRKlrU14aaI9E4q1EXirUQlFoK+iulFT3K21cNVSVUbZoJ4Xo+OWNyatc1ycFRUVFRUIMtOGpfzZz2ucb5EyMsVZG6/YTkerpLbLJuvplVeL6d667i9qtXVq8eCKu8WeIw/P8ani8Y5RuTWc/rnNMqiIv/Kp4RXpwmJ4RV0b909cTG+VkFvcqs+8rM5aFlTgjE9PNVq1XS2yockVbDpz3oVXVUT7pu83xLhGPmJpnSXM+LweIwF6cPiqJorjjFUTE+iQAEFsA4V4vVnw9bprvf7rR22hp2701TVzthijTvc9yoie+ph3n70g1itNNU4ayPal0uDmrG++VEKpTU6rw1hjeiLK5OPFyIzVEXy0JqaZq4M7kezeZbRXvA4C1NXXVwpp76uEd3GeiJXD2vNqK35LYblwrheshnxpdoXMga1zXfQ6NyaLPImvB2i+Q1U4qmq6oiosXVRUT1dRLVVMz5ppnOkkkkcrnPeq6q5VXiqqvHU5N4vN1xFdqq+X24VFfcK2R01RU1EivklevFXOcvFThdilTm83c6i2U2Uw2ymC8Ba8a5Vvrq65+6I6I754y2ryNpud2GicyjVwbHU3AApxCkAAiABVpoFnkRvYnFV8Caima6opp4q9izXiLkWrcazLlW6n0Tr3JxXg05xoiI1EaiaInBC9eyjklLnLmZTxXGmc7DtkVlbdX6Luvai+RBr3vVNNOe6j1TkZ6mmnD29OiG9YzGYPZXKbmMxVWlu1TNUz193bM7ojrmIZg7D+Ta5d5Zpi+8U25esWoyqVHN0dDRp9ZZ4b2qvXvRzNeKGSBtYxkTGxxsaxjERrWtTREROSIhuMLcrm5VNUvn3tFnmI2kzS9mmK8q5Vrp1RwimOymNIjuAASMKAAAAAAAAAAAAAAAAGIXSP7HqbT2U6XzCFFGuPsHMkqrRpo11fAqIs1G5385Go5mvJ7UTVEc5TL0AfK3U01RR1EtHWU8kE8D3RyxSMVr43tXRWuReKKioqKilMl06S/o7qnGsty2isirN1l9axajEtgpY/KuCN1V1ZTtTnOierjT64ibzfL1SSItUVqq1yKipwVFAAADkW643Cz19PdbTX1FFW0kjZqepp5XRyxSNXVr2OaqK1yKmqKi6oZrZIdLhtMZX09PZsdLbsx7TAiMat31huDWJ2JVxpq9e90rJHL3mEIAmRwl02eRVfBEmNsqMcWWpfoj0tzqS4QsXhx33yQuVE48ma8OR6ip6ZjZLggdLFYsxalzeUUVnpkc73N6pRPyqQjACWrHnTfYTghkhyxyLu1dK7VI6i/XOKlazuVYoWyq73Osb7phbn30ie1FtAU9RZr7jVuHcP1KK2SzYcY6igkYvNskm86aVFTm18itX7lDGcAAAAMrthTbrxZsnYsSy3p1VeMubxOi3W1I7efSPXRPRdNqujZERE3m8EkRNF0VGubiiXU2cNm/MjaezFpcvsvLartVSW43KVq+hbbTa6OmmcnJO5vNy6IiKoH0c4KxrhbMXClrxxgm9U13sd6p21VFWU7tWSxr7vFFRUVFaqIrVRUVEVFQ7stls6ZBYN2acqrXlVgmWqqKWiV09VV1T1dJV1T0TrZlTVUYjlRNGN4IiInFdVW5oAh56bf13cvPxfqfnCEwxDz02/ru5efi/U/OEAjdAAAnF6Hf2Ikn41XD5KnIOicXod/YiSfjVcPkqcDOMAAAAAAAER3Tg/w2yq82XT5WnIyCTfpwf4bZVebLp8rTkZAAAATSdCvRSR7NWKrir2qyfGVRC1vaiso6VVVf/ET8ikghgP0LvsUr/8Aj1X/ADGhM+AAAAp1H1iT7xfiPmCzR9czF3n2v+cPPp9qPrEn3i/EfMFmj65mLvPtf84eB5gAAd5gXEEOEsaWHFNRTvnitFypq58TFRHSNika9Woq8EVdNCWL073Kz2j8VfCNN/cRAgCX7073Kz2j8VfCNN/cPTvcrPaPxV8I039xECAJiKHpucmZHOS5ZNY0gaieSsFRSSqq+KOezT85y/TtMgvaozA/q0X7chsAEyfp2mQXtUZgf1aL9uPTtMgvaozA/q0X7chsAEyfp2mQXtUZgf1aL9uPTtMgvaozA/q0X7chsAH0Q7Im2rgLbEhxVNgfCl/sqYTdRNqUuyQp1volJlZudU93LqHa66c00MhyLLoNPsHOb8Nh/wDRryU0AAAML+k02PpNo7KpmNsE21Jce4KikqKOONv1S40S+VNSeLuG/Hrr5SK1NN9VIKJI5IpHRSscx7FVrmuTRUVOaKnYfVPzInek+6PuehqrltK5I2N8tLUPWpxXZKOHVYXrqr7hE1ObV5ytROC6ycleqBFyAAB3uCMeYzy1xLR4xwDie42C9UD9+nraCd0UrO9NU9U1U4K1dUVNUVFRTogBJfkV00mNrDTU9l2gMv4cTxRtRi3qxuZSVrtPtpKd31GRy/zFiTwUy9wh0rGxXimFjq7MW5Ybnemvoe72OqRycNVRXwMljT+v7mpAmAPocqOkR2LKamjq5M/7CrJfUpHBVSPThrxY2JXN99ELb426XbY5wvC92H77iXF8qJo2O02SWFFXTtdWdSiJr2pr7ikFYAkMz26ZPObG0E9lyUwrQYAoZEVv0RqHNuFycne1XtSGLVOabj3J2PQwFxLifEeMr5WYmxbfa+83e4SLLVV1fUPnnmf3ve9VVe7ivYdaAAAAzd6PbpB7ts2XenywzMqqm4ZZXGfyXaLJLYpnu1dNEnN0KqqrJGner2+VvNfN9Zb1aMSWiiv9gudNcbbcYGVNJV00qSRTxPTVr2OTg5qoqKiofL9gvBeKcxMU2zBOCbHVXi93iobTUVFTM3pJZF+JETVVVdEREVVVERVPoM2HdnHEuzBkXb8vcW4zq79dZpnV9TCsqvo7bJIiK6mpdeKRouqqvJz1c5ETUDIIAAQH9Kp7NjGf+6Wz5nEYjmXHSqezYxn/ALpbPmcRiOAAAH0XbB7GM2P8qmsajU+gEa6ImnFXvVV/KX6LDbCPsQMqvxfi/TcX5AAADwWeeS+DNoDLC95WY6o+tt14gVjJmonW0k6cYqiJV5PY7Rydi6aKioqovzp575KYy2e80r3lVjim3K+0TKkVQ1qpFW0zuMVRH3se3Re9F1avFqon00mIPSN7G1NtO5WuxJhKgjTMPCMMlRaXt0a64QeqkonL272msaryeiJqiOcBAqCpU01RR1EtHWU8kE8D3RyxSMVr43tXRWuReKKioqKilMAZx9GPtqv2fsfNypzBu3V5e4tqkTrpn6MtFwciNZUarwbG/RrJOSIiNfr5CouDgRVRdUA+qdFRyI5qoqLxRUNSO3oqNtX98/C0OzrmTdEdirDdLpYKuZ/lXK3xp9ZXXnLC1NE+6jRF01Y5VkSAAAAAAAAAAADx+cPrTYy8w1/yDyGwmTzh9abGXmGv+QeQ2GYyzyanRfIj+hYv6dPskABk3uC7Oyj7IXBHnJP0XEtRErso+yFwR5yT9FxLUYXMvhI7nNPLV+uMP+7/AJqgAGOeNAAAAAAAAAAAAAC2e0Lk3b87stq/CcvVRXKL/CrVVPT6xVNRd3VfuXIqsd4OVeaIRLXyyXXDV5rcP3yiko7hb5301TBImjo5GroqL76c+Sk2pivtkbLP75lvkzIwDQJ+6qgi/wALpYm6Lc4Gpw0/2rE5drk8njo3TIYHE+CnwdfCXr/JdtvRkl/3qx9Wli5PizPCiqevqpq6eqd/CZlHIDdLFLBK+GaN0ckbla9jk0c1ycFRUXkptM26b4hyrXdbnY7jT3ezXCpoa6kkSWCpp5VjkienJzXN0VF9w4oIIVUxXE01RrEsxMoukMxJY4obPm5Y1vtNGiMS50CNjrERO18aqkci+KKxe/UyiwftY7P+NIo1ocyLbb5np5VPdnLQvYv3Osu6xV+9cqETILO5gLVydY3dzzTOuSjIc1rm9ZibNU/M05v2ZiYj6uiauixlhC5N37diuz1Td1HawV0T00XkvB3I6y8Zs5XYejWW+ZjYZoWprwnusDFXTsRFdqq+CEM4KEZZT01eprFHIhhor1rxlUx2URE+nnT7EmOP9vXJHCcMsOGaiuxXXs1RsdFC6GDe/nTSoiaeLGvMM87NqvNDOzrLZcq1lnw+rtW2igcrY3prw656+VKvLno3VNUahZoF1awlqzOsRrPa3vZ/k8yPZ2uL9m3NdyOFVe+Y7o0imO+I17QAF03kALs7O+z5iTPjFrKClZLSWChe191uW75MUf8Am2KvB0jk1RE7Oa8EJa66bdM1VcFlmGYYbKsNXjMXXFNuiNZmf73zPCI4zO5c7Yb2f5ce4ubmdiahX9z2HZkdSNkb5NZXJxanHm2Pg5fHdTjqukjh1OFMK2LBOHKDCmGaBlHbLbCkFPCzsanaq9rlXVVVeKqqqdsa7iL836+d0dDjvbHai9tXmdWMr3URuop6qfxnjPo4RAACg1UPGZzzR0+UONp5n7sceH7g5zu5Ep36qezPBZ/esbmD+LFz+bSE9vy472QymnnY+xTPTXT/ABQh5ABtDusLs7KPshcEeck/RcWmLy7H0Uc20bg1srEciVMz0Re9IJFRfyohSvbrdXdLCbSVc3JsXVPRaufwyleABrLh8AAGK3SL1L4clbPExGqlRiOCN2vNESnqHcPfahHKSK9I76zVg/GeH5pUkdRncv8AgfO6t5I4iNmqPp1+0ABfPTmc3Rn/AGNmJ+EtXxVRm6YRdGf9jZifhLV8VUZumv474erzeyHIPKf8a8X9T/boAAWjQg6LHGCsPZiYVuODsU0Laq23OFYpWLzavNr2r2OauiovYqIp3oIxMxOsKlm9cw9ym7amYqpmJiY4xMcJhDvnTlHiDJXHldgy+tdJGxeuoKvd0ZV0yqu5IncvBUcnY5FTjwVfCEs+0pkNas9sByWpGwwX+2o6os9a5PrcunGNy8+rfoiKnYqNdoqtQikvNnumHrtV2O90MtHX0Ez6epp5U0fHI1dHNX30NgwmIi/Rv4xxdd7A7Y29q8v/ADsxGIt6RXHX1VR2T6p1jhprwwAXTfAAASWdH36wb/PlX+hEZLmNHR9+sG/z5V/oRGS5reK+Gq73F23Hxjxv7yr2gAKDVQAAAABtf6h3uKQyZoeuXi3z7X/OHkzb/UO9xSGTND1y8W+fa/5w8ymWeVU9z5EP0rGfRo9svMgAy7ohUp/r8f36fGTZWT/ItB/usX6CEJtP9fj+/T4ybKyf5FoP91i/QQxWZ8KfP9zwTlw8jA99z+RzQAYlz+AAAAAAAAAAAAAAAAGJO3js9Px1hpM2MK0W/fMPU6tuEUaeVVULdXK5E7XR6q7vVquTiqNQy2NHNa9qse1HNcmiovJUJqK5oq50M7s3tBitmMztZnhJ8aid8dFVM8aZ7Jj0cY3wgwNFaZM7Z+zVLlJip+OMKUX/AOkb9OrkZG3hb6p2quhVE5Ru4qzsTi3homuM+mhlKaorjWHd+Q53g9o8vt5lgataK488T00z1TE7p9W5sVFQ00RTeqamm6T6MpNLZuhU0NyheJNokmGw10CpobtCOiSYbAblTuNNOJGEkw0046g3IgVO4jopzDaidxr2mqJw4muiBTmG1E4hU1U3GiBSmBORqENU7VJJhSlvpqiopKiOqpKiSCaJyPjkjcrXscnJUVOKKXjwhthbRWDKdtHQ5j1lfTN00iusUdavDs6yVqyIngjkQsy3ma6FOumKt0wxePyvBZnTzMbZpuRHzqYq9sMqafpH89oIGRSYewTUPanGSSgqkc73d2oRPyIh0WIekA2i73v+gLtZLEjtU0t9rY7Th2LOsq/n7THJeZopR8FR1Neo2H2cs1c+nBW9e2mJj0TrHqeixjmLjzMGqbWY4xfd75LGqrH6Nq3yti15oxqrusTwaiIebVeGpuNFJZ3M9bs28PRFu1TFNMcIiNI9ENqczTs1N32qqbdOCFvUp1NruehonM1XiqmjS3qW1TcACVTAAEYjVq1rnuRrU1VeCIdvTQNp491OLl4uXvUpUVL1KdZInlryTuQ5XMzODw/go59XGW+5HlfuSjw92PHn1R+MudY7JdcSXijsFjopayvuE7KemgiTV0kjl0RE99SWTZ/ybteSWXdFhWmSOW5TaVN1q2pxnqXIm9ovPcb6lvgmumqqWO2INnBcJ2uLN7GdBu3i5Q/4oppWeVSUzk+vKi8nyIvDuYv87hl0W+Mv8+eZTwhy9y1coEZ5i/eHL6tbFqfHmOFdcdHbTR66tZ6IkABYvBQAAAAAAAAAAAAAAAAAAAAAMBduLovsMZ6VFwzSyTdR4bx5OrqitoZPqdvvMnNznaJ9Rnd92ibrl9WiKqvTPoAfL3mFlvjzKjFNXgnMfCtww/e6F27NR1sSsdp2OavqXsXmj2qrVTiiqh5s+mXOfZ/yg2gsO/uYzbwPQX6lZqtPNI1Y6mlcqeqhnYqSRr96qIvaipwI0c+uhbxZbJai9bO2Paa9UmqvbZMQOSnq2J2NjqWJ1Uq/fti0RPVKoEZALk5pbNmfWSk8sWaOU+I7BFEui1k1G6SjVddPJqY96F39F69hbYAAAAByLdbbjd62K22mgqa2rnduRU9PE6SSR3c1rUVVX3AOODKLJ7o19rfOCWCaHLefCVrm3VW44oVbexrV+2SFyLO5NOPkxqnjxQkY2buiRyMylmpcS5sVbsyMQwK2VsNXB1NpgenHhTaqs2i6prK5WqnHq2qBHXshdH1m/tTXGnvklLLhbAbJE9E4grYHJ17UXiykjXTr39m9qjG8dXa6NWb3InILLHZywLT5f5XWBlvoY1SWpqHqj6mun00WaeTTV7108ERODURERC4FNTU9HTxUdHTxwQQMbHFFGxGsjY1NEa1E4IiIiIiIVQAAAEPPTb+u7l5+L9T84QmGIeem39d3Lz8X6n5wgEboAAE4vQ7+xEk/Gq4fJU5B0Ti9Dv7EST8arh8lTgZxgAAAAAAAiO6cH+G2VXmy6fK05GQSb9OD/DbKrzZdPlacjIAAACbDoXfYpX/8eq/5jQmfBgP0LvsUr/8Aj1X/ADGhM+AAAAp1H1iT7xfiPmCzR9czF3n2v+cPPp9qPrEn3i/EfMFmj65mLvPtf84eB5gAAAAAAAAAAAAAAAErfQafYOc34bD/AOjXkppFl0Gn2DnN+Gw/+jXkpoAAADRURyK1yIqLwVFNQBGTt09FVT4sqLjm5sx2+no7vKr6q6YTRyRw1j1VXOko1XyYpFVV1iXRi/aq1U3XRNXqyXnDd2q7DiG01lsudBK6Cqo6yB0M8EjV0Vj2ORHNcncqan1NljdpHYyyI2o7du5jYY6i9xR9XS4gtitguMCdjes3VSVicdGSNc1NV0RFXUD5yQZ05+dEXtEZZT1N1ytfS5kWBiq5iUWlNc42dz6Z66PXjp9Se9V0Vd1vIwpxHhfE2DrtLYcXYdudkudP9dorlSSU08f30ciI5OS80A6wAAAAAAPdZX5FZx503BLblXltf8SyI9GSS0NG90EK/wC1mXSONOKcXuROIHhS5eQ2zpm1tI4wjwblVhea4zIrVrK2TWOjoIlX67PMqaMbz0Ti52mjUcvAz62cuhju1XJTYj2mcWsoYE3ZP3OWGZJJndu7PVqisZx4K2JH6pykQk7y4ywy+yhwrTYJyzwlbsO2Sk4x0lFFuo52iIr3uXV0j1RE1e9VcunFVAspsb7DmWuyPh109u3b7ja5QpHdsQzx7rlbwVYKdq69VCjk109U9URXKujUbkmAAAAEB/SqezYxn/uls+ZxGI5lx0qns2MZ/wC6Wz5nEYjgAAB9F+wj7EDKr8X4v03F+Sw2wj7EDKr8X4v03F+QAAAAACIrpZti1cMXebagy1tC/Qm6TI3FtJAzhS1T10bWoicmSKqNf3PVruO+5UjMPqXxFh6yYtsNwwviS2U9xtV1ppKOspKhiPjnhkarXsci80VFVD58NuDZPveyfnDU4cZFNPhK9rJXYar36r1tNqm9A93+diVyNd3orHcN7RAx3AAHcYNxhiPAGKrVjXCN1ntt5stVHWUVVC7R8UrHatXx5cUXgqcFPoZ2NtqXDm1fk/RY3oOopMQUG5RYitjHcaSsRvFzUVdeqkRFexV14bzdVVjj5zi+Ox9tQ4m2U84KDHlrWerslVpR3+1sfo2uonL5SIi8EkYvlsd2OTRfJVyKH0bg6PBGNMM5jYRtOOsG3WK5WS+UrKyiqouUkb01TVObXJxRWrxRUVFRFRTvAAAAAAAAAPH5w+tNjLzDX/IPIbCZPOH1psZeYa/5B5DYZjLPJqdF8iP6Fi/p0+yQAGTe4Ls7KPshcEeck/RcS1ESuyj7IXBHnJP0XEtRhcy+Ejuc08tX64w/7v8AmqAAY540AAAAAAAAAAAAAAAAxe2n9ja05qeiMb5eR09rxZor6iBdI6e5r2733Evc/kvJ33SR4YlwxiDB16qsO4otFVbLlRv3JqaoYrXtXv8AFF5oqaoqcUVUJsDwea2SOXOc1p+hmOLDHPLG1W01fDpHV034OTTXTXjurq1e1FL/AA2OqteLXvh61sXyo4nIqKcDmcTdsRuifl0R2a+VEdU746J03IeAZR5tbA2ZuDZJrll7OzF1qTVyRMRIa6Jvcsaruye6xdV+5QxmulputjrpbXerbVW+sgXdlp6qF0Usa9zmuRFT30Mxbu0XY1onV0TlGf5bn1rwuXXqa46Yid8d9M7488OKACozAAAAAAAuNlps95u5syxuwfg6skonrotxqm+h6Rqdq9a/RHadzN5fAzVyU2C8C4Gkgv2ZNVFiy7xqj20vVq23wOT+YvGb3Xojf5hbXsVbs8Z39TTtotu8l2bpmMRdiq5HyKd9Wvb0U/WmOzVjFs7bI2NM6amC/XqOexYQa9HSV0jN2Wsai8W0zVTyu7fXyU4+qVN0knwRgbC2XOG6TCeDrRDb7bRt0ZHGnF7tE1e93N7104uXip3kcccMbYoo2sYxqNa1qaI1E5IidiG4wuIxNeInfw6nM+1u22YbW3tb/iWqfJojhHbPzqu30RAAC3aaAAAeCz+9Y3MH8WLn82kPengs/vWNzB/Fi5/NpCe35cd7I5P+scP9Oj+KEPIANod1BefY59kfg78PP83kLMF59jn2R+Dvw8/zeQpX/gqu6WC2o/UeM/dXP4JSuAA1lxCAADFHpHfWasH4zw/NKkjqJFekd9ZqwfjPD80qSOozuX/A+d1dyR/Fmj6dftAAXz01nN0Z/wBjZifhLV8VUZumEXRn/Y2Yn4S1fFVGbpr+O+Hq83shyDyn/GvF/U/26AAFo0IAAAxC249m5MWWqXN/BdvRb1bItbvTxM8qspmp9dRE5vjROParfvUQy9NHNa9qse1HNcmioqcFQq2btVmuK6Wa2fz3FbOZhRmGFnfTxjoqp6aZ7J9U6TxhB6DJrbQ2cFysxMuPcI0O7hW+zKr4o2+Tb6t2qrHonKN3FW9iLq3ho3XGU2K1cpu0xXS7LyTOcLn+Bt4/CTrTVHniemJ7Yn8eAACoyySzo+/WDf58q/0IjJcxv2AqZ1Ps/wAUiuRUqLxVyoidiaMbp/ymSBreK+Gq73Fu28xO0WNmP8yr2gAKDVgAAAABtf6h3uKQyZoeuXi3z7X/ADh5M2/1DvcUhkzQ9cvFvn2v+cPMplnlVPc+RD9Kxn0aPbLzIAMu6IVKZNaiJO97fjJuaKmSjo4KRH7yQRNj3tNNd1ETX8xCPS/ZMP4Rvxk3xisz+T5/ueA8uMz/ANjH73/9YADEvAgAAAAAAAAAAAAAAAAAAdPi/CVgx1hq4YSxRbo6613OFYKiF6c0XkqLzRyLoqOTiioipxQid2h8hMQ5C41ksleklVZq1XS2m47ujaiLXi12nBJG6ojk9xU4KhL0eQzUyuwpnBg2swVi6k6ylqU3opmInW0syepljcqeS5PyKiqi6oqoVrN3wc7+D0fk52+v7F43m3dasNcmOfT1ft09sdMfKjdx0mIX1Q0VNC4uduSGL8jMXy4ZxND1tNLvSW64xsVIa2FF9U3ucmqI5irq1e9FRVt4qd6GTpmJjWODtPBYzD5nhqMZhK4rt1xrExwmP74xxid07202qim9UNNO0qRCvMNmim5U17TXQaL3BTmG3dNDeaKhNEJJht0BuROGhoqdxFSmBU0CJqbjTQJJaacFGimqhOXEhopTBoagEkqNTRE4g1GhJKhU2qhoau7AvNSnUo1NDRefvGpo7nzKNW5b1NF9SaL2GruSGiltWtq2xe1UUIF5BORQqW9bUAc+CEqSImZ0gOwoqNWaTSpx+1Tu8TWkokZpLMnlc0TuOYZXC4Tm+Pc4t0ybJPBaYjExv6I6u2e32d/AZW7G2y6/H1xgzOx7bnJhqhk3qClmbolxnavqlRU4wtVOPY5yacURx0eynsp1+b9fFjPGdPNSYNpJeCcWSXORq8Y2LzSNF4Oen3reOqtkit9vobTQU9rtlHDS0dJE2GCCFiMZFG1NGtaicERERE0JsViebHMo4vIuV3lSpyu3XkGS16353XK4+RHTTE/Pnpn5MftcK6IiJoiaIhqAYtyUAAAAAAAAAAAAAAAAAAAAAAAAAAAAANHNa9qte1HNVNFRU1RULW4x2V9mzH8slTi/InA1xqZV1fVOslOyod7szGpJ/wAxdMAYvXDoyNhu5VC1NRkTTMeqaaU99ukDOar6mOpa3t7viON6VxsJ+0Z/7mvH/VmVQAx9sHR/7GmG5Gy27Z8wvM5ioqJXslrk5acUqHvRffLxYTy9wDgKnWkwNgfD+HYFajFitNsho2bqck0ia1NOCcPA9AAAAAAAAAAAAAAAAAAAAAAAAAAOHXWe0XRzHXK10dWsaKjFngbIrUXnpvIuhxf3J4V/kzav+Cj/ALjtgB1P7k8K/wAmbV/wUf8AcP3J4V/kzav+Cj/uO2AHHorfQW2Jae3UNPSxK7fVkETWNV3foic+CfkOQAAAAA6t+FcMSOV78OWtznKqqq0caqq9/I7QAdT+5PCv8mbV/wAFH/cdfVZY5a107qqty9wzUTP03pJbTTvc7RNE1VWarwRD0wA8p+9NlX7WmFPgam/UH702VftaYU+Bqb9Q9WAPKfvTZV+1phT4Gpv1B+9NlX7WmFPgam/UPVgDyn702VftaYU+Bqb9QfvTZV+1phT4Gpv1D1YA8p+9NlX7WmFPgam/UH702VftaYU+Bqb9Q9WAPKfvTZV+1phT4Gpv1B+9NlX7WmFPgam/UPVgDqrFhTC2F0mTDOGrVaEqd3rkoaOOn63d13d7cRN7TVdNeWq952oAAAAAAAAAA89jPLvAGY1u+hGYGCLDiWi46U92t0NXG3XtRsjVRF8UPQgDFPGnRfbFmM5Jar96h1iqpV1Way3WqpkTjrwi31hb7zP/ALFqbt0K+zHVudJaceZkW9znIu46vopo2ppxREWlR3Hnqrl7SQIAR2xdCZs/JI1Zs1cwnRoqbzWyUTVVO1EVaddF8dFPU2Hob9ka0StkuFfj69tR28rK+8wsaqcPJX0PTxLpw79eK8eRnSAMfcCbAOx3l1JHPYMhcOVU8aJpLeWSXV2991pVukRF7eCJovLQv1b7db7TRQ221UNPRUlO1GQ09PE2OONqcka1qIiJ4IcgAAAAAAAAAeBxXs/ZC47vc2JccZJYBxDd6lGtmuF1w1RVdTKjWo1qOlljc52iIiJqvBERDqPpTtlj/Vpyq/sbbv2JdUAWq+lO2WP9WnKr+xtu/YnXVOxhsl1U76iXZwy7a566qkeHqaNvvNaxET3kLzADrMNYZw9g2w0WF8KWaktNotsSQUlFSRJHDBGnJrGpwROPI7MAAAAAAAHlMw8qMs827ZT2XM7AljxTQ0k/omngutEyoZFLuq3faj0XdXRypqnYp6sAWU+ko2R/9XLL/wCA4P1R9JRsj/6uWX/wHB+qXrAFlPpKNkf/AFcsv/gOD9U66o2CtjmpmfPJs84RRz11VI6V0bfea1yInvIX8AHmMuss8CZS4ZiwblxhqlsNkhlfNFQ0u91THvXVytRyrpqvHROGuq9p6cAAAAAAAAADjXK20N4t1TabnTMqKOshfBPC/wBTJG5FRzV8FRVQtn9Kxs9e1PY//Dd+sXVBNTXVT5M6L3C5ljcDE04W9VRE8ebVNOvfpMLVfSsbPXtT2P8A8N36xxJdkTZwmkdK/Ky3Irl1VGVFQ1PeRJERPeLwAm8Nc+dPpXlO0ec0+Ti7sf8A5K/xWwwzsy5F4OvtHibDWXtJQ3O3ydbTVDKmdyxv001RHSKi8+1C54BLVXVXvqnVY4zH4vMK4uYu7VcqjdE1VTVOnVrMyAAlWgAAAAAAAAAAAAAAAAAAB0GLMA4Ix3SpRYzwnab1E1FRiVtIyVY9e1jnJq1fFFRTvwRiZidYVLV65h64uWqppqjhMTpPphjdirYEyDxBI+e0017w7I5VcjbfX78ev3s7ZOHgip4aFs7t0aVM5yvsWbksbeyOrs6PX+u2ZP0TN0FxTi71PCpt+D5QtpsDEU28XVMftaV+uqJlgG/o2MaI9yR5mWRzEVd1XUcqKqdmqarp+U5VB0aeIJFT6KZs2+nTVdfQ9pfNw05+VKzj4GeQJ/d1/r9UMlVyq7UzGkYiI+pR/SxEw90b+W9G5r8TY7xDc1boqtpY4aRjl8dUkXT3FRfEvJgnZZyFwEsc1my6ttTVR6KlVckWtl3vuk65XIxfvUQuuClXibtflVSwGYbZ5/mkTTisXXMT0RPNj0U6R6m1jGxtRjGo1rU0RETRETuNwBQayAAAAAAAAHWYnw7bcXYbumFby2R1BeKOahqkjfuuWKViseiL2Loq8TswInTfCe3cqtVxconSYnWJ6phjl9ILs9fxdfPhR39w+kF2ev4uvnwo7+4yNBX903vnS2T/ABrtF/5tz7cscvpBdnr+Lr58KO/uPQYB2PsmMtsW0GNcMUV2Zc7a5z4HTV7pGIrmq1dWqnHg5S9oITiLsxpNUqd7a/PsRbqs3cZcqpqiYmJqnSYndMT3gAKLXAAAeIzZyfwZnTh+lw1jiCrloqOsbXRJTVCxO61rHsRVVOabsjuBan6QXZ6/i6+fCjv7jI0FWm9cojSmqYhm8DtLnGWWYw+DxNdFHHSmqYjfx3McvpBdnr+Lr58KO/uOE/o9shHvc9tTiliOVVRrbjHo3wTWJV/Kpk0Cb3Te+dK+p232jp4Y259qVs8ltn3AeQ7LvHgia6yJe1gWp9HVDZdOp6zc3d1jdPrjtefYXMAKVVVVc86qdZYHHY7E5lfqxWLrmu5VprM8Z0jSPVEQAAlWgAAAAA6fF2E7BjrDdwwlie3srbZc4VgqIX9qLyVF7HIuio5OKKiKnFDHz0vXIX/TMVfCMX7IybBUovXLcaUTozOWbQ5rk1FVvAYiq3TVOsxTOka9bGT0vXIX/TMVfCMX7I4T+jmyPe9zm4mxuxFVVRra6k0b4JrTKv5TKgFT3Ve+dLKU7d7SU8MZX6XjMpMqcPZM4NhwPhesuNVQQzyTtkr5GPmVz11VFVjGN04cOB7MAoVVTVOs8Ws4rE3sbeqxGIq51dU6zM8ZmeMgAIKAAAAAA0VNUVO8xlv3R+ZNYhvlxv8AW4mxoyoudXNWTNiraVGNfI9XuRqLTKqJqq6aqvumTYKlu7Xa8idGWyrPMxySqqrL7025q46dOnBit6XJkj/KnHH/AB1J/wBMcJ/Rv5Uq9yx44xY1iqu6jn0yqidmq9Umv5DLYFT3Xe+czdPKBtNTwxlfq/BiTH0cOVscjZExzipVaqO50/Z/3ZlsAU7l6u7pz51YfN9oczz7me+N6bnM10103a6a8IjjpAACmwwAAAAAAAAAAAAAAAAAAAAA8jmhlZg3N7CtRhLGlsbU00qK6GZuiTUsuio2WJ32rk19xeKKioqoRb5+bO2NchcQeg71E6ustU9Ut13iZpFUJpruuTVerkRObV56KqapxJdjqMV4Sw3jiwVeGMWWenudsrmLHPTzt1RU7FRebXJzRyKioqIqKilazem1PY9H2B5RsdsVf8FVrcw1U+NR1ftUdVXXHCrhO/SYhKVEU2qneZObSWxfijKd9TizAkdVfsJIqySIjd+rt7f9q1qeXGn+cROCeqRNNVxmMpbriuNaXZGR57l20uDpx2W3Iron0xPVVHGJ7J743NiJxBuRNFCp3FWN7J1U6Nip2mnYbhoTKUw2qmgROJuVBpx1GinMNqpoDcqahE4EFKYaLyNNFNVTsNQpVQ26GumqGugJJUKm1eSGvj3BU5DsKc7lCptXmgXtHaF5FOVGpppyNqm5eHvG1ShUtqmi+qTwNF5G5eamx3It6ltW2qE5BTlU9DJNo5+rGfnUp0W6rtWlMIWMJexlfMs06z/fFQjjfK7cjaqqdnTUbIPKdo5/f3e4VYoY4W7sbdO/xOVQ0Nbc6yG322jmqqqpekcMEMavkkeq6I1rU4qqr2IZXD4Smz41W+W65bk1nL48NemJqjp6I7vxUDKHZc2PbnmdJS46zEp57fhNqpJT03GOe56cU04athXtfzdyb90ly9mzYdhtjqXG+dVHFPVJuzUlgVUdHEvNHVPY53+zTVE+2VeLUzOa1rGoxjUa1qaIiJoiJ3FLEYzTxbfpeEcpXLRRZprynZqvWrhVejhHXFvrn9vhHydZ3xx7dbqC0UFPa7XRw0lHSRNhgghYjI4o2po1rWpwRETsOSAY1y3VVNczVVOsyAAJQAAAAAAAAAAAAAAAAAAAAAAAAAAAAAAAAAAAAAAAAAAAAAAAAAAAAAAAAAAAAAAAAAAAAAAAAAAAAAAAAAAAAAAAAAAAAAAAAAAAAAAAAAAAAAAAAAAAAAAAAAAAAAAAAAAAAAAAAAAAAAAAAAAAAAAAAAAAAAAAAAAAAAAAAAAAAAAAAAAAAAAAAAAAAAAAAAAAAAAAAAAAAAAAAAAAAAAAAAAAAAAAAAAAAAAAAAAAAAAAAAAAAAAAAAAAAAAAAAAAAAAAAAAAAAAAAAAAAAAAAAAaOa1zVa5EVFTRUXkpiptBbCuFswH1OKsr302HL/JrJLRK3doKx3aujU+ovXvaitXtbqquMrAT0V1UTrSzmQbSZnsxioxmWXZoq6Y4xVHVVHCY9nGNJQr44y/xjlvfZcN43w9V2mvj4pHOzyZG/dxvTyXt/nNVUPPaITTY7y6wTmZZH4exzhyju9E7i1s7PLid91G9NHRu8WqimEWcvR6Yjszp71k5dFvVEmr/AKFV0jY6tid0cnBkieC7q/fKX9rFU1bqt0upNkOWnKM7inDZxph73XPwdU9lXye6rdHzpYaq029p2t9w7fML3Oay4js9ba6+nXSWmq4XRSM91rkRffOv3UUvYreyxRRepi5anWJ4TG+J7pU9ENunPwKqs7lNqtVOwn1iVGu1VTxhTNdOOim5UNNBMLaqGip2ALqprpqhCVGponMLzNdOJoqcSnKjU0C8jXTQdhTlb1NgCgp1KFbRTb2lRIpH+pYqlZlC93F7kTwQp+Dqr4Qmt4DEYjyKJ7+EOHzRVKsdHNNoqJut71OwipYYuLW6r3qVSpRg441yy+G2dp8rE1a9kfi48FFDDo7Ted3qcg9bl5lRmDmpc/oVgTDFZc3tVElmY3dgg17ZJXaMZ766r2amaWTXR/4Zw8+C+ZuXKO/1rNHpa6VXMo43c/LfwfL7mjW9io5CtVdtYeNPUxe0m3WzuxFqbeLuRz+i3RvrnzdGvXVMR2sS8ndnvMrOu4NiwtaHQ2xj92pu1Wix0sPem9pq9381iKvFNdE4kh+RWzDl9kdSMq6CBLtiJ7NJ7xVRp1iaporYW8Uibz5Kqr2qvBEuxbbbbrNQQWu0UFPRUdKxI4KenibHHExOTWtaiIieCHJMbexVd3dwhyntxys5xthzsLb/ADOGn5FM76o/bq3a90aU9kzGoAC2eVgAAAAAAAAAAAAAAAAAAAAAAAAAAAAAAAAAAAAAAAAAAAAAAAAAAAAAAAAAAAAAAAAAAAAAAAAAAAAAAAAAAAAAAAAAAAAAAAAAAAAAAAAAAAAAAAAAAAAAAAAAAAAAAAAAAAAAAAAAAAAAAAAAAAAAAAAAAAAAAAAAAAAAAAAAAAAAAAAAAAAAAAAAAAAAAAAAAAAAAAAAAAAAAAAAAAAAAAAAAAAAAAAAAAAAAAAAAAAAAAAAAAAAAAAAAAAAAAAAAAAAAAAAAAAAAAAAAAAAAAAAAAAAAAAAAAADzGO8ssA5m236E48wpb7zAiKka1Ef1WHXmsciaPjXxaqKYnZmdHHb6h0twymxi6kcurm268or49e5s7E3mp3I5jl71M2AVKLtdvyZbXs9ttnuy0/+m4iqmn5k+NRP1Z1iO+NJ7UQWYGzpnNlkssuK8B3GOji1Va6lZ6Jpd3vWSPVG69ztF8C3G74k4hbnG+ztkpmGskuKMurRNUy6q+rpovQtQ5e9ZYVa53vqpd0Y350Pbck/6g9IijOsJ31Wp/kqn+dEDutXmmpp1be4kLxb0cWXNyc+bB2Nr3ZHu4pHVRx1sTV7kT6m/T3XKWixH0dWb9uc6TDuJcN3iJF0a10stNMqd+65isT+uXFOJt1dOj07LuVnY7NIiJxUUVdVymafXMc3/UxP6pOxR1S9il2cXbL2d2BmrLiTBraeLTVJG3KlkRyaKuqI2RV7F5p2Fsamlmoqh9LUx7ksS7rm6oui+6hcU1xVwnVu+BxWV5tR4TA3aLlPXRVFUf6ZlxOpd3oOod3oVwNF7732J6PWoeh1Xm5DVKZO16/kK+73nYWWw3XEFW2gs9J6IncqIjN9rOa6JxcqJzUhzYS1YLCWaZruRERHTM7vXLqm0sac9V91So2KNvqWJ7uhe/C+xvn/AIshZWUWEqWnpJNNKioulMjeKIvJr3O5Kn2vaXTw10cOPKpzHYszAsdtYuiq2hglrHond5SRJr76kk3rVHGYarjdvdj8nmfDYy1Ex0Uzz59FEVSxARpVggmqZmU9NC+WWRyNYxjVc5yryRETiqkjmEOj8yVsTo58SVl8xJK31cc9SlPTuXwbCjXp/wCIpfXB2WOXmX0SRYLwZaLOu7uulpaVrZXp/Ok033e+qlGvHUU+TGrQM4/6gMiwkTTltiu9V1zpRT6Z1q/0o18u9jzPXMJY524VdYKCTRfRd6VaZN1e1I1RZXcOSozTxMqcsdgDLLCzorhj+5VWLK5mjlgVFpqJrufqGqr36fzn6L2tMpgWlzF3K90bnjO0XLPtPn0Tas3Iw9uei3unz1zrV9maY7HCs1ks2HbdFaLBaqO20MCbsVNSQtiiYng1qIiHNALV5RXXVcqmuudZnjM8ZAAEoAAAAAAAAAAAAAAAAAAAAAAAAAAAAAAAAAAAAAAAAAAAAAAAAAAAAAAAAAAAAAAAAAAAAAAAAAAAAAAAAAAAAAAAAAAAAAAAAAAAAAAAAAAAAAAAAAAAAAAAAAAAAAAAAAAAAAAAAAAAAAAAAAAAAAAAAAAAAAAAAAAAAAAAAAAAAAAAAAAAAAAAAAAAAAAAAAAAAAAAAAAAAAAAAAAAAAAAAAAAAAAAAAAAAAAAAAAAAAAAAAAAAAAAAAAAAAAAAAAAAAAAAAAAAAAAAAAAAAAAD//Z" parent="1" vertex="1">
                    <mxGeometry x="66.00000000000003" y="74" width="346" height="73" as="geometry"/>
                </mxCell>
                <mxCell id="-JWOgZodCvPbYzVBMZfy-212" value="&lt;div style=&quot;&quot;&gt;&lt;p style=&quot;margin: 0px; text-indent: 0px; direction: ltr;&quot;&gt;&lt;font face=&quot;Arial&quot;&gt;&lt;span style=&quot;font-size: 11.29px;&quot;&gt;Spoke Vnets&lt;/span&gt;&lt;/font&gt;&lt;/p&gt;&lt;/div&gt;" style="text;vsdxID=39;fillColor=none;gradientColor=none;fillOpacity=0;strokeColor=none;strokeWidth=2;spacingTop=-3;spacingBottom=-3;spacingLeft=-3;spacingRight=-3;points=[[0,0.5,0],[1,0.5,0],[0.5,1,0],[0.5,0,0]];labelBackgroundColor=none;rounded=0;html=1;whiteSpace=wrap;verticalAlign=middle;align=left;;html=1;" parent="1" vertex="1">
                    <mxGeometry x="302.9" y="784" width="80.47" height="20.59" as="geometry"/>
                </mxCell>
                <mxCell id="-JWOgZodCvPbYzVBMZfy-213" value="&lt;div style=&quot;&quot;&gt;&lt;p style=&quot;margin: 0px; text-indent: 0px; direction: ltr;&quot;&gt;&lt;font face=&quot;Arial&quot;&gt;&lt;span style=&quot;font-size: 11.29px;&quot;&gt;Public IP&lt;/span&gt;&lt;/font&gt;&lt;/p&gt;&lt;/div&gt;" style="text;vsdxID=39;fillColor=none;gradientColor=none;fillOpacity=0;strokeColor=none;strokeWidth=2;spacingTop=-3;spacingBottom=-3;spacingLeft=-3;spacingRight=-3;points=[[0,0.5,0],[1,0.5,0],[0.5,1,0],[0.5,0,0]];labelBackgroundColor=none;rounded=0;html=1;whiteSpace=wrap;verticalAlign=middle;align=left;;html=1;" parent="1" vertex="1">
                    <mxGeometry x="257.32" y="356.09" width="80.47" height="20.59" as="geometry"/>
                </mxCell>
                <mxCell id="-JWOgZodCvPbYzVBMZfy-214" value="&lt;div style=&quot;&quot;&gt;&lt;p style=&quot;margin: 0px; text-indent: 0px; direction: ltr;&quot;&gt;&lt;font face=&quot;Arial&quot;&gt;&lt;span style=&quot;font-size: 11.29px;&quot;&gt;Public IP&lt;/span&gt;&lt;/font&gt;&lt;/p&gt;&lt;/div&gt;" style="text;vsdxID=39;fillColor=none;gradientColor=none;fillOpacity=0;strokeColor=none;strokeWidth=2;spacingTop=-3;spacingBottom=-3;spacingLeft=-3;spacingRight=-3;points=[[0,0.5,0],[1,0.5,0],[0.5,1,0],[0.5,0,0]];labelBackgroundColor=none;rounded=0;html=1;whiteSpace=wrap;verticalAlign=middle;align=left;;html=1;" parent="1" vertex="1">
                    <mxGeometry x="494.55999999999995" y="357.09" width="80.47" height="20.59" as="geometry"/>
                </mxCell>
                <mxCell id="-JWOgZodCvPbYzVBMZfy-216" value="" style="sketch=0;aspect=fixed;html=1;points=[];align=center;image;fontSize=12;image=img/lib/mscae/VM_Scale_Set.svg;" parent="1" vertex="1">
                    <mxGeometry x="295.13" y="821" width="76" height="76" as="geometry"/>
                </mxCell>
                <mxCell id="-JWOgZodCvPbYzVBMZfy-218" value="" style="sketch=0;aspect=fixed;html=1;points=[];align=center;image;fontSize=12;image=img/lib/mscae/VM_Scale_Set.svg;" parent="1" vertex="1">
                    <mxGeometry x="453" y="494.5" width="38" height="38" as="geometry"/>
                </mxCell>
                <mxCell id="-JWOgZodCvPbYzVBMZfy-219" value="" style="shape=image;verticalLabelPosition=bottom;labelBackgroundColor=default;verticalAlign=top;aspect=fixed;imageAspect=0;image=data:image/png,iVBORw0KGgoAAAANSUhEUgAAA7UAAALICAYAAACgkteeAAAL5XpUWHRSYXcgcHJvZmlsZSB0eXBlIGV4aWYAAHjarZhrlts6DoT/cxWzBL5AkMvh85zZwSx/PtDq7qTzzr12x1JkiiJRhULBbv/vv8f9h1eSkl0WraWV4nnlllvsnFT/er2Owef7eV9DfHqufnXdzerjPYtcsiGvYb7s1zF0rsvHDZqf6+Pr607n6yTWZ6Lni7cJkz3ZHvWMq89EKb6uh+f/rj339fzFdp5/Zfq75bCeVX76f1aCsYT5UnRxp5A8n9meklhBaqlzzHyGVOPbFUbd6+n7sXPvp5+C9+zkm9j5/oxIX4fCvRZr6/4Uo+d6kO/H7kboyxWFt9P49RerfCzqc+zOWfWc/dpdz4VIFfdsyj9T3DMGDkL5ikbhrfwTzvW+G+/KFieILR43eE8XWojE8YQcVujhhH2PM0yWmOOOyjHGGdO9VpPGFucFJds7nKiAsVyqYDVBLXE5vq8l3Oe2+7wZKk9egZExMFngjm/e7nsX/+b9PtE5FtsQLJjzFSvWFY3TLMOQs09GAUg4T0zlxve+3TusHy8DNoGg3DBXNtj9eE0xJHxwK12cE+PEZ+dfqRF0PRMQIp4tLCYkEPAlJAkleI1RQyCOFXw6K48pxwECQSSu4A7YpFQAh2zg2dyj4Y6NEl+XkRaAkFSSAg3pAlg5C/zRXOFQlyTZiUgRlSpNekklFymlaDGN6po0q2hR1apNe001V6mlaq211d5iS0iYtNLUtdpa652Hdqbu3N0Z0fuII408ZJSho442+oQ+M0+ZZeqss82+4kqL9F9lqVt1tdV32FBp5y27bN11t90PXDvp5COnHD31tNPfUXtQ/Rq18Am5n6MWHtQMsXzH6QdqXFZ9myKYnIhhBmIxBxBXQwBCR8PM15BzNOQMM98iSSER1IIYOCsYYiCYd4hywjt2H8j9FDcn+Y9wiz9Czhl0/wZyzqB7kPsWt++gtvrV4XQBsiy0mPp0EDYG7Npj7VaT/vro/ukEP5hoLF/k+LMs0F1ljBS1SdIWR21GrIOS6ipjnj6W9JnORiXLcgdtkdn0QLujKUoX3/tG0gufcxxq/TwqmUcczYMBOZ8Uwzwhdo2JBMiMc/3IMqKiHc1bXso8pTfIBFp9rShtx7Xl7G1YpFO1HNYR+0qBhSbZp4TFiqbFevrtifgQXWxolbbYjSoJkaNuQzCMXUvvS2uCST0gTmyX+hyy8Jdd9XJP/T88up8MUFZY9cya9hpnj4awxyAbHdt9FQQ8+jOKRblvlwcj2ZEvBD+sfLKcVsm6C+TpQsLN5fFjMK/2UlfJdR7Sii9AafdBVKZ3ZEheZUJZYpeY9Jy6yHa7k3zFWCnoLAkK4DXs3Kz+ZbDIYtUn1zFJ++BqjK3J2qdOVjHJDeorT87S2B8pFb2mxb7AbYYBh5ifwEtibJsohaR94na+hZWIQBBqL7OPrbmM1NUf7bNbVEJrFxlt+8HIf3t0HxfYftt1oBiIWBsF/H2l0ozFas/yqmeLtCVqRKw97wwb/KgXHfe92X90fAPLtPbC1feDVctu/QBkcgqmT5W0gm5czUWR6OCF3mZG0utNNq/HkW+iB1j68cvmG/CafBhspGa4fN7HspIfD3Y2ekxzYOgVyAGONyb5xT0zjSK91XiGztbOyLWmflZWRQcHq/X7yWQ0ex2/FY1IIDx1ISUpmiWbXcTcfKVU6MAejdmNHZBB9p5jMCN2ZJNoourEFp/L2gCWR6E4hMhqPX/sKBye0Ter0HwQg7QLnNkllpzYRUGJkxzSuLvppcyUjlrKI+Dneh/I8IptraZ6Lfqhre+CHMwU2OHWwfVNWuzjBwLmFii1oRfUBjO0UlLhIqIS0A0cwqGAMJx8W8idRzwZL7ohANuGz2se3x0KhxLaSH9kmIrlNkKaxHlQFzLpLGWQcAhjDXgiyWZbKY7kPPONVpV0aI66BDAmzalMC8fZiSvnkCPI4EnaD4l5USUoaPKCDrOD9OZq0kUgU+zYmstw2an139cyLasnYIBSm1itst3U5nfv+AJ4wmkijiudBuCKlaaW4/0C5PADyLouUg77uJS0k4WiDOoO2oQbCdOkBFbOk+fSaAwrFFFdKxQr58cIliDYyCsChRpJd0iqLaW20xwIjYMeYWN+9thIBxZAwszS41mrYR4O/RXBf8kIPd2X6fVVyrhfJtjPc/GVXeSWe0+uAAfenou5kikjs3qPddmR6oafWuQMdZP14nlorVleSB25QsHd3HiuvSmEbOYarltceQ6PJ64dTYPK+dgQ+hUGI0A4nYYdJEUn2wet6IjgISlZHSU5mR7dIm5FHcJxOVJlb8GZNypYwX7anHn7XuFpC5ivXemOqMCYw8JzsAaCs7IsQrsHliwC4ZHE3wKKW58y/RYbLzJCfVEwT8/u3WVy/00mY9YW+9E5V/zEZPdXZZqyxLMh9olTKVns0JlQkPspHIqOjqsCpDHkRLbKwspSWNbIWG1vSUWH2ZTgsvne6DsHRpgGs7mQRky9zVq4JSKPMmOBO70qLgs9wcicq1JUALi8aVtJpfvANQTyDNRhYo+JTDwCQAggBSawnET8JyRKMBFW1E09k1WTGfiKeAZbEYunPaXQpFNGjQ5jRA7uxebwXAP+NcSNKsDK8ylMAVnnegTTPO09qz4lnfk6koAPNFfbN8gUVGzG9ip+A6z2eMXr6pqme89tQuyur2+5N7jnjjseG37JN5B0xhwjGPEfr9wpaP5baSSTXrDA93tHdbhQKi7i07Ms+tORWx3BfplJmML++o7OYJgWmzik197GVHzfs02O7u3kD49rsVKPPk4sS8SfoUcKC6Kfg21gbGJWYrqHx0ZHIPkOqlAskovgAdOwLSxTzURQf6ldlKgd0brRpkkJe5wLa0tqWzCOoUirx57poSuluvbZnqKuVtTdziaYt/IfMVe/O77rGBUpsoquaRWzKWq1im9RtWiycMxhU1bNWhJdF8AO9k7z+PTtw+IYUW205fYRlfWxE+wledUmtm7DeRMKpWJ0Gq9O/ejk2ujv3PoZT76kyUOrZ/CLie4XVAQUwv1OLPsd7p1akvsVQQo0W0PQsTIoN8WD+0ag2tG4Trxybgv9o5aQ1oIJRzfZrSDeGNaZ6ursPKB61r442k/aGhLK7OW01PbISrZYdIuFCLaC3MPRzBUOWIacWDjeSxKMyGEko66LB0u9Q1YMct6Xsig6bYKigqql1Kdr+UXT4n6r0vd8aoECPJJaYWsWKJKtx0K6dks70K+dFhQvRjUqhgoNBKYqKKrDkNMBFf6aFTQuhtvTZWKt+L65NaEzvslwNGdUBLAwZ9gtqWNim1DQm+Sn7pkfWfO9BCwIvIdPslqrm0JC3K56BuA3b9CtmmJ0BqVq0mWYEsP8Pjyuoh1R3FxG1WgVT4SsHiRYomJviXheeUxHHaPqICAl0p9SAA75SxMbaGpsYagohaC0kq07tiaJ8kV2mfp0zHFulkrSXLSajVUFqIm5S9Ts9FGzyyBNTtAwrPbkEehSMABdMIjdKFLybEKfhPjDNIKXCtDPCf9M24sRRmllG057zrmnEJRhvyMzw6Rla9YsCZ5x0WLvkwptVkTyX0UT3v31TwjuR1/8WNYSm83ts1tyL7u04POgEsZbYP27VzKuvM1N2f9sWzAmiRTL8wT3/a8aXS4Tk1xMjLF+TVvLb3WQf3eE/WYHCPZbzX2V3PrUXNwNSCLZSoBwNJAaLxNoVH3qgX57k3yDBoeWekbyzdnvML30SQ51OgPusSqwBmI/rS0jL+yHkfNUAf+qA+n+bJ7tJ5VtYrwqPS1VA4MFeXrZO4VyY7vqL4L7+Rv3t8H914It9qseGaSjQ+gQXNqH8oI4zE7DSE40KFRa3jCfjMcf7jn9od2y7kFui0v7unZek6CRzNtSuLh09aRRTBAM054b7MGLiIc1d7HMO4V+kNL5lspkKe3G6rr3pmtBbBxNn0UNkn9bq+ynNJqUhUbiF5ATnLLfCx1BwnDH9ZD9aSbyYTtTewu8Uhpw8WLujqI5kC7/FvP+G6Fz/5DY30xEz9LDH7ukx01SM5r7P8y3PJFu7AfFAAAABmJLR0QA/wD/AP+gvaeTAAAACXBIWXMAABYlAAAWJQFJUiTwAAAAB3RJTUUH4wQSEAoLIo9oKgAAHFJJREFUeNrt3UFyFFeex/GXVcwsZkVvBlfHLIoT9HCCKaRZ22bfWMUJLE6AOIHhBEju3kPYW5DyBuYGqsXEyMKLZt9UZi8QRoBkqaSszPy//HwOQBBPBJFf3vsFKQEAAAAAAAAAAAAAAAAAAAAAAAAAAAAAAAAAAAAAAAAAAAAAAAAAAAAAAAAAAAAAAAAAAAAAAAAAAAAAAAAAAAAAAAAAAAAAAAAAAAAAAAAAAAAAAAAAAAAAAAAAAAAAAAAAAAAAAAAAAAAAAAAAAAAAAAAAAAAAAAAAAAAAAAAAAAAAAAAAAAAAAAAAAAAAAAAAAAAAAAAAAAAAAAAAAAAAAAAAAAAAAAAAAAAAAAAAAAAAAAAAAAAAAAAAAAAAAAAAAAAAAAAAAAAAAAAAAAAAAAAAAAAAAAAAAAAAAAAAEFrhCKAZ39092i3GN/5RvHv3dLecLJwIAACs38gRQIPqarsejw7ubxzNHQYAAIhaiGg6KkbPtjaPD/+6efyt4wAAAFELIeN2nNLzrc03z+azo6njAAAAUQsB1fN6PDrc+t/ffhC3AAAgaiFo29rbAgCAqIXYft/bilsAABC1EDxu7W0BAEDUQlgne1txCwAAohaCx629LQAAiFoIy94WAABELeQSt54kAwCAqIWw7G0BAEDUQh5xa28LAACiFsKytwUAAFELucStJ8kAACBqISx7WwAAELWQR9za2wIAIGqBsOxtAQAQtUAucetJMgAAohYIy94WAABRC+QRt/a2AACIWiAse1sAAEQtkEvcepIMAICoBcKytwUAQNQCecStvS0AAKIWCMveFgAAUQvkEreeJAMAIGqBsOxtAQAQtUAecWtvCwCAqAXCsrcFAEDUArnErSfJAACIWiAse1sAAEQtkEfc2tsCACBqgbDsbQEAELVALnHrSTIAAKIWCMveFgAAUQvkEbf2tgAAiFogLHtbAABELZBN3D73JBkAAFELRPWtvS0AAKIWCO7D3vbXbWcBAICoBSKajoriB3tbAABELRA8bu1tAQAQtUBs9rYAAIhaIDp7WwAARC0Qm70tAACiFsghbu1tAQAQtUBs9rYAAIhaIDp7WwAARC0Qm70tAACiFsghbu1tAQAQtUBs9rYAAIhaIDp7WwAARC0Qm70tAICoBcghbu1tAQBELUBs9rYAAKIWIDp7WwAAUQsQm70tAICoBcghbu1tAQBELUBs9rYAAKIWIDp7WwAAUQsQm70tAICoBcghbu1tAQBELUBs9rYAAKIWIDp7WwAAUQsQm70tAICoBcghbu1tAQBELUBs9rYAAKIWIDp7WwAAUQsQm70tAICoBcghbu1tAQBELUBs9rYAAKIWILr3e9vvNn575CwAAEQtQETToqh27G0BAEQtQOi4fb+3fXPgSTIAgKgFCKqe2dsCAIhagOhxa28LACBqAUKztwUAELUA8ePW3hYAQNQCBGdvCwAgagHix629LQCAqAUIzd4WAEDUAsSPW3tbAABRCxCcvS0AgKgFiB+39rYAAKIWIDR7WwAAUQsQP27tbQEARC1AcPa2AACiFiB+3NrbAgCIWoDQ7G0BAEQtQPy4tbcFAEQtAMHZ2wIAohaA+HE7r8ejA+cAAIhaAKKaOgIAQNQCAACAqAUAAABRCwAAAKIWAAAAUQsAAACiFgAAAEQtAAAAohYAAABELQAAAIhaALqwtfnm2Xx2NHUSAM2azX7+fjZ7/q2TAFELwFrV83o8Ori/cTR3FgBNxOzz2Wz200FK9ZOUxjedCFzfDUcAwAWmo2L0bGvz+FFVV4//tj/ZdSQAK8fsNKXxs5TSzGmAqAWg07h98z/Fcvl4t5wsHAnAhTF7M6Ub36dUb6eU3MzCGnh+DMCK6nk9Hh3a2wJcFLQ/f5/S+DClekfQgqgFoJ9xa28L8EXMnt7NillYN8+PAbgOe1uAjzE7tZsFUQtA6Li1twUGGbN2s9Ahz48BaJC9LTC0oLWbBVELQK5xa28LZByzdrPQF54fA7Au9rZAjjE7tZsFUQvAIOPW3hYIHbN2s9BTnh8D0BJ7WyBq0NrNgqgFgE/j1t4WCBCzdrMQgefHAHTB3hboc8xO7WZB1ALACnFrbwv0ImbtZiEgz48B6AF7W6DroLWbBVELAM3Erb0t0GLM2s1CdJ4fA9A39rZAGzE7tZsFUQsALcStvS3QaMzazUJmPD8GoOfsbYGmgtZuFkQtAHQbt/a2wBVi1m4Wcub5MQCR2NsCq8Ts1G4WRC0A9Dhu7W2BM2PWbhYGxPNjAAKztwU+D1q7WRC1ABAzbg/ub/y67SxgqDFrNwtD5fkxALmYjorih63N4+/tbWFQMTu1mwVRCwCZxe3o2dbm8TfFsnpobwvZxqzdLJBS8vwYgHx9a28LuQat3SwgagEYDHtbyCdm7WaBL3l+DMAQ2NtC7Jid2s0CohYA7G0hWszazQIX8vwYgCGyt4XeB63dLCBqAeAC9rbQv5i1mwVW4/kxAENnbwv9iNmp3SwgagHgWnFrbwsdxKzdLHAtnh8DwKfsbaG1oLWbBUQtAKyJvS2sL2afz2azn3+xmwWa4PkxAJzP3haajdnpx91s7UAAUQsA7cWtvS1cI2Y/7GZ3nAbQNM+PAeDy7G1h5aD9ZDcLIGoBoHv2tnBxzNrNAu3w/BgArsbeFs6O2andLCBqASBU3Nrbgt0s0BXPjwGgGfa2DDho7WYBUQsAmbC3ZUgxazcLdM/zYwBonr0tucfs1G4WELUAMIi4tbclq5i1mwV6x/NjAFg/e1syCFq7WUDUAsDA2dsSMWbtZoF+8/wYANplb0uUmJ3azQKiFgD4g7i1t6WXMWs3C4Ti+TEAdMvelh4Frd0sIGoBgCuxt6XLmLWbBeLy/BgA+sPelrZjdmo3C4haAGANcWtvy1pj1m4WyIbnxwDQX/a2rCFo7WYBUQsAtMreliZi1m4WyJPnxwAQg70tV43Zqd0sIGoBgB7Frb0tl4pZu1lgEDw/BoCY7G35g6C1mwVELQAQgr0tp2PWbhYYHs+PASA+e1sxO7WbBUQtAJBB3NrbDixm7WaBwfP8GADyY287iKC1mwUQtQCQtfd72+82fnvkLHKKWbtZgNM8PwaAvE2LotrZ2jye29uGj9mp3SyAqAWAwcbt+73tm61iuXxgbxsqZu1mAf6A58cAMCj1zN42UtDazQKIWgDgrLi1t+11zNrNAlyW58cAMFz2tv2L2andLICoBQBWjFt7285j1m4W4Io8PwYATtjbdhO0drMAohYAaDJu7W1biVm7WYAmeH4MAJzF3nZ9MTu1mwUQtQBAS3Frb9tYzNrNAqyB58cAwCXY214vaO1mAUQtANCHuLW3XSlmn89ms58O7WYB1sfzYwBgVfa2F8fs9ONuFgBRCwD0Mm7tbb+I2ZspjR+llLb98QBoh+fHAMA12du+D9oPu1lBCyBqAYCIcTvIva3dLEC3PD8GAJo0mL2t3SxAP7iphYb8eDCZF3X1INVp4TQAft/bHuT2JHk2e35zNvvph5OnxoIWQNRCPnb3J7tFVd2tU/3UaQCklNve1m4WQNRC/mFbThY/vvpqu1hWt+tU7TkRgJSi723tZgFELQw0bifzIqV7niQDpJQ+7m0P728czYPE7HQ2++kgpfFBSmnqRwggamF4cfvq1ou9/Vu37W0BPsZt3/e2drMAohb4PG7tbQE+08+9rd0sgKgFzgtbe1uAs+K2F3tbu1kAUQusFLf2tgCndLa3tZsFELXAVePW3hbgi7hta29rNwsgaoGm4tbeFuAz693b2s0CiFqg6bC1twU4K27n9Xh0cH/j10bi8+Spsd0sgKgF1hu39rYAp0xHqfhLQ7/WLNnNAohaoIW4tbcFAABRC+Hj1t4WAABELYQOW3tbAAAQtZBH3NrbAgCAqIXIcWtvCwAAohbCx629LQAAohYIHbb2tgAAiFogj7idzIuiuutJMgAAohaIGbcvJ6W9LQAAohaIHbcne9uiqB47DQAARC0QL2zLyWL35WTH3hYAAFELhI5be1sAAEQtEDtu7W0BABC1QPi4tbcFAEDUAqHD1t4WAABRC+QQt/a2AACIWiB23NrbAgAgaoHwcWtvCwCAqAVCh629LQAAohbIIW7tbQEAELVA7Li1twUAQNQC4ePW3hYAAFELhA5be1sAAEQtkEPc2tsCACBqgdhxa28LAICoBcLHrb0tAACiFggdtva2AACIWiCHuLW3BQBA1AKx49beFgAAUQuEj1t7WwAARC0QOmztbQEAELVADnFrbwsAgKgFYsetvS0AAKIWCB+39rYAAIhaIHTY2tsCACBqgRzi1t4WAABRC8SOW3tbAABELRA+bu1tAQAQtUDosLW3BQBA1AI5xK29LQAAohaIHbf2tgAAiFogfNza2wIAIGqB0GFrbwsAIGodAZBD3NrbAgCIWoDYcWtvCwAgagHCx629LQCAqAUIHbb2tgAAohYgh7i1twUAELUAsePW3hYAQNQChI9be1sAAFELEDps7W0BAEQtQA5xa28LACBqAWLHrb0tAICoBQgft/a2AACiFiB02NrbAgCIWoAc4tbeFgBA1ALEjlt7WwAAUQsQPm7tbQEARC1A6LC1twUAELUAOcStvS0AgKgFiB239rYAAKIWIHzc2tsCAIhagNBha28LACBqAXKIW3tbAABRCxA7bu1tAQBELUD4uN2f7BbVv9+xtwUAELUAMcO2/NNbe1sAAFELEDxuT/a2y3/e8SQZAEDUAgSN2/96bW8LACBqAWLHrb0tAICoBQgdtva2AACiFiB+3NrbAgCIWoDwcWtvCwAgagGix629LQCAqAUIHbb2tgAAohYgftza2wIAiFqA8HFrbwsAIGoBosetvS0AgKgFCB229rYAAKIWIH7c2tsCAKIWgPBxa28LAIhaAKLH7cne1kkAAKIWgJhhW/7prVMAAEQtAAAAiFoAAAAQtQAAACBqAQAAELUAAAAgagEAAEDUAgAAIGoBAABA1AIAAICoBaALRb18mOq0cBIAjdtNafnCMYCoBWCdX1z7f35SVNXdOlV7TgOgEWVKy7tl+fWDsrz31nHA9d1wBAD8YdiWk0VKaT6fHe1U47RTpNGWUwFY2SKl5cOyvOd2FhrmphaAS8ftj68m86KuHniSDHBpb1OqH6e0vCNoYT3c1AKwWtzuT3ZTSrvzjaN5nUaPUpGmTgXg7L8yT25nPTOGNXJTC8CV49beFuBMpd0stMdNLQBXD1t7W4DTFnaz0D43tQA0Erf2tsCA2c1Ch9zUAtBc3NrbAgP8q89uFrrlphaAtcStvS2QudJuFvrBTS0A6wlbe1sgT4uUlg/K8l7pKKAf3NQCsPa4tbcFMnB6NytooUfc1ALQTtza2wJh1U9TqnY8M4Z+clMLQOtxa28LBFG+381+sy1oob/c1ALQftja2wL9trCbhTjc1ALQadza2wI9YjcLAbmpBaD7uLW3BTpnNwtRuakFoFdxa28LtKy0m4XY3NQC0K+wtbcF2rGwm4U8uKkFoLdxa28LrIHdLIhaAIZiPjuadh63+5Pdvf1bt8UtcH3105SWt8vyG9tZELUADOLzbzw6/G7jt0d9+L3Y2wLXUNrNgqgFYKCKotrZ2jw+vL9xNO88bD88SV5Wt8UtcAmL9zH79V1PjUHUAjBs01Exera1eXw4n/3ff/cmbj1JBs5mNwuiFgDOjtt6/G+/bG2+eWZvC/ST3SyIWgC4+KNx/mFvO58d3uxD3NrbwuCVdrMgagFgJUVR7dTj//jF3hbo0MJuFkQtAFyHvS3QBbtZQNQC0Gzc2tsC7bCbBUQtAOv72LS3BdaltJsFRC0ArbC3BRq0sJsFRC0AXbC3Ba7DbhYQtQD0I27tbYHV2M0CohaA/n2k9nRvWz/1s4HeKN/fzNrNAqIWgJ7q3972q217W+jc4tRu9rXjAEQtAH3Xz71tSvc8SYZWvU2pflyWX9+2mwVELQAh47ZXe9tXt17Y20JbPu5mnQUgagGI/nFrbwvDUdrNAqIWgCzZ20LWFnazgKgFYAjsbSEvdrOAqAVgmHFrbwvR2c0CohYAH8X2thBPaTcLiFoAOMXeFkJY2M0CohYAzmdvC/1kNwuIWgBYJW7tbaEv7GYBUQsAV/2YtreF7pR2s4CoBYAG2NtCqxZ2s4CoBYDm2dvCetnNAqIWANqIW3tbaJrdLCBqAaDtj3B7W7i+0m4WELUA0CF7W7iShd0sIGoBoD/sbeFy7GYBUQsAfY5be1s4j90sIGoBIMrHu70tfFTazQKiFgACsrdl4BZ2s4CoBYD47G0ZGrtZQNQCQI5xa29L/uxmAVELALl/9NvbkqPyJGbtZgFRCwBDYG9LJhandrMLxwGIWgAYFntbonqbUnpoNwuIWgAgJXtbQvmwm/36ibMARC0AcDoWTu1texC39rZ8qrSbBUQtAHCh93vb0YG9LT2xsJsFRC0AsKrf97Z/nR3N+hG3k3lRVHc9SR4Mu1lA1DoCALh+3I7Ho4Pe7G1fTkp72yGwmwUQtQDQbGT0cm9bFNVjP5uslHazAKIWANamb3vb3ZeTHXvbLCzsZgFELQC0xd6WptjNAohaAOgubu1tuTq7WQBRCwD9iBN7W1ZR2s0CiFoA6B17Wy6wsJsFELUA0Hf2tnzObhZA1AJAvLi1t8VuFkDUAkD0qLG3HabSbhZA1AJANuxtB2NhNwsgagEgV/a2+bKbBRC1ADCcuLW3zYndLICoBYBhxpC9bWyl3SyAqAWAwbO3DWdhNwsgagGAT9nb9p/dLICoBQAuilt72z6qH9vNAohaAODyEWVv2w/lyW52x24WQNQCACuyt+1K/dpuFkDUAgDNsLdtz8lu9ps7drMAohYAaDhu7W3XyW4WQNQCAG3El71ts0q7WQBRCwC0zN722v84YDcLIGoBgI7Z267ObhZA1AIAfYtbe9vLsJsFELUAQI/Z256jtJsFELUAQBD2tr9Hvt0sgKgFAIIa8t7WbhZA1AIAucTtsPa2drMAuSgcAQDn2do8rp3CMNX1aGdUvdvbLSeLrn8v89k/bqb0z+lu+Z+vr/trzWY/z1J6t/DMGEDUAiBqyd+iqqvHf9uf7DoKAEQtAKKWsHG7XFYP/l5OSkcBQN/Y1AIAF+nV3hYATnNTC8C53NRylj7tbQHATS0AsJI+/f+2AOCmFoBzuanlEhbLlB7+/dWtF44CgC64qQUArmM6Tum5vS0AXXFTC8C53NSy+pfF6Enx7t1Te1sA2uKmFgBoTl1t29sC0CY3tQCcy00t12RvC8DauakFANbF3haAtXNTC8C53NTS7FeHvS0AzXNTCwC0w94WgDVwUwvAudzUskb2tgA0wk0tANAFe1sAGuGmFoBzuamlvS8Se1sArsZNLQDQPXtbAK7ITS0A53JTS0fsbQG4NDe1AEDf2NsCcGluagE4l5ta+vG1Ym8LwPluOAIAoNfqarsejW6mlB44DAA+5/kxAAAAohYAAABELQAAAIhaAAAARC0AAACIWgAAABC1AAAAIGoBAAAQtQAAACBqAQAAQNQCAAAgagEAAEDUAgAAgKgFAAAAUQsAAICoBQAAAFELAAAAohYAAABRCwAAAKIWAAAARC0AAACIWgAAAEQtAAAAiFoAAAAQtQAAAIhaAAAAELUAAAAgagEAAEDUAgAAIGoBAABA1AIAAICoBQAAQNQCAACAqAUAAABRCwAAAKIWAAAAUQsAAACiFgAAAEQtAAAAohYAAABELQAAAIhaAAAAELUAAACIWgAAABC1AAAAIGoBAAAQtQAAACBqAQAAQNQCAACAqAUAAEDUAgAAgKgFAAAAUQsAAACiFgAAAFELAAAAohYAAABELQAAAKIWAAAARC0AAACIWgAAABC1AAAAiFoAAAAQtQAAACBqAQAAELUAAAAgagEAAEDUAgAAgKgFAABA1AIAAICoBQAAAFELAACAqAUAAABRCwAAAKIWAAAARC0AAACiFgAAAEQtAAAAiFoAAABELQAAAIhaAAAAELUAAAAgagEAABC1AAAAIGoBAABA1AIAACBqAQAAQNQCAACAqAUAAABRCwAAgKgFAAAAUQsAAACiFgAAAFELAF+q08IhAACiFoCQ9vZv3S6K6nGqi7dOAwAQtQCEs/tyslNUyzt1qvacBgAgagGIF7blZPHjq8m8WFa3U0qvnQgAIGoBCBm3e69u3Snq6oG9LQAgagGIGbf7k117WwBA1AIQO27tbQEAUQtA6LC1twUARC0AOcStvS0AIGoBiB239rYAgKgFIHzc2tsCAKIWgNBha28LAIhaAHKIW3tbAEDUAhA7bu1tAQBRC0D4uLW3BQBELQChw9beFgAQtQDkELf2tgCAqAUgdtza2wIAohaA8HFrbwsAiFoAQoetvS0AIGoByCFu7W0BAFELQOy4tbcFAEQtAOHj1t4WABC1AIQOW3tbAEDUApBD3NrbAgCiFoDYcWtvCwCiFgDCx629LQCIWgAIHbaf7G3r0okAgKgFgJBxu/fqq7v2tgAgagEgbtx+srcVtwAgagEgYty+nOwUVXXX3hYARC0AxAxbe1sAELUAkEPc2tsCgKgFgNhxa28LAKIWAMLHrb0tAIhaAAgdtva2ACBqASCHuLW3BQBRCwCx49beFgBELQCEj1t7WwAQtQAQOmztbQFA1AJADnFrbwsAohYAYsetvS0AiFoACB+39rYAIGoBIHTY2tsCgKgFgBzi1t4WAEQtAMSOW3tbABC1ABA+bu1tAUDUAkDosLW3BQBRCwA5xK29LQCIWgCIHbf2tgAgagEgfNza2wKAqAWA0GFrbwsAohYAcohbe1sAELUAEDtu7W0BQNQCQPi4tbcFAFELAKHD1t4WAEQtAOQQt/a2ACBqASB23NrbAoCoBYDwcWtvCwCiFgBCh629LQCIWgDIIW7tbQFA1AJA7Li1twUAUQsA4ePW3hYAUQsAhA5be1sARC0AkEPc2tsCIGoBgNhxa28LgKgFAMLHrb0tAKIWAAgdtva2AIhaACCHuLW3BUDUAgCx49beFgBRCwCEj1t7WwBELQAQOmztbQEQtQBADnFrbwuAqAUAYsetvS0AohYACB+39rYAiFoAIHTY2tsCIGoBgBzi1t4WAFELAMSOW3tbAEQtABA+bu1tARC1AEDosLW3BUDUAgA5xK29LQCiFgCIHbf2tgCIWgAgfNza2wIgagGA0GFrbwuAqAUAcohbe1sARC0AEDtu7W0BELUAQPi4tbcFQNQCAKHD1t4WAFELAOQQt/a2AIhaACB23H7Y29bLh+IWAFELAASN2z8/sbcFQNQCAHHD9tO97QsnAoCoBQBCxu3eq6/u2dsCAAAQ3nzj/7fnG0c7TgIAAAAAAAAAAAAAAAAAAAAAAAAAAAAAAAAAAAAAAAAAAAAAAAAAAAAAAAAAAAAAAAAAAAAAAAAAAAAAAAAAAAAAAAAAAAAAAAAAAAAAAAAAAAAAAAAAAAAAAAAAAAAAAAAAAAAAAAAAAAAAAAAAAAAAAAAAAAAAAAAAAAAAAAAAAAAAAAAAAAAAAAAAAAAAAAAAAAAAAAAAAAAAAAAAAAAAAAAAAAAAAAAAAAAAAAAAAAAAAAAAAAAAAAAAAAAAAAAAAAAAAAAAAAAAAAAAAAAAAAAAAAAAAAAAgBb8C70HhvqxspEsAAAAAElFTkSuQmCC;" parent="1" vertex="1">
                    <mxGeometry x="573.62" y="320.5" width="62.65" height="47" as="geometry"/>
                </mxCell>
                <mxCell id="-JWOgZodCvPbYzVBMZfy-221" value="" style="aspect=fixed;html=1;points=[];align=center;image;fontSize=12;image=img/lib/azure2/general/Resource_Groups.svg;" parent="1" vertex="1">
                    <mxGeometry x="582" y="370.81" width="45.89" height="43.19" as="geometry"/>
                </mxCell>
                <mxCell id="-JWOgZodCvPbYzVBMZfy-222" value="" style="sketch=0;aspect=fixed;html=1;points=[];align=center;image;fontSize=12;image=img/lib/mscae/VM_Scale_Set.svg;" parent="1" vertex="1">
                    <mxGeometry x="214.79000000000002" y="491" width="38" height="38" as="geometry"/>
                </mxCell>
                <mxCell id="-JWOgZodCvPbYzVBMZfy-226" value="" style="verticalLabelPosition=bottom;html=1;verticalAlign=top;align=center;strokeColor=none;fillColor=#00BEF2;shape=mxgraph.azure.azure_subscription;" parent="1" vertex="1">
                    <mxGeometry x="70" y="253" width="50" height="35" as="geometry"/>
                </mxCell>
                <mxCell id="-JWOgZodCvPbYzVBMZfy-227" value="" style="aspect=fixed;html=1;points=[];align=center;image;fontSize=12;image=img/lib/azure2/networking/Network_Security_Groups.svg;" parent="1" vertex="1">
                    <mxGeometry x="165.42000000000002" y="447.10999999999996" width="14.65" height="17.79" as="geometry"/>
                </mxCell>
                <mxCell id="RJY9cBfib0s0GZrYaYMM-216" value="" style="aspect=fixed;html=1;points=[];align=center;image;fontSize=12;image=img/lib/azure2/networking/Network_Security_Groups.svg;" parent="1" vertex="1">
                    <mxGeometry x="400.82000000000005" y="448.09999999999997" width="14.65" height="17.79" as="geometry"/>
                </mxCell>
            </root>
        </mxGraphModel>
    </diagram>
    <diagram id="VgXq-_DHpemDkWIjSAJg" name="Page-2">
        <mxGraphModel dx="1032" dy="697" grid="1" gridSize="10" guides="1" tooltips="1" connect="1" arrows="1" fold="1" page="1" pageScale="1" pageWidth="850" pageHeight="1100" math="0" shadow="0">
            <root>
                <mxCell id="0"/>
                <mxCell id="1" parent="0"/>
            </root>
        </mxGraphModel>
    </diagram>
</mxfile>